<svg width="48" height="48" viewBox="0 0 48 48" fill="none" xmlns="http://www.w3.org/2000/svg">
<g clip-path="url(#clip0)">
<path d="M44.2818 13.231L28.3638 0.956238V9.74839H3.71814V16.7135H28.3638V25.5057L44.2818 13.231Z" fill="#FFAD61"/>
<path d="M3.71814 34.7692L19.6362 47.0439V38.2516H44.2818V31.2865H19.6362V22.4945L3.71814 34.7692Z" fill="#FFE6B8"/>
<path d="M28.3647 26.4619C28.2209 26.4619 28.0767 26.4295 27.9429 26.3638C27.6158 26.2029 27.4086 25.8702 27.4086 25.5057V17.6696H3.719C3.191 17.6696 2.76285 17.2416 2.76285 16.7135V9.74841C2.76285 9.22031 3.191 8.79225 3.719 8.79225H27.4085V0.956249C27.4085 0.591749 27.6157 0.25903 27.9428 0.0981554C28.2698 -0.0628134 28.6598 -0.0234384 28.9486 0.19903L44.8666 12.4738C45.1014 12.6548 45.239 12.9345 45.239 13.231C45.239 13.5276 45.1015 13.8072 44.8666 13.9882L28.9485 26.2629C28.7781 26.3944 28.572 26.4619 28.3647 26.4619ZM4.67516 15.7573H28.3647C28.8927 15.7573 29.3208 16.1854 29.3208 16.7135V23.561L42.7168 13.231L29.3209 2.90109V9.7485C29.3209 10.2766 28.8928 10.7047 28.3648 10.7047H4.67516V15.7573Z" fill="#4D3D36"/>
<path d="M19.6362 48C19.4287 48 19.2228 47.9325 19.0522 47.8011L3.13422 35.5264C2.89947 35.3454 2.76184 35.0657 2.76184 34.7692C2.76184 34.4726 2.89937 34.193 3.13422 34.0119L19.0522 21.7373C19.3409 21.5146 19.7311 21.4756 20.0581 21.6364C20.3852 21.7972 20.5923 22.13 20.5923 22.4945V30.3306H44.2818C44.8098 30.3306 45.238 30.7586 45.238 31.2867V38.2518C45.238 38.7799 44.8098 39.2079 44.2818 39.2079H20.5922V47.0439C20.5922 47.4084 20.3851 47.7411 20.058 47.9019C19.9242 47.9678 19.7797 48 19.6362 48ZM5.2839 34.7692L18.6799 45.0991V38.2517C18.6799 37.7236 19.1081 37.2955 19.6361 37.2955H43.3256V32.2428H19.636C19.108 32.2428 18.6798 31.8147 18.6798 31.2866V24.4391L5.2839 34.7692Z" fill="#4D3D36"/>
<path d="M16.3959 41.4783C16.1913 41.4783 15.9854 41.4129 15.8113 41.2781L15.5968 41.1121C15.1792 40.7889 15.1027 40.1883 15.4259 39.7707C15.7492 39.3531 16.35 39.2768 16.7672 39.5998L16.9817 39.7658C17.3993 40.089 17.4758 40.6896 17.1526 41.1072C16.9643 41.3507 16.6815 41.4783 16.3959 41.4783Z" fill="#4D3D36"/>
<path d="M13.7174 39.4046C13.5128 39.4046 13.3069 39.3392 13.1327 39.2044L9.16752 36.1346C8.74996 35.8113 8.67355 35.2108 8.9968 34.7932C9.32015 34.3756 9.92052 34.2992 10.3382 34.6224L14.3033 37.6922C14.7209 38.0155 14.7973 38.6161 14.4741 39.0336C14.2857 39.277 14.0031 39.4046 13.7174 39.4046Z" fill="#4D3D36"/>
</g>
<defs>
<clipPath id="clip0">
<rect width="48" height="48" fill="white"/>
</clipPath>
</defs>
</svg>
