<svg width="48" height="48" viewBox="0 0 48 48" fill="none" xmlns="http://www.w3.org/2000/svg">
<path d="M30.75 5.25H22.6275H9.75V17.25H32.25V10.4692V5.25H30.75Z" fill="#A9E47F"/>
<path d="M8.625 45.495C8.87049 45.6619 9.16065 45.7508 9.4575 45.75H20.595C20.8588 45.7523 21.1182 45.6823 21.345 45.5475L31.395 39.75C31.6232 39.6171 31.8126 39.4266 31.9442 39.1976C32.0758 38.9686 32.1451 38.7091 32.145 38.445C32.1444 38.1839 32.0745 37.9277 31.9425 37.7025C31.8447 37.5313 31.714 37.3813 31.5579 37.261C31.4018 37.1407 31.2234 37.0525 31.033 37.0016C30.8426 36.9507 30.644 36.938 30.4486 36.9643C30.2533 36.9907 30.0651 37.0555 29.895 37.155L23.5687 40.8C23.4294 40.9422 23.2631 41.0552 23.0796 41.1324C22.8961 41.2097 22.6991 41.2496 22.5 41.25C22.6991 41.2496 22.8961 41.2097 23.0796 41.1324C23.2631 41.0552 23.4294 40.9422 23.5687 40.8L23.5575 40.806L23.5425 40.821L23.5575 40.806L23.5687 40.8C23.7754 40.5892 23.9152 40.3221 23.9708 40.0322C24.0263 39.7423 23.995 39.4424 23.8809 39.1702C23.7668 38.8979 23.575 38.6654 23.3293 38.5017C23.0837 38.338 22.7952 38.2505 22.5 38.25H16.5L16.1603 38.025C14.9282 37.2036 13.4807 36.7654 12 36.7654C10.5193 36.7654 9.07176 37.2036 7.83975 38.025L7.5 38.25H6.75V44.25L8.625 45.495Z" fill="#EFEBE5"/>
<path d="M6.75 44.25V38.25V36.75H2.25V45.75H6.75V44.25Z" fill="#006DF0"/>
<path d="M41.25 3.75V9.74025V11.25H45.75V2.25H41.25V3.75Z" fill="#006DF0"/>
<path d="M30.75 21.75H11.25V35.25H30.75V21.75Z" fill="#FFE2BD"/>
<path d="M22.5 21.75H19.5V26.25H22.5V21.75Z" fill="#FFAF46"/>
<path d="M38.5665 2.40825C38.3583 2.30419 38.1287 2.25002 37.896 2.25H26.904C26.5633 2.24984 26.2326 2.3657 25.9665 2.5785L22.6275 5.25H30L28.1452 7.10475C27.8416 7.40854 27.671 7.82048 27.671 8.25C27.671 8.67952 27.8416 9.09146 28.1452 9.39525L28.1497 9.39975C28.4457 9.69545 28.8446 9.8652 29.2628 9.87344C29.6811 9.88169 30.0864 9.7278 30.3937 9.444L32.25 7.569V10.4692L32.3137 10.5L33.2227 10.8698C34.0851 11.2206 35.0173 11.3661 35.9455 11.2945C36.8738 11.2229 37.7726 10.9362 38.571 10.4572L39.75 9.75L41.25 9.74025V3.75L38.5665 2.40825Z" fill="#EFEBE5"/>
<path d="M21 35.25H30.75V26.25C30.75 31.2248 26.3895 35.25 21 35.25Z" fill="#FFDAAA"/>
<path d="M24 17.25H32.25V9C32.25 12.7312 27.7312 17.25 24 17.25Z" fill="#91DC5A"/>
<path d="M45.75 1.5H41.25C41.0511 1.5 40.8603 1.57902 40.7197 1.71967C40.579 1.86032 40.5 2.05109 40.5 2.25V2.5365L38.9017 1.737C38.5893 1.58141 38.2451 1.50029 37.896 1.5H26.904C26.3936 1.50048 25.8985 1.67451 25.5 1.9935L22.3643 4.5H9.75C9.55109 4.5 9.36032 4.57902 9.21967 4.71967C9.07902 4.86032 9 5.05109 9 5.25V17.25C9 17.4489 9.07902 17.6397 9.21967 17.7803C9.36032 17.921 9.55109 18 9.75 18H32.25C32.4489 18 32.6397 17.921 32.7803 17.7803C32.921 17.6397 33 17.4489 33 17.25V11.586C33.9639 11.9664 35.0023 12.1203 36.0352 12.0361C37.068 11.9518 38.0677 11.6316 38.9573 11.1L39.96 10.5H40.5V11.25C40.5 11.4489 40.579 11.6397 40.7197 11.7803C40.8603 11.921 41.0511 12 41.25 12H45.75C45.9489 12 46.1397 11.921 46.2803 11.7803C46.421 11.6397 46.5 11.4489 46.5 11.25V2.25C46.5 2.05109 46.421 1.86032 46.2803 1.71967C46.1397 1.57902 45.9489 1.5 45.75 1.5ZM10.5 16.5V6H28.4468L27.606 6.8415C27.1961 7.26585 26.9694 7.83421 26.9745 8.42415C26.9796 9.0141 27.2162 9.57842 27.6334 9.99559C28.0506 10.4128 28.6149 10.6494 29.2048 10.6545C29.7948 10.6596 30.3631 10.4329 30.7875 10.023L31.5 9.3105V16.5H10.5ZM39.7455 9C39.6109 9.00059 39.479 9.03766 39.3638 9.10725L38.1855 9.81375C37.4863 10.2313 36.6999 10.4813 35.8879 10.544C35.076 10.6067 34.2605 10.4805 33.5055 10.1753L33 9.96975V7.8105L33.9525 6.858L34.3395 6.987C35.4177 7.34399 36.5823 7.34399 37.6605 6.987L38.4855 6.71175C38.6745 6.64889 38.8307 6.51355 38.9199 6.33548C39.0091 6.15741 39.0239 5.95122 38.961 5.76225C38.8981 5.57328 38.7628 5.41703 38.5847 5.32785C38.4067 5.23868 38.2005 5.22389 38.0115 5.28675L37.1865 5.56275C36.4166 5.81773 35.5849 5.81773 34.815 5.56275L33.99 5.28675C33.8579 5.24279 33.7161 5.23649 33.5806 5.26855C33.4451 5.3006 33.3212 5.36975 33.2228 5.46825L31.7228 6.96825L29.727 8.9625C29.5864 9.1031 29.3956 9.18209 29.1968 9.18209C28.9979 9.18209 28.8071 9.1031 28.6665 8.9625C28.5259 8.82185 28.4469 8.63112 28.4469 8.43225C28.4469 8.23338 28.5259 8.04265 28.6665 7.902L31.581 4.98675C31.7176 4.8453 31.7932 4.65585 31.7915 4.4592C31.7898 4.26255 31.7109 4.07444 31.5719 3.93539C31.4328 3.79633 31.2447 3.71745 31.048 3.71574C30.8514 3.71404 30.662 3.78963 30.5205 3.92625L29.9468 4.5H24.7657L26.4353 3.16425C26.5683 3.05785 26.7336 2.99992 26.904 3H37.896C38.0123 3.0004 38.1269 3.02734 38.2312 3.07875L40.5 4.2135V8.99475L39.7455 9ZM45 10.5H42V3H45V10.5Z" fill="black"/>
<path d="M21 9C21.1989 9 21.3897 9.07902 21.5303 9.21967C21.671 9.36032 21.75 9.55109 21.75 9.75H23.25C23.2481 9.2863 23.1029 8.83453 22.8344 8.45648C22.5659 8.07842 22.1872 7.79256 21.75 7.638V6.75H20.25V7.638C19.75 7.81412 19.3284 8.16151 19.06 8.61865C18.7916 9.07579 18.6936 9.61318 18.7835 10.1356C18.8733 10.6581 19.1451 11.1319 19.5508 11.4731C19.9565 11.8144 20.4699 12.001 21 12C21.1483 12 21.2933 12.044 21.4167 12.1264C21.54 12.2088 21.6361 12.3259 21.6929 12.463C21.7497 12.6 21.7645 12.7508 21.7356 12.8963C21.7067 13.0418 21.6352 13.1754 21.5303 13.2803C21.4254 13.3852 21.2918 13.4567 21.1463 13.4856C21.0008 13.5145 20.85 13.4997 20.713 13.4429C20.5759 13.3861 20.4588 13.29 20.3764 13.1667C20.294 13.0433 20.25 12.8983 20.25 12.75H18.75C18.7519 13.2137 18.8971 13.6655 19.1656 14.0435C19.4341 14.4216 19.8128 14.7074 20.25 14.862V15.75H21.75V14.862C22.25 14.6859 22.6716 14.3385 22.94 13.8814C23.2084 13.4242 23.3064 12.8868 23.2165 12.3644C23.1267 11.8419 22.8549 11.3681 22.4492 11.0269C22.0435 10.6856 21.5301 10.499 21 10.5C20.8011 10.5 20.6103 10.421 20.4697 10.2803C20.329 10.1397 20.25 9.94891 20.25 9.75C20.25 9.55109 20.329 9.36032 20.4697 9.21967C20.6103 9.07902 20.8011 9 21 9Z" fill="black"/>
<path d="M16.5 10.5H15C14.8011 10.5 14.6103 10.579 14.4697 10.7197C14.329 10.8603 14.25 11.0511 14.25 11.25C14.25 11.4489 14.329 11.6397 14.4697 11.7803C14.6103 11.921 14.8011 12 15 12H16.5C16.6989 12 16.8897 11.921 17.0303 11.7803C17.171 11.6397 17.25 11.4489 17.25 11.25C17.25 11.0511 17.171 10.8603 17.0303 10.7197C16.8897 10.579 16.6989 10.5 16.5 10.5Z" fill="black"/>
<path d="M27 10.5H25.5C25.3011 10.5 25.1103 10.579 24.9697 10.7197C24.829 10.8603 24.75 11.0511 24.75 11.25C24.75 11.4489 24.829 11.6397 24.9697 11.7803C25.1103 11.921 25.3011 12 25.5 12H27C27.1989 12 27.3897 11.921 27.5303 11.7803C27.671 11.6397 27.75 11.4489 27.75 11.25C27.75 11.0511 27.671 10.8603 27.5303 10.7197C27.3897 10.579 27.1989 10.5 27 10.5Z" fill="black"/>
<path d="M32.5935 37.3298C32.4467 37.0727 32.2504 36.8474 32.016 36.6666C31.7816 36.4858 31.5138 36.3533 31.2279 36.2766C30.942 36.1999 30.6438 36.1805 30.3504 36.2197C30.057 36.2589 29.7743 36.3557 29.5185 36.5048L24.6982 39.2798C24.5907 38.7764 24.3138 38.3252 23.9137 38.0013C23.5137 37.6774 23.0147 37.5005 22.5 37.5H16.725L16.575 37.3995C15.2339 36.5021 13.6586 36.0189 12.0449 36.0101C10.4313 36.0013 8.85077 36.4673 7.5 37.35V36.75C7.5 36.5511 7.42098 36.3603 7.28033 36.2197C7.13968 36.079 6.94891 36 6.75 36H2.25C2.05109 36 1.86032 36.079 1.71967 36.2197C1.57902 36.3603 1.5 36.5511 1.5 36.75V45.75C1.5 45.9489 1.57902 46.1397 1.71967 46.2803C1.86032 46.421 2.05109 46.5 2.25 46.5H6.75C6.94891 46.5 7.13968 46.421 7.28033 46.2803C7.42098 46.1397 7.5 45.9489 7.5 45.75V45.648L8.2005 46.113C8.5712 46.3652 9.00917 46.5 9.4575 46.5H20.595C20.9902 46.5033 21.3789 46.3996 21.72 46.2L31.77 40.4025C32.112 40.2035 32.3959 39.9183 32.5933 39.5754C32.7907 39.2324 32.8948 38.8437 32.895 38.448C32.8949 38.0552 32.7908 37.6694 32.5935 37.3298ZM6 45H3V37.5H6V45ZM31.02 39.1005L20.9587 44.9048C20.8485 44.9692 20.7227 45.0021 20.595 45H9.4575C9.30829 45.0003 9.16254 44.955 9.03975 44.8703L7.5 43.848V39C7.64782 39.0001 7.79237 38.9565 7.9155 38.8748L8.256 38.6498C9.36396 37.9082 10.6672 37.5123 12.0004 37.5123C13.3336 37.5123 14.6368 37.9082 15.7448 38.6498L16.0845 38.8748C16.2076 38.9565 16.3522 39.0001 16.5 39H22.5C22.6989 39 22.8897 39.079 23.0303 39.2197C23.171 39.3603 23.25 39.5511 23.25 39.75C23.25 39.9489 23.171 40.1397 23.0303 40.2803C22.8897 40.421 22.6989 40.5 22.5 40.5H18C17.8011 40.5 17.6103 40.579 17.4697 40.7197C17.329 40.8603 17.25 41.0511 17.25 41.25C17.25 41.4489 17.329 41.6397 17.4697 41.7803C17.6103 41.921 17.8011 42 18 42H22.5C23.0489 41.9982 23.5778 41.7942 23.9858 41.427L30.276 37.8C30.3595 37.7508 30.4521 37.7188 30.5482 37.7059C30.6443 37.693 30.742 37.6995 30.8355 37.725C30.9316 37.7505 31.0217 37.7949 31.1004 37.8557C31.1791 37.9165 31.2448 37.9924 31.2937 38.079C31.3594 38.1898 31.3944 38.3162 31.395 38.445C31.3952 38.5775 31.3607 38.7077 31.2949 38.8228C31.2291 38.9378 31.1343 39.0335 31.02 39.1005Z" fill="black"/>
<path d="M30.75 21H11.25C11.0511 21 10.8603 21.079 10.7197 21.2197C10.579 21.3603 10.5 21.5511 10.5 21.75V35.25C10.5 35.4489 10.579 35.6397 10.7197 35.7803C10.8603 35.921 11.0511 36 11.25 36H30.75C30.9489 36 31.1397 35.921 31.2803 35.7803C31.421 35.6397 31.5 35.4489 31.5 35.25V21.75C31.5 21.5511 31.421 21.3603 31.2803 21.2197C31.1397 21.079 30.9489 21 30.75 21ZM21.75 22.5V25.5H20.25V22.5H21.75ZM30 34.5H12V22.5H18.75V26.25C18.75 26.4489 18.829 26.6397 18.9697 26.7803C19.1103 26.921 19.3011 27 19.5 27H22.5C22.6989 27 22.8897 26.921 23.0303 26.7803C23.171 26.6397 23.25 26.4489 23.25 26.25V22.5H30V34.5Z" fill="black"/>
<path d="M16.5 30H13.5C13.3011 30 13.1103 30.079 12.9697 30.2197C12.829 30.3603 12.75 30.5511 12.75 30.75C12.75 30.9489 12.829 31.1397 12.9697 31.2803C13.1103 31.421 13.3011 31.5 13.5 31.5H16.5C16.6989 31.5 16.8897 31.421 17.0303 31.2803C17.171 31.1397 17.25 30.9489 17.25 30.75C17.25 30.5511 17.171 30.3603 17.0303 30.2197C16.8897 30.079 16.6989 30 16.5 30Z" fill="black"/>
<path d="M19.5 30H18.75C18.5511 30 18.3603 30.079 18.2197 30.2197C18.079 30.3603 18 30.5511 18 30.75C18 30.9489 18.079 31.1397 18.2197 31.2803C18.3603 31.421 18.5511 31.5 18.75 31.5H19.5C19.6989 31.5 19.8897 31.421 20.0303 31.2803C20.171 31.1397 20.25 30.9489 20.25 30.75C20.25 30.5511 20.171 30.3603 20.0303 30.2197C19.8897 30.079 19.6989 30 19.5 30Z" fill="black"/>
<path d="M16.5 32.25H13.5C13.3011 32.25 13.1103 32.329 12.9697 32.4697C12.829 32.6103 12.75 32.8011 12.75 33C12.75 33.1989 12.829 33.3897 12.9697 33.5303C13.1103 33.671 13.3011 33.75 13.5 33.75H16.5C16.6989 33.75 16.8897 33.671 17.0303 33.5303C17.171 33.3897 17.25 33.1989 17.25 33C17.25 32.8011 17.171 32.6103 17.0303 32.4697C16.8897 32.329 16.6989 32.25 16.5 32.25Z" fill="black"/>
<path d="M19.5 32.25H18.75C18.5511 32.25 18.3603 32.329 18.2197 32.4697C18.079 32.6103 18 32.8011 18 33C18 33.1989 18.079 33.3897 18.2197 33.5303C18.3603 33.671 18.5511 33.75 18.75 33.75H19.5C19.6989 33.75 19.8897 33.671 20.0303 33.5303C20.171 33.3897 20.25 33.1989 20.25 33C20.25 32.8011 20.171 32.6103 20.0303 32.4697C19.8897 32.329 19.6989 32.25 19.5 32.25Z" fill="black"/>
</svg>
