<svg width="48" height="48" viewBox="0 0 48 48" fill="none" xmlns="http://www.w3.org/2000/svg">
<path d="M38.0649 38.5418C40.2555 38.5418 42.0313 36.766 42.0313 34.5754C42.0313 32.3848 40.2555 30.609 38.0649 30.609C35.8743 30.609 34.0985 32.3848 34.0985 34.5754C34.0985 36.766 35.8743 38.5418 38.0649 38.5418Z" fill="#2A4A97"/>
<path d="M12.8409 38.5418C15.0315 38.5418 16.8073 36.766 16.8073 34.5754C16.8073 32.3848 15.0315 30.609 12.8409 30.609C10.6504 30.609 8.87457 32.3848 8.87457 34.5754C8.87457 36.766 10.6504 38.5418 12.8409 38.5418Z" fill="#2A4A97"/>
<path d="M16.8015 34.6909H34.1045C34.1034 34.6523 34.0987 34.6144 34.0987 34.5754C34.0987 33.7641 34.3434 33.0103 34.7613 32.382H16.1445C16.5626 33.0103 16.8071 33.7641 16.8071 34.5754C16.8073 34.6144 16.8024 34.6523 16.8015 34.6909Z" fill="#C5E3FF"/>
<path d="M46.9145 32.382H41.3685C41.7866 33.0103 42.0311 33.7641 42.0311 34.5754C42.0311 34.6144 42.0264 34.6521 42.0253 34.6909H46.9145C47.255 34.6909 47.5312 34.4149 47.5312 34.0742V32.9985C47.5312 32.658 47.2552 32.382 46.9145 32.382Z" fill="#C5E3FF"/>
<path d="M8.87456 34.5754C8.87456 33.7641 9.11925 33.0103 9.53718 32.382H5.31919C4.97869 32.382 4.7025 32.658 4.7025 32.9987V34.0744C4.7025 34.4149 4.9785 34.6911 5.31919 34.6911H8.88056C8.87943 34.6523 8.87456 34.6144 8.87456 34.5754Z" fill="#C5E3FF"/>
<path d="M31.1929 9.45825H6.26418C5.78418 9.45825 5.39512 9.84731 5.39512 10.3273V32.382H9.53718C10.2478 31.3138 11.4615 30.6092 12.8407 30.6092C14.22 30.6092 15.4337 31.3138 16.1443 32.382H32.0616V10.3273C32.0619 9.84731 31.6729 9.45825 31.1929 9.45825Z" fill="#FC3850"/>
<path d="M46.0046 27.585H44.4069C43.992 27.585 43.6554 27.2486 43.6554 26.8335V25.8172C43.6554 25.4023 43.9918 25.0657 44.4069 25.0657H45.8364L41.5845 18.3934C41.3383 18.0071 40.9119 17.7731 40.4538 17.7731H32.0619V32.382H34.7613C35.472 31.3138 36.6857 30.6092 38.0649 30.6092C39.4442 30.6092 40.6578 31.3138 41.3685 32.382H46.3173V27.5149C46.2219 27.5589 46.1167 27.585 46.0046 27.585Z" fill="#C5E3FF"/>
<path d="M12.5327 16.658H8.31544C8.0565 16.658 7.84669 16.8678 7.84669 17.1268V24.5782C7.84669 24.8372 8.0565 25.047 8.31544 25.047H9.27713C9.53606 25.047 9.74588 24.8372 9.74588 24.5782V21.707H12.0358C12.2948 21.707 12.5046 21.4972 12.5046 21.2383V20.4879C12.5046 20.229 12.2948 20.0192 12.0358 20.0192H9.74606V18.3778H12.5327C12.7916 18.3778 13.0014 18.168 13.0014 17.909V17.127C13.0014 16.8678 12.7916 16.658 12.5327 16.658Z" fill="#EDF4FC"/>
<path d="M19.107 24.32L17.4455 21.8019C17.8729 21.6532 18.2265 21.4271 18.5015 21.1264C18.9195 20.669 19.1315 20.0702 19.1315 19.3462C19.1315 18.5475 18.8696 17.8912 18.353 17.3959C17.8419 16.9061 17.0927 16.6579 16.1263 16.6579H13.674C13.4151 16.6579 13.2052 16.8677 13.2052 17.1266V24.578C13.2052 24.837 13.4151 25.0468 13.674 25.0468H14.6357C14.8946 25.0468 15.1044 24.837 15.1044 24.578V22.0027H15.4252L17.2318 24.8304C17.3179 24.9652 17.4669 25.0468 17.6269 25.0468H18.7155C18.888 25.0468 19.0466 24.9521 19.1282 24.8002C19.2101 24.6485 19.2019 24.464 19.107 24.32ZM15.1046 18.4305H16.0417C17.0694 18.4305 17.2112 18.896 17.2112 19.3991C17.2112 19.9024 17.0694 20.3679 16.0417 20.3679H15.1046V18.4305Z" fill="#EDF4FC"/>
<path d="M23.9473 18.3776C24.2063 18.3776 24.4161 18.1678 24.4161 17.9088V17.1268C24.4161 16.8678 24.2063 16.658 23.9473 16.658H19.8358C19.5769 16.658 19.3671 16.8678 19.3671 17.1268V24.5782C19.3671 24.8372 19.5769 25.047 19.8358 25.047H23.9473C24.2063 25.047 24.4161 24.8372 24.4161 24.5782V23.7962C24.4161 23.5372 24.2063 23.3274 23.9473 23.3274H21.2664V21.6648H23.6303C23.8892 21.6648 24.099 21.455 24.099 21.1961V20.4562C24.099 20.1973 23.8892 19.9875 23.6303 19.9875H21.2664V18.3778H23.9473V18.3776Z" fill="#EDF4FC"/>
<path d="M29.2956 18.3776C29.5545 18.3776 29.7643 18.1678 29.7643 17.9088V17.1268C29.7643 16.8678 29.5545 16.658 29.2956 16.658H25.1841C24.9251 16.658 24.7153 16.8678 24.7153 17.1268V24.5782C24.7153 24.8372 24.9251 25.047 25.1841 25.047H29.2956C29.5545 25.047 29.7643 24.8372 29.7643 24.5782V23.7962C29.7643 23.5372 29.5545 23.3274 29.2956 23.3274H26.6147V21.6648H28.9785C29.2374 21.6648 29.4473 21.455 29.4473 21.1961V20.4562C29.4473 20.1973 29.2374 19.9875 28.9785 19.9875H26.6147V18.3778H29.2956V18.3776Z" fill="#EDF4FC"/>
<path d="M43.6556 25.8172C43.6556 25.4023 43.992 25.0657 44.4071 25.0657H45.8366L42.873 20.415H35.5307C35.2033 20.415 34.9356 20.6827 34.9356 21.0101V25.8272C34.9356 26.1546 35.2033 26.4223 35.5307 26.4223H43.6558V25.8172H43.6556Z" fill="#45BDF0"/>
<path d="M38.0649 36.1834C38.953 36.1834 39.6729 35.4635 39.6729 34.5754C39.6729 33.6873 38.953 32.9674 38.0649 32.9674C37.1768 32.9674 36.4569 33.6873 36.4569 34.5754C36.4569 35.4635 37.1768 36.1834 38.0649 36.1834Z" fill="#C5E3FF"/>
<path d="M12.8409 36.1834C13.729 36.1834 14.4489 35.4635 14.4489 34.5754C14.4489 33.6873 13.729 32.9674 12.8409 32.9674C11.9529 32.9674 11.2329 33.6873 11.2329 34.5754C11.2329 35.4635 11.9529 36.1834 12.8409 36.1834Z" fill="#C5E3FF"/>
<path d="M46.0047 25.0657H44.407C43.992 25.0657 43.6555 25.4021 43.6555 25.8172V26.8335C43.6555 27.2484 43.9918 27.585 44.407 27.585H46.0047C46.4196 27.585 46.7562 27.2486 46.7562 26.8335V25.8172C46.7562 25.4023 46.4198 25.0657 46.0047 25.0657Z" fill="#2A4A97"/>
<path d="M38.065 39.0105C35.6196 39.0105 33.63 37.0209 33.63 34.5756C33.63 32.13 35.6196 30.1404 38.065 30.1404C40.5105 30.1404 42.5001 32.13 42.5001 34.5756C42.5001 37.0209 40.5105 39.0105 38.065 39.0105ZM38.065 31.0779C36.1363 31.0779 34.5675 32.6469 34.5675 34.5756C34.5675 36.5042 36.1365 38.073 38.065 38.073C39.9934 38.073 41.5626 36.504 41.5626 34.5756C41.5626 32.6471 39.9934 31.0779 38.065 31.0779Z" fill="black"/>
<path d="M12.8409 39.0105C10.3956 39.0105 8.406 37.0209 8.406 34.5756C8.406 32.13 10.3956 30.1404 12.8409 30.1404C15.2865 30.1404 17.2761 32.13 17.2761 34.5756C17.2761 37.0209 15.2865 39.0105 12.8409 39.0105ZM12.8409 31.0779C10.9123 31.0779 9.3435 32.6469 9.3435 34.5756C9.3435 36.5042 10.9125 38.073 12.8409 38.073C14.7694 38.073 16.3386 36.504 16.3386 34.5756C16.3386 32.6471 14.7696 31.0779 12.8409 31.0779Z" fill="black"/>
<path d="M34.1044 35.1596H16.8013C16.6748 35.1596 16.5535 35.1084 16.4653 35.0177C16.377 34.9269 16.3292 34.8041 16.3328 34.6777C16.3333 34.6543 16.335 34.6311 16.3365 34.608C16.3373 34.5971 16.3384 34.5864 16.3384 34.5756C16.3384 33.8848 16.1365 33.2162 15.7541 32.6419C15.6585 32.4981 15.6497 32.3132 15.7313 32.1609C15.8128 32.0087 15.9716 31.9136 16.1445 31.9136H34.7612C34.9339 31.9136 35.0929 32.0087 35.1745 32.1609C35.256 32.3132 35.2472 32.4981 35.1516 32.6419C34.7693 33.2162 34.5673 33.885 34.5673 34.5756C34.5673 34.5868 34.5685 34.5977 34.5692 34.6087C34.5707 34.6316 34.5722 34.6547 34.573 34.6777C34.5765 34.8043 34.5287 34.9269 34.4404 35.0177C34.3523 35.1084 34.231 35.1596 34.1044 35.1596ZM17.262 34.2221H33.6439C33.6814 33.7479 33.7946 33.2859 33.9788 32.8507H16.9271C17.1113 33.2859 17.2245 33.7479 17.262 34.2221Z" fill="black"/>
<path d="M46.9146 35.1596H42.0253C41.8988 35.1596 41.7774 35.1084 41.6893 35.0177C41.601 34.9269 41.5532 34.8041 41.5568 34.6777C41.5573 34.6543 41.559 34.6311 41.5605 34.608C41.5613 34.5973 41.5624 34.5864 41.5624 34.5756C41.5624 33.8848 41.3603 33.2162 40.9781 32.6419C40.8823 32.4981 40.8735 32.3132 40.9551 32.1609C41.0366 32.0087 41.1954 31.9136 41.3683 31.9136H46.9146C47.5131 31.9136 48 32.4006 48 32.9991V34.0747C48 34.6727 47.5131 35.1596 46.9146 35.1596ZM42.486 34.2221H46.9148C46.9963 34.2221 47.0627 34.1557 47.0627 34.0742V32.9985C47.0627 32.9169 46.9963 32.8506 46.9148 32.8506H42.1511C42.3353 33.2857 42.4485 33.7479 42.486 34.2221Z" fill="black"/>
<path d="M8.88056 35.1596H5.31919C4.72069 35.1596 4.23375 34.6727 4.23375 34.0742V32.9985C4.23375 32.4 4.72069 31.9131 5.31919 31.9131H9.53737C9.71006 31.9131 9.86906 32.0081 9.95062 32.1604C10.0322 32.3126 10.0234 32.4975 9.92775 32.6413C9.54543 33.2156 9.3435 33.8844 9.3435 34.575C9.3435 34.5862 9.34462 34.5973 9.34537 34.6086C9.34687 34.6311 9.34837 34.6534 9.34912 34.6761C9.35306 34.8028 9.30543 34.9258 9.21712 35.0167C9.12881 35.1082 9.00731 35.1596 8.88056 35.1596ZM5.31919 32.8507C5.23762 32.8507 5.17125 32.9171 5.17125 32.9987V34.0744C5.17125 34.1559 5.23762 34.2223 5.31919 34.2223H8.41987C8.45737 33.7481 8.57062 33.2861 8.75475 32.8509H5.31919V32.8507Z" fill="black"/>
<path d="M32.0619 32.8507H16.1445C15.9876 32.8507 15.8411 32.7723 15.7541 32.6417C15.1026 31.6623 14.0136 31.0779 12.8407 31.0779C11.6681 31.0779 10.5789 31.6625 9.92737 32.6417C9.84056 32.7723 9.69393 32.8507 9.53699 32.8507H5.39512C5.13618 32.8507 4.92637 32.6409 4.92637 32.382V10.3273C4.92637 9.58967 5.52656 8.98967 6.26418 8.98967H31.1929C31.9305 8.98967 32.5307 9.58967 32.5307 10.3273V32.382C32.5307 32.6409 32.3207 32.8507 32.0619 32.8507ZM16.3869 31.9132H31.593V10.3273C31.593 10.1066 31.4134 9.92717 31.1927 9.92717H6.26418C6.04349 9.92717 5.86387 10.1068 5.86387 10.3273V31.9132H9.29474C10.1317 30.7985 11.439 30.1402 12.8407 30.1402C14.2425 30.1402 15.5499 30.7985 16.3869 31.9132Z" fill="black"/>
<path d="M46.3174 32.8507H41.3683C41.2114 32.8507 41.0649 32.7724 40.9779 32.6417C40.3265 31.6624 39.2374 31.0779 38.0645 31.0779C36.8919 31.0779 35.8027 31.6625 35.1512 32.6417C35.0644 32.7724 34.9177 32.8507 34.7608 32.8507H32.0613C31.8024 32.8507 31.5926 32.6409 31.5926 32.382V17.7733C31.5926 17.5143 31.8024 17.3045 32.0613 17.3045H40.4533C41.0749 17.3045 41.6452 17.6175 41.9794 18.1415L46.2313 24.8139C46.3232 24.9583 46.3292 25.1413 46.2469 25.2911C46.1645 25.4411 46.007 25.5345 45.8359 25.5345H44.4064C44.2505 25.5345 44.1238 25.6612 44.1238 25.8172V26.8335C44.1238 26.9893 44.2505 27.116 44.4064 27.116H46.004C46.0425 27.116 46.0819 27.1068 46.1209 27.0888C46.2658 27.0221 46.4349 27.0337 46.5697 27.12C46.7042 27.206 46.7855 27.3549 46.7855 27.5147V32.3818C46.7861 32.6409 46.5763 32.8507 46.3174 32.8507ZM41.6109 31.9132H45.8488V28.0537H44.4071C43.7344 28.0537 43.187 27.5064 43.187 26.8337V25.8174C43.187 25.1447 43.7344 24.5972 44.4071 24.5972H44.982L41.1892 18.6455C41.0284 18.393 40.7535 18.2422 40.4539 18.2422H32.5307V31.9136H34.5189C35.3559 30.7989 36.6632 30.1406 38.0649 30.1406C39.4667 30.1404 40.7739 30.7985 41.6109 31.9132Z" fill="black"/>
<path d="M36.4856 28.635H35.3229C35.064 28.635 34.8542 28.4252 34.8542 28.1663C34.8542 27.9073 35.064 27.6975 35.3229 27.6975H36.4856C36.7446 27.6975 36.9544 27.9073 36.9544 28.1663C36.9544 28.4252 36.7446 28.635 36.4856 28.635Z" fill="black"/>
<path d="M2.49056 22.265H0.46875C0.209812 22.265 0 22.0552 0 21.7963C0 21.5374 0.209812 21.3275 0.46875 21.3275H2.49056C2.7495 21.3275 2.95931 21.5374 2.95931 21.7963C2.95931 22.0552 2.7495 22.265 2.49056 22.265Z" fill="black"/>
<path d="M2.49056 25.6875H0.46875C0.209812 25.6875 0 25.4777 0 25.2188C0 24.9598 0.209812 24.75 0.46875 24.75H2.49056C2.7495 24.75 2.95931 24.9598 2.95931 25.2188C2.95931 25.4777 2.7495 25.6875 2.49056 25.6875Z" fill="black"/>
<path d="M2.49056 29.1103H0.46875C0.209812 29.1103 0 28.9005 0 28.6416C0 28.3826 0.209812 28.1728 0.46875 28.1728H2.49056C2.7495 28.1728 2.95931 28.3826 2.95931 28.6416C2.95931 28.9005 2.7495 29.1103 2.49056 29.1103Z" fill="black"/>
<path d="M2.49056 11.9972H0.46875C0.209812 11.9972 0 11.7874 0 11.5284C0 11.2695 0.209812 11.0597 0.46875 11.0597H2.49056C2.7495 11.0597 2.95931 11.2695 2.95931 11.5284C2.95931 11.7874 2.7495 11.9972 2.49056 11.9972Z" fill="black"/>
<path d="M2.49056 15.4198H0.46875C0.209812 15.4198 0 15.21 0 14.9511C0 14.6921 0.209812 14.4823 0.46875 14.4823H2.49056C2.7495 14.4823 2.95931 14.6921 2.95931 14.9511C2.95931 15.21 2.7495 15.4198 2.49056 15.4198Z" fill="black"/>
<path d="M2.49056 18.8425H0.46875C0.209812 18.8425 0 18.6327 0 18.3737C0 18.1148 0.209812 17.905 0.46875 17.905H2.49056C2.7495 17.905 2.95931 18.1148 2.95931 18.3737C2.95931 18.6327 2.7495 18.8425 2.49056 18.8425Z" fill="black"/>
<path d="M2.49056 32.5329H0.46875C0.209812 32.5329 0 32.3231 0 32.0642C0 31.8052 0.209812 31.5954 0.46875 31.5954H2.49056C2.7495 31.5954 2.95931 31.8052 2.95931 32.0642C2.95931 32.3231 2.7495 32.5329 2.49056 32.5329Z" fill="black"/>
<path d="M9.2773 25.5157H8.31561C7.79868 25.5157 7.37811 25.0952 7.37811 24.5782V17.1268C7.37811 16.6098 7.79868 16.1893 8.31561 16.1893H12.5329C13.0498 16.1893 13.4704 16.6098 13.4704 17.1268V17.9088C13.4704 18.4258 13.0498 18.8463 12.5329 18.8463H10.2148V19.5502H12.036C12.5529 19.5502 12.9735 19.9708 12.9735 20.4877V21.2381C12.9735 21.755 12.5529 22.1756 12.036 22.1756H10.2148V24.578C10.2148 25.0952 9.79405 25.5157 9.2773 25.5157ZM8.31543 17.1268V24.5782H9.27711V21.707C9.27711 21.4481 9.48693 21.2383 9.74586 21.2383H12.0358V20.4879H9.74605C9.48711 20.4879 9.2773 20.2781 9.2773 20.0192V18.3778C9.2773 18.1188 9.48711 17.909 9.74605 17.909H12.5327V17.127H8.31543V17.1268Z" fill="black"/>
<path d="M18.7157 25.5157H17.6271C17.3055 25.5157 17.0102 25.3541 16.8371 25.0832L15.5734 23.1052V24.5782C15.5734 25.0952 15.1528 25.5157 14.6359 25.5157H13.6742C13.1572 25.5157 12.7367 25.0952 12.7367 24.5782V17.1268C12.7367 16.6098 13.1572 16.1893 13.6742 16.1893H16.1263C17.2177 16.1893 18.0761 16.4814 18.6774 17.0576C19.29 17.6448 19.6005 18.4149 19.6005 19.3464C19.6005 20.1909 19.3472 20.8963 18.8477 21.4428C18.6459 21.6635 18.4091 21.8507 18.1397 22.0025L19.4987 24.062C19.6888 24.3506 19.7053 24.7185 19.5416 25.0228C19.3776 25.3267 19.0612 25.5157 18.7157 25.5157ZM15.1046 21.5342H15.4254C15.5854 21.5342 15.7342 21.6157 15.8205 21.7505L17.6271 24.5782H18.7157L17.0542 22.0601C16.9747 21.9393 16.9552 21.7886 17.0016 21.6517C17.0479 21.5148 17.1549 21.4068 17.2914 21.3592C17.6437 21.2366 17.9346 21.0517 18.1556 20.81C18.4922 20.4418 18.6628 19.9494 18.6628 19.3462C18.6628 18.6707 18.4554 18.1434 18.0285 17.7343C17.6077 17.3312 16.9676 17.1266 16.1261 17.1266H13.674V24.578H14.6357V22.0027C14.6359 21.744 14.8457 21.5342 15.1046 21.5342ZM16.0416 20.8367H15.1044C14.8455 20.8367 14.6357 20.6268 14.6357 20.3679V18.4305C14.6357 18.1715 14.8455 17.9617 15.1044 17.9617H16.0416C17.1287 17.9617 17.6797 18.4453 17.6797 19.3991C17.6797 20.3529 17.1287 20.8367 16.0416 20.8367ZM15.5734 19.8992H16.0417C16.7424 19.8992 16.7424 19.7109 16.7424 19.3991C16.7424 19.0873 16.7424 18.8992 16.0417 18.8992H15.5734V19.8992Z" fill="black"/>
<path d="M23.9473 25.5157H19.8358C19.3189 25.5157 18.8983 25.0952 18.8983 24.5782V17.1268C18.8983 16.6098 19.3189 16.1893 19.8358 16.1893H23.9473C24.4643 16.1893 24.8848 16.6098 24.8848 17.1268V17.9088C24.8848 18.4258 24.4643 18.8463 23.9473 18.8463H21.7352V19.5185H23.6303C24.1472 19.5185 24.5678 19.9391 24.5678 20.456V21.1959C24.5678 21.7128 24.1472 22.1334 23.6303 22.1334H21.7352V22.8585H23.9473C24.4643 22.8585 24.8848 23.279 24.8848 23.796V24.578C24.8848 25.0952 24.4643 25.5157 23.9473 25.5157ZM19.836 17.1268V24.5782H23.9475V23.7962H21.2666C21.0077 23.7962 20.7979 23.5863 20.7979 23.3274V21.6648C20.7979 21.4059 21.0077 21.1961 21.2666 21.1961H23.6304V20.4562H21.2666C21.0077 20.4562 20.7979 20.2464 20.7979 19.9875V18.3778C20.7979 18.1188 21.0077 17.909 21.2666 17.909H23.9483L23.9477 17.127H19.836V17.1268Z" fill="black"/>
<path d="M29.2956 25.5157H25.1841C24.6671 25.5157 24.2466 25.0952 24.2466 24.5782V17.1268C24.2466 16.6098 24.6671 16.1893 25.1841 16.1893H29.2956C29.8125 16.1893 30.2331 16.6098 30.2331 17.1268V17.9088C30.2331 18.4258 29.8125 18.8463 29.2956 18.8463H27.0834V19.5185H28.9785C29.4954 19.5185 29.916 19.9391 29.916 20.456V21.1959C29.916 21.7128 29.4954 22.1334 28.9785 22.1334H27.0834V22.8585H29.2956C29.8125 22.8585 30.2331 23.279 30.2331 23.796V24.578C30.2331 25.0952 29.8125 25.5157 29.2956 25.5157ZM25.1841 17.1268V24.5782H29.2956V23.7962H26.6147C26.3558 23.7962 26.1459 23.5863 26.1459 23.3274V21.6648C26.1459 21.4059 26.3558 21.1961 26.6147 21.1961H28.9785V20.4562H26.6147C26.3558 20.4562 26.1459 20.2464 26.1459 19.9875V18.3778C26.1459 18.1188 26.3558 17.909 26.6147 17.909H29.2963L29.2958 17.127L25.1841 17.1268Z" fill="black"/>
<path d="M43.6556 26.8911H35.5305C34.944 26.8911 34.4668 26.4139 34.4668 25.8272V21.0102C34.4668 20.4237 34.944 19.9465 35.5305 19.9465H42.8728C43.0329 19.9465 43.182 20.0282 43.2681 20.1632L46.2317 24.814C46.3236 24.9583 46.3296 25.1413 46.2472 25.2913C46.1649 25.4413 46.0074 25.5347 45.8363 25.5347H44.4067C44.2509 25.5347 44.1242 25.6615 44.1242 25.8175V26.4225C44.1244 26.6813 43.9146 26.8911 43.6556 26.8911ZM35.5305 20.8838C35.4621 20.8838 35.4043 20.9417 35.4043 21.01V25.827C35.4043 25.8955 35.4621 25.9534 35.5305 25.9534H43.1869V25.8171C43.1869 25.1443 43.7342 24.5968 44.4069 24.5968H44.9818L42.6156 20.8836H35.5305V20.8838Z" fill="black"/>
<path d="M38.0649 36.6522C36.9198 36.6522 35.9882 35.7205 35.9882 34.5754C35.9882 33.4303 36.9198 32.4987 38.0649 32.4987C39.21 32.4987 40.1417 33.4303 40.1417 34.5754C40.1417 35.7205 39.21 36.6522 38.0649 36.6522ZM38.0649 33.4363C37.4368 33.4363 36.9257 33.9475 36.9257 34.5756C36.9257 35.2037 37.4368 35.7148 38.0649 35.7148C38.693 35.7148 39.2042 35.2037 39.2042 34.5756C39.2042 33.9475 38.693 33.4363 38.0649 33.4363Z" fill="black"/>
<path d="M12.8409 36.6522C11.6959 36.6522 10.7642 35.7205 10.7642 34.5754C10.7642 33.4303 11.6959 32.4987 12.8409 32.4987C13.986 32.4987 14.9177 33.4303 14.9177 34.5754C14.9177 35.7205 13.986 36.6522 12.8409 36.6522ZM12.8409 33.4363C12.2128 33.4363 11.7017 33.9475 11.7017 34.5756C11.7017 35.2037 12.2128 35.7148 12.8409 35.7148C13.4693 35.7148 13.9802 35.2037 13.9802 34.5756C13.9802 33.9475 13.4691 33.4363 12.8409 33.4363Z" fill="black"/>
<path d="M46.0046 28.0537H44.4069C43.7342 28.0537 43.1868 27.5064 43.1868 26.8337V25.8174C43.1868 25.1447 43.7342 24.5972 44.4069 24.5972H46.0046C46.6773 24.5972 47.2248 25.1445 47.2248 25.8174V26.8337C47.2248 27.5064 46.6775 28.0537 46.0046 28.0537ZM44.4069 25.5345C44.2511 25.5345 44.1243 25.6612 44.1243 25.8172V26.8335C44.1243 26.9893 44.2511 27.1161 44.4069 27.1161H46.0046C46.1606 27.1161 46.2873 26.9893 46.2873 26.8335V25.8172C46.2873 25.6612 46.1606 25.5345 46.0046 25.5345H44.4069Z" fill="black"/>
</svg>
