<svg width="48" height="48" viewBox="0 0 48 48" fill="none" xmlns="http://www.w3.org/2000/svg">
<g clip-path="url(#clip0)">
<path d="M33.8599 31.447L26.4205 34.5762L32.099 47.2435L34.7901 43.3846L39.4615 43.9432L33.8599 31.447Z" fill="#FF507D"/>
<path d="M8.56952 43.9432L13.2409 43.3846L15.932 47.2435L21.6106 34.5762L14.1712 31.447L8.56952 43.9432Z" fill="#FF507D"/>
<path d="M17.8229 32.983L14.1712 31.447L8.56952 43.9431L13.1556 43.3948L16.2569 36.4765C16.805 36.7281 17.4046 36.8701 18.0214 36.8701C18.2414 36.8701 18.4631 36.8527 18.6805 36.8185L20.3482 36.5561L20.6425 36.7355L21.6106 34.5762L17.8229 32.983Z" fill="#D23C69"/>
<path d="M31.769 36.4651C32.4113 36.1648 32.9806 35.7105 33.407 35.1239L34.3989 33.7602L34.8479 33.6515L33.8596 31.447L30.2079 32.983L26.4202 34.5762L32.0988 47.2436L34.79 43.3846L34.8754 43.3948L31.769 36.4651Z" fill="#D23C69"/>
<path d="M41.1728 19.1445L40.1776 20.7768C39.953 21.1451 39.8665 21.5811 39.9336 22.0072L40.2303 23.8926C40.3365 24.5676 40.0556 25.2454 39.5028 25.6473L37.9602 26.7694C37.611 27.0235 37.3633 27.3934 37.2617 27.8131L36.8125 29.6694C36.652 30.3323 36.1344 30.8499 35.4715 31.0103L33.6153 31.4595C33.1956 31.561 32.8255 31.8086 32.5715 32.1579L31.4497 33.7002C31.0477 34.2528 30.37 34.5337 29.6948 34.4276L27.8101 34.131C27.384 34.0639 26.9479 34.1504 26.5796 34.3749L24.9476 35.3701C24.3658 35.7249 23.6343 35.7249 23.0525 35.3701L21.4202 34.3748C21.052 34.1503 20.6159 34.0637 20.1898 34.1309L18.3044 34.4275C17.6294 34.5337 16.9516 34.2528 16.5497 33.7001L15.4276 32.1574C15.1736 31.8082 14.8036 31.5605 14.3839 31.459L12.5276 31.0097C11.8647 30.8492 11.3471 30.3316 11.1867 29.6687L10.7376 27.8126C10.6361 27.3929 10.3885 27.0227 10.0391 26.7688L8.49686 25.6469C7.94421 25.2449 7.66333 24.5672 7.76946 23.892L8.06608 22.0074C8.13311 21.5813 8.04667 21.1452 7.82214 20.7768L6.82699 19.1447C6.47214 18.5629 6.47214 17.8315 6.82699 17.2497L7.82224 15.6174C8.04677 15.2491 8.1333 14.8131 8.06617 14.387L7.76955 12.5016C7.66333 11.8266 7.94421 11.1488 8.49696 10.7469L10.0396 9.62476C10.3888 9.3707 10.6365 9.00076 10.7381 8.58104L11.1873 6.72479C11.3478 6.06188 11.8654 5.54429 12.5283 5.38388L14.3845 4.93472C14.8042 4.83319 15.1743 4.5856 15.4284 4.23629L16.5502 2.694C16.9522 2.14135 17.6299 1.86047 18.3051 1.9666L20.1898 2.26322C20.6158 2.33025 21.052 2.24381 21.4203 2.01928L23.0522 1.02413C23.634 0.669281 24.3655 0.669281 24.9473 1.02413L26.5796 2.01938C26.9478 2.24391 27.3839 2.33044 27.81 2.26331L29.6954 1.96669C30.3704 1.86047 31.0482 2.14135 31.4501 2.6941L32.5722 4.23676C32.8262 4.58597 33.1962 4.83366 33.6159 4.93519L35.4721 5.38444C36.1351 5.54494 36.6527 6.06254 36.8131 6.72545L37.2622 8.58161C37.3637 9.00133 37.6113 9.37145 37.9607 9.62551L39.5029 10.7473C40.0556 11.1493 40.3365 11.827 40.2303 12.5022L39.9337 14.3869C39.8667 14.813 39.9531 15.2491 40.1777 15.6175L41.1728 17.2494C41.5276 17.8314 41.5276 18.5626 41.1728 19.1445Z" fill="#FFC850"/>
<path d="M13.5108 14.5661C13.5108 9.72864 15.3252 5.31676 18.3069 1.96688L18.305 1.9666C17.6299 1.86029 16.9521 2.14116 16.5502 2.69391L15.4285 4.2362C15.1744 4.58541 14.8044 4.8331 14.3846 4.93463L12.5284 5.38379C11.8655 5.5442 11.3479 6.06179 11.1874 6.7247L10.7381 8.58095C10.6366 9.00067 10.389 9.37061 10.0397 9.62467L8.49695 10.7468C7.94439 11.1487 7.66342 11.8264 7.76955 12.5015L8.06617 14.3868C8.1332 14.8129 8.04667 15.2489 7.82223 15.6172L6.82689 17.2493C6.47204 17.8311 6.47204 18.5625 6.82689 19.1443L7.82204 20.7763C8.04667 21.1446 8.13311 21.5807 8.06598 22.0068L7.76936 23.8917C7.66304 24.5668 7.94392 25.2446 8.49667 25.6465L10.039 26.7683C10.3882 27.0224 10.6359 27.3924 10.7374 27.8122L11.1866 29.6684C11.347 30.3313 11.8646 30.8489 12.5275 31.0094L14.3837 31.4586C14.8034 31.5601 15.1734 31.8077 15.4274 32.1571L16.5494 33.6997C16.9514 34.2523 17.6291 34.5332 18.3042 34.4271L20.1895 34.1305C20.6156 34.0635 21.0516 34.1499 21.42 34.3744L23.0522 35.3697C23.6341 35.7245 24.3655 35.7245 24.9473 35.3697L26.5792 34.3745C26.9476 34.1499 27.3837 34.0635 27.8098 34.1306L29.6945 34.4272C30.3696 34.5335 31.0475 34.2526 31.4494 33.6999L31.5914 33.5046C21.5286 33.0447 13.5108 24.7428 13.5108 14.5661Z" fill="#E1A546"/>
<path d="M23.9996 31.1069C31.1293 31.1069 36.9092 25.3271 36.9092 18.1974C36.9092 11.0676 31.1293 5.28779 23.9996 5.28779C16.8698 5.28779 11.09 11.0676 11.09 18.1974C11.09 25.3271 16.8698 31.1069 23.9996 31.1069Z" fill="#FFDC64"/>
<path d="M26.9145 24.4202C22.3412 23.5101 18.6831 19.85 17.7755 15.2763C17.4856 13.8153 17.4791 12.3955 17.7012 11.0524C17.7853 10.5437 17.1652 10.2297 16.7908 10.5842C14.4746 12.7763 13.1561 16.0107 13.5945 19.5394C14.1764 24.2241 17.9723 28.0202 22.6569 28.6024C26.1859 29.0412 29.4205 27.7226 31.6129 25.4063C31.9673 25.0319 31.6534 24.4118 31.1448 24.4959C29.7996 24.7182 28.3775 24.7113 26.9145 24.4202Z" fill="#FFC850"/>
<path d="M23.9999 23.2304L19.6309 25.6759C19.1763 25.9304 18.6325 25.5352 18.734 25.0243L19.7098 20.1134L16.0337 16.7139C15.6513 16.3602 15.8591 15.7209 16.3763 15.6596L21.3484 15.0701L23.4455 10.5235C23.6637 10.0505 24.336 10.0505 24.5541 10.5235L26.6512 15.0701L31.6233 15.6596C32.1407 15.7209 32.3484 16.3604 31.9659 16.7139L28.2899 20.1134L29.2656 25.0243C29.3672 25.5352 28.8233 25.9304 28.3687 25.6759L23.9999 23.2304Z" fill="white"/>
<path d="M23.9999 10.9353L24.4874 10.4477C24.2291 10.0708 23.6482 10.0841 23.4455 10.5234L21.3484 15.07L16.3762 15.6595C15.8589 15.7208 15.6511 16.3602 16.0336 16.7138L19.7097 20.1133L18.7338 25.0242C18.6323 25.5351 19.1761 25.9303 19.6307 25.6759L20.7819 25.0315L22.45 20.1522C22.6299 19.6261 22.5261 19.0441 22.1755 18.6126L21.879 18.2478C21.6672 17.987 21.7942 17.5944 22.1189 17.5074L22.3974 17.4327C23.056 17.256 23.5323 16.6844 23.5875 16.0049L23.9999 10.9353Z" fill="#FFFAB4"/>
<path d="M29.4451 7.33117C29.8178 7.51979 30.2729 7.36998 30.4613 6.99714C30.6498 6.62429 30.5002 6.16932 30.1273 5.98088C24.8475 3.31294 18.4874 4.33304 14.3013 8.51917C9.43615 13.3842 8.94921 21.1417 13.1687 26.5636C13.3179 26.7553 13.5408 26.8556 13.7662 26.8556C13.9286 26.8556 14.0922 26.8035 14.2303 26.696C14.56 26.4394 14.6192 25.9642 14.3627 25.6345C10.6109 20.8137 11.0445 13.9155 15.3712 9.58886C19.0938 5.86585 24.7497 4.95854 29.4451 7.33117Z" fill="black"/>
<path d="M35.1513 11.6882C34.7784 11.8766 34.6287 12.3314 34.817 12.7045C37.1879 17.3991 36.2801 23.0541 32.5581 26.776C28.2314 31.1026 21.3333 31.5361 16.5125 27.7845C16.1827 27.528 15.7076 27.5872 15.451 27.9169C15.1944 28.2467 15.2537 28.7219 15.5834 28.9785C18.0532 30.9004 21.0074 31.8459 23.9521 31.8459C27.4723 31.8459 30.9789 30.4949 33.628 27.8458C37.813 23.6608 38.8336 17.3019 36.1676 12.0225C35.9792 11.6496 35.5243 11.5001 35.1513 11.6882Z" fill="black"/>
<path d="M32.0038 9.06742C32.1927 9.2343 32.3793 9.4098 32.5583 9.58877C32.7372 9.76783 32.9127 9.9543 33.0797 10.1432C33.2291 10.3123 33.4374 10.3987 33.6468 10.3987C33.8248 10.3987 34.0035 10.3361 34.1474 10.2091C34.4604 9.93246 34.4899 9.45452 34.2133 9.14148C34.0259 8.92942 33.829 8.71998 33.6281 8.51917C33.4272 8.31826 33.2179 8.12139 33.0058 7.93398C32.6928 7.65723 32.2146 7.68686 31.9382 7.99979C31.6612 8.31273 31.6907 8.79086 32.0038 9.06742Z" fill="black"/>
<path d="M41.8186 16.8557L40.8234 15.2238C40.6924 15.0087 40.6416 14.7534 40.6808 14.5047L40.9775 12.6201C41.1287 11.6596 40.7341 10.7078 39.9479 10.1358L38.4056 9.01398C38.2017 8.86567 38.0568 8.64911 37.9974 8.40404L37.5483 6.54788C37.3203 5.60504 36.5928 4.87773 35.6501 4.64954L33.7938 4.20029C33.5488 4.14094 33.3321 3.9961 33.1839 3.7921L32.0619 2.24944C31.49 1.46325 30.5381 1.06847 29.5779 1.21978L27.6926 1.51641C27.444 1.5555 27.1885 1.50487 26.9736 1.37381L25.3414 0.378372C24.514 -0.126191 23.4861 -0.126098 22.6587 0.378372L21.0268 1.37353C20.8118 1.50469 20.5566 1.55522 20.3077 1.51612L18.4228 1.2195C17.4627 1.06837 16.5106 1.46297 15.9388 2.24916L14.8169 3.79144C14.6686 3.99535 14.452 4.14029 14.2069 4.19963L12.3507 4.64879C11.4081 4.87679 10.6806 5.60419 10.4524 6.54695L10.0031 8.4032C9.9438 8.64826 9.79896 8.86492 9.59496 9.01314L8.05221 10.1351C7.26602 10.7069 6.87152 11.6587 7.02255 12.6191L7.31917 14.5046C7.35827 14.7533 7.30764 15.0087 7.17658 15.2235L6.18123 16.8558C5.67686 17.6833 5.67686 18.7111 6.18133 19.5385L7.17649 21.1704C7.30764 21.3854 7.35827 21.6408 7.31908 21.8894L7.02245 23.7743C6.87123 24.7347 7.26583 25.6866 8.05202 26.2585L9.5943 27.3803C9.79821 27.5285 9.94315 27.7452 10.0025 27.9902L10.4516 29.8464C10.6796 30.7892 11.4071 31.5166 12.3498 31.7447L13.1249 31.9323L7.87924 43.6337C7.76777 43.8824 7.79861 44.1717 7.96014 44.3913C8.12158 44.6108 8.38849 44.7266 8.65924 44.6942L12.8801 44.1895L15.3116 47.6762C15.4539 47.8801 15.6862 47.9999 15.9318 47.9999C15.9553 47.9999 15.9792 47.9988 16.0028 47.9966C16.2741 47.9711 16.5108 47.8015 16.6223 47.553L21.9796 35.6018L22.6585 36.0157C23.0722 36.268 23.5361 36.3941 23.9999 36.3941C24.4636 36.3941 24.9275 36.2679 25.3412 36.0157L26.0446 35.5869L31.4087 47.553C31.5201 47.8017 31.7567 47.9711 32.0282 47.9966C32.0519 47.9989 32.0756 47.9999 32.0991 47.9999C32.3448 47.9999 32.5772 47.8801 32.7194 47.6762L35.1509 44.1895L39.3717 44.6942C39.6423 44.7263 39.9094 44.6108 40.0708 44.3913C40.2322 44.1717 40.2633 43.8824 40.1517 43.6337L34.9033 31.9259L35.6493 31.7454C36.5919 31.5174 37.3194 30.79 37.5476 29.8472L37.9969 27.991C38.0562 27.7459 38.201 27.5293 38.405 27.3811L39.9477 26.259C40.7339 25.6873 41.1284 24.7355 40.9774 23.775L40.6807 21.8896C40.6416 21.6409 40.6923 21.3855 40.8233 21.1707L41.8187 19.5384C42.3231 18.7109 42.3231 17.683 41.8186 16.8557ZM15.7883 45.7151L13.8613 42.9519C13.7016 42.7228 13.4284 42.6002 13.1511 42.6335L9.80618 43.0335L14.5855 32.3719C14.6728 32.4362 14.7512 32.5131 14.8158 32.6021L15.9378 34.1448C16.0444 34.2913 16.1642 34.4241 16.2948 34.5424L13.7792 40.154C13.6084 40.5352 13.7788 40.9828 14.16 41.1537C14.2605 41.1988 14.3655 41.2201 14.4689 41.2201C14.7579 41.2201 15.0339 41.0536 15.1596 40.7729L17.6663 35.1813C17.9129 35.2151 18.1669 35.2145 18.4218 35.1744L20.3071 34.8778C20.42 34.8601 20.5341 34.8617 20.6452 34.88L15.7883 45.7151ZM34.8799 42.6335C34.6023 42.6003 34.3294 42.7228 34.1697 42.9519L32.2427 45.7151L27.3838 34.8758C27.4857 34.8619 27.5896 34.8619 27.6925 34.8781L29.5772 35.1747C29.8424 35.2164 30.1067 35.2151 30.3627 35.1769L32.8712 40.7731C32.9972 41.0539 33.273 41.2203 33.5619 41.2203C33.6653 41.2203 33.7704 41.199 33.8708 41.1539C34.252 40.9831 34.4225 40.5354 34.2516 40.1542L31.7265 34.5213C31.8482 34.4082 31.9608 34.283 32.0612 34.145L33.1831 32.6027C33.2537 32.5055 33.3404 32.4222 33.4377 32.3548L38.2248 43.0336L34.8799 42.6335ZM40.527 18.7508L39.5316 20.3831C39.2142 20.9038 39.0915 21.5223 39.1863 22.1248L39.4829 24.0101C39.5452 24.4065 39.3823 24.7995 39.0578 25.0355L37.5151 26.1576C37.0213 26.5169 36.6701 27.0416 36.5265 27.6351L36.0772 29.4914C35.983 29.8805 35.6828 30.1808 35.2936 30.275L33.4373 30.7242C32.8437 30.8678 32.3189 31.219 31.9596 31.7129L30.8378 33.2552C30.6017 33.5798 30.2089 33.7426 29.8123 33.6801L27.9275 33.3835C27.325 33.2887 26.7063 33.4113 26.1856 33.7289L24.5536 34.724C24.2121 34.9322 23.7876 34.9322 23.4463 34.724L21.814 33.7288C21.408 33.4812 20.9427 33.3522 20.4718 33.3522C20.3386 33.3522 20.2049 33.3625 20.0722 33.3834L18.1868 33.68C17.7902 33.7425 17.3974 33.5794 17.1613 33.255L16.0393 31.7123C15.68 31.2185 15.1553 30.8673 14.5617 30.7237L12.7055 30.2745C12.3162 30.1802 12.0161 29.8801 11.9218 29.4908L11.4727 27.6346C11.3291 27.041 10.978 26.5161 10.484 26.1569L8.9418 25.035C8.61724 24.7989 8.45439 24.4059 8.51683 24.0094L8.81346 22.1246C8.90824 21.522 8.78561 20.9035 8.46808 20.3827L7.47292 18.7506C7.26461 18.4091 7.26461 17.9847 7.47292 17.6432L8.46827 16.0109C8.78571 15.4902 8.90843 14.8717 8.81364 14.2692L8.51702 12.3839C8.45468 11.9875 8.61761 11.5946 8.94208 11.3585L10.4848 10.2364C10.9786 9.87714 11.3298 9.35242 11.4734 8.75889L11.9227 6.90263C12.0169 6.51348 12.3171 6.2132 12.7063 6.11898L14.5626 5.66982C15.1562 5.5262 15.681 5.17501 16.0403 4.68113L17.1621 3.13885C17.3982 2.81428 17.791 2.65125 18.1876 2.71378L20.0725 3.01041C20.6751 3.10538 21.2938 2.98256 21.8144 2.66503L23.4464 1.66987C23.7879 1.46175 24.2124 1.46175 24.5537 1.66987L26.186 2.66513C26.7067 2.98275 27.3255 3.10547 27.9278 3.0106L29.8132 2.71397C30.2096 2.65181 30.6026 2.81456 30.8387 3.13903L31.9607 4.68169C32.32 5.17548 32.8447 5.52666 33.4382 5.67029L35.2945 6.11954C35.6838 6.21376 35.9839 6.51395 36.0782 6.9032L36.5273 8.75936C36.6709 9.35298 37.022 9.87789 37.516 10.2371L39.0583 11.359C39.3829 11.595 39.5457 11.988 39.4833 12.3845L39.1866 14.2693C39.0919 14.8719 39.2145 15.4904 39.532 16.0112L40.5272 17.6433C40.7353 17.9848 40.7353 18.4093 40.527 18.7508Z" fill="black"/>
<path d="M15.5201 17.2692L18.8852 20.3813L17.992 24.877C17.8869 25.4063 18.0928 25.932 18.5293 26.2491C18.7702 26.424 19.0497 26.5126 19.3309 26.5126C19.5596 26.5126 19.7893 26.4541 20.0003 26.336L23.9999 24.0973L27.9994 26.336C28.4703 26.5996 29.0339 26.5664 29.4704 26.2492C29.907 25.932 30.1128 25.4062 30.0076 24.877L29.1144 20.3814L32.4796 17.2693C32.8757 16.9031 33.0182 16.3566 32.8516 15.8434C32.6849 15.3302 32.2485 14.9719 31.7126 14.9083L27.1609 14.3686L25.2411 10.2066C25.0151 9.71665 24.5395 9.41224 23.9999 9.41224C23.4602 9.41224 22.9846 9.71665 22.7586 10.2066L20.8388 14.3687L16.2871 14.9084C15.7512 14.972 15.3147 15.3303 15.1482 15.8435C14.9816 16.3565 15.1241 16.903 15.5201 17.2692ZM21.4375 15.8212C21.6987 15.7902 21.9251 15.6257 22.0353 15.3869L23.9999 11.1278L25.9644 15.3869C26.0746 15.6257 26.301 15.7902 26.5622 15.8212L31.2201 16.3735L27.7764 19.5581C27.5833 19.7367 27.4968 20.0028 27.548 20.2608L28.4621 24.8612L24.3691 22.5703C24.2544 22.506 24.1271 22.4739 23.9997 22.4739C23.8723 22.4739 23.745 22.5059 23.6302 22.5703L19.5373 24.8612L20.4513 20.2608C20.5027 20.0027 20.4162 19.7367 20.2229 19.5581L16.7794 16.3735L21.4375 15.8212Z" fill="black"/>
</g>
<defs>
<clipPath id="clip0">
<rect width="48" height="48" fill="white"/>
</clipPath>
</defs>
</svg>
