<svg width="40" height="40" viewBox="0 0 40 40" fill="none" xmlns="http://www.w3.org/2000/svg">
<path d="M38 3H2C1.46957 3 0.960859 3.21071 0.585786 3.58579C0.210714 3.96086 0 4.46957 0 5V33C0 34.0609 0.421427 35.0783 1.17157 35.8284C1.92172 36.5786 2.93913 37 4 37H36C37.0609 37 38.0783 36.5786 38.8284 35.8284C39.5786 35.0783 40 34.0609 40 33V5C40 4.46957 39.7893 3.96086 39.4142 3.58579C39.0391 3.21071 38.5304 3 38 3V3ZM20 21C13.382 21 8 15.618 8 9H12C12 13.412 15.588 17 20 17C24.412 17 28 13.412 28 9H32C32 15.618 26.618 21 20 21Z" fill="#F64B3C"/>
</svg>
