<svg width="30" height="30" viewBox="0 0 30 30" fill="none" xmlns="http://www.w3.org/2000/svg">
<path d="M2.10936 1.03121C0.46874 2.06246 0.515615 12.9843 2.48436 16.5L14.7187 8.99996C12.8437 5.67183 3.65624 0.0937095 2.10936 1.03121Z" fill="#4C5359"/>
<path d="M4.45311 5.29686C3.74998 5.71873 3.42186 12.8906 4.64061 15.1406L12.4687 10.3594C11.3437 8.20311 5.10936 4.92186 4.45311 5.29686Z" fill="#F7A4A4"/>
<path d="M27.8906 1.03121C29.5312 2.06246 29.4844 12.9843 27.5625 16.5L15.3281 8.99996C17.1562 5.67183 26.3438 0.0937095 27.8906 1.03121Z" fill="#4C5359"/>
<path d="M25.5469 5.29686C26.25 5.71873 26.5781 12.8906 25.3594 15.1406L17.4844 10.3594C18.6562 8.20311 24.8906 4.92186 25.5469 5.29686Z" fill="#F7A4A4"/>
<path d="M14.9062 6.14062C2.20312 6.14062 1.03125 15.2344 1.03125 20.3906C1.03125 22.5 7.21875 29.0625 14.9062 29.0625C22.5938 29.0625 28.7812 22.5 28.7812 20.3906C28.7812 15.2344 27.6094 6.14062 14.9062 6.14062Z" fill="#4C5359"/>
<path d="M11.3438 18.1406C11.3438 18.1406 9.89063 20.3906 7.21875 19.6875C4.54688 18.9844 4.40625 16.3125 4.40625 16.3125C4.40625 16.3125 5.85938 14.0625 8.53125 14.7656C11.25 15.4687 11.3438 18.1406 11.3438 18.1406Z" fill="#BFFFAB"/>
<path d="M11.0625 16.9688C11.0625 16.9688 9.79688 18.375 8.01562 18.375C6.09375 18.375 4.96875 15.6094 4.96875 15.6094C4.96875 15.6094 6.23438 14.1563 8.53125 14.7188C10.6406 15.2813 11.0625 16.9688 11.0625 16.9688Z" fill="#93E67F"/>
<path d="M9.09375 16.9219C9.09375 20.0156 7.59375 20.0156 7.59375 16.9219C7.64062 13.8281 9.09375 13.8281 9.09375 16.9219Z" fill="#4C5359"/>
<path d="M18.4688 18.1406C18.4688 18.1406 19.9219 20.3906 22.5938 19.6875C25.2656 18.9844 25.4062 16.3125 25.4062 16.3125C25.4062 16.3125 23.9531 14.0625 21.2813 14.7656C18.5625 15.4687 18.4688 18.1406 18.4688 18.1406Z" fill="#BFFFAB"/>
<path d="M18.7031 16.9688C18.7031 16.9688 19.9688 18.375 21.75 18.375C23.6719 18.375 24.7969 15.6094 24.7969 15.6094C24.7969 15.6094 23.5312 14.1563 21.2344 14.7188C19.125 15.2813 18.7031 16.9688 18.7031 16.9688Z" fill="#93E67F"/>
<path d="M20.6719 16.9219C20.6719 20.0156 22.1719 20.0156 22.1719 16.9219C22.1719 13.8281 20.6719 13.8281 20.6719 16.9219Z" fill="#4C5359"/>
<path d="M18.9375 20.625C17.7188 19.6875 16.4062 16.5469 14.9062 16.5469C13.4062 16.5469 12.0469 19.6875 10.8281 20.625C8.90625 22.125 3.79688 23.8125 3.79688 23.8125C3.79688 23.8125 9.23438 28.5938 14.8594 28.5938C20.4844 28.5938 25.9219 23.8125 25.9219 23.8125C25.9687 23.8125 20.8594 22.125 18.9375 20.625Z" fill="white"/>
<path d="M14.9062 26.7188C15.3464 26.7188 15.7031 26.1941 15.7031 25.5469C15.7031 24.8997 15.3464 24.375 14.9062 24.375C14.4661 24.375 14.1094 24.8997 14.1094 25.5469C14.1094 26.1941 14.4661 26.7188 14.9062 26.7188Z" fill="#FF94A4"/>
<path d="M18.8438 24.8906C18.375 25.1719 17.8594 25.2656 17.3906 25.2656C16.875 25.2188 16.4063 25.0781 16.0313 24.75C15.6563 24.4688 15.375 24.0469 15.2812 23.5313L14.9062 21.4219L14.5312 23.5313C14.4375 24 14.1562 24.4219 13.7812 24.75C13.4062 25.0781 12.8906 25.2188 12.4219 25.2656C11.9062 25.2656 11.3906 25.1719 10.9687 24.8906C10.5 24.6094 10.125 24.1875 9.9375 23.625C9.98438 24.2344 10.2656 24.7969 10.7344 25.2188C11.2031 25.6406 11.8125 25.875 12.375 25.875C13.0312 25.9219 13.6406 25.7344 14.1563 25.3594C14.4375 25.1719 14.6719 24.8906 14.8594 24.6094C15.0469 24.8906 15.2813 25.1719 15.5625 25.3594C16.0781 25.7344 16.7344 25.9219 17.3438 25.875C17.9531 25.8281 18.5625 25.5938 19.0312 25.2188C19.5 24.7969 19.8281 24.2344 19.8281 23.625C19.6875 24.1406 19.3125 24.6094 18.8438 24.8906Z" fill="#4C5359"/>
<path d="M16.7813 21C16.4063 20.5312 15.2344 20.4844 14.9063 20.4844C14.5782 20.4844 13.4063 20.5312 13.0313 21C12.7501 21.3281 12.9844 22.1719 13.6876 22.875C14.1563 23.3437 14.5782 23.4844 14.9063 23.4844C15.2344 23.4844 15.7032 23.3437 16.1251 22.875C16.8282 22.125 17.0626 21.3281 16.7813 21Z" fill="#4C5359"/>
</svg>
