<svg width="30" height="30" viewBox="0 0 30 30" fill="none" xmlns="http://www.w3.org/2000/svg">
<path d="M16.175 15L23.0834 8.09162C23.2199 7.9322 23.2912 7.72714 23.2831 7.51741C23.275 7.30768 23.1881 7.10873 23.0397 6.96032C22.8912 6.8119 22.6923 6.72496 22.4826 6.71686C22.2728 6.70876 22.0678 6.7801 21.9084 6.91662L15 13.825L8.09169 6.90828C7.93477 6.75136 7.72194 6.66321 7.50002 6.66321C7.2781 6.66321 7.06527 6.75136 6.90835 6.90828C6.75143 7.0652 6.66328 7.27803 6.66328 7.49995C6.66328 7.72187 6.75143 7.9347 6.90835 8.09162L13.825 15L6.90835 21.9083C6.82112 21.983 6.75027 22.0749 6.70025 22.1783C6.65023 22.2817 6.62212 22.3943 6.61769 22.5091C6.61325 22.6238 6.63259 22.7383 6.67449 22.8452C6.71638 22.9522 6.77993 23.0493 6.86114 23.1305C6.94236 23.2117 7.03948 23.2753 7.14642 23.3171C7.25335 23.359 7.3678 23.3784 7.48256 23.3739C7.59733 23.3695 7.70994 23.3414 7.81333 23.2914C7.91671 23.2414 8.00865 23.1705 8.08335 23.0833L15 16.175L21.9084 23.0833C22.0678 23.2198 22.2728 23.2911 22.4826 23.283C22.6923 23.2749 22.8912 23.188 23.0397 23.0396C23.1881 22.8912 23.275 22.6922 23.2831 22.4825C23.2912 22.2728 23.2199 22.0677 23.0834 21.9083L16.175 15Z" fill="#111111"/>
</svg>
