<svg width="30" height="30" viewBox="0 0 30 30" fill="none" xmlns="http://www.w3.org/2000/svg">
<path d="M7.40631 24.4219C4.21881 22.3594 2.95318 14.3437 3.98443 10.7344C4.73443 8.01562 7.64068 4.03125 10.2657 3C12.4688 2.10938 17.5313 2.10938 19.6876 3C22.3126 4.03125 25.2188 8.01562 25.9688 10.7344C27.0001 14.3906 26.2032 22.3594 23.0626 24.4219C16.4063 28.7344 14.0626 28.7344 7.40631 24.4219Z" fill="#F5D1AC"/>
<path d="M2.39064 11.5781C4.07814 15.2812 4.50002 15.4219 6.09377 11.0156C6.93752 8.67188 6.32814 7.26562 7.35939 5.76562C7.92189 4.92188 9.18752 3.51562 9.18752 3.51562C9.18752 3.51562 -0.796855 4.54688 2.39064 11.5781Z" fill="#423223"/>
<path d="M6.65616 3.37503C4.12491 5.01566 -1.26572 4.35941 1.92178 11.3438C3.60928 15.0469 4.03116 15.1875 5.62491 10.7813C6.46866 8.43753 5.85928 7.03128 6.89053 5.53128C7.45303 4.68753 9.18741 3.51566 9.18741 3.51566C9.18741 3.51566 8.39053 2.25003 6.65616 3.37503Z" fill="#947151"/>
<path d="M27.6094 11.5312C25.9219 15.2344 25.5 15.375 23.9062 10.9688C23.0625 8.625 23.6719 7.21875 22.6406 5.71875C22.0781 4.875 20.8125 3.46875 20.8125 3.46875C20.8125 3.46875 30.7969 4.54688 27.6094 11.5312Z" fill="#423223"/>
<path d="M23.3437 3.37503C25.875 5.01566 31.2656 4.35941 28.0781 11.3438C26.3906 15.0469 25.9687 15.1875 24.375 10.7813C23.5312 8.43753 24.1406 7.03128 23.1094 5.53128C22.5469 4.68753 20.8125 3.51566 20.8125 3.51566C20.8125 3.51566 21.6094 2.25003 23.3437 3.37503Z" fill="#947151"/>
<path d="M8.29688 17.2031C9.85018 17.2031 11.1094 15.9439 11.1094 14.3906C11.1094 12.8373 9.85018 11.5781 8.29688 11.5781C6.74357 11.5781 5.48438 12.8373 5.48438 14.3906C5.48438 15.9439 6.74357 17.2031 8.29688 17.2031Z" fill="white"/>
<path d="M7.59375 16.5C8.75873 16.5 9.70313 15.5556 9.70313 14.3906C9.70313 13.2256 8.75873 12.2812 7.59375 12.2812C6.42877 12.2812 5.48438 13.2256 5.48438 14.3906C5.48438 15.5556 6.42877 16.5 7.59375 16.5Z" fill="#3E4347"/>
<path d="M21.7031 17.2031C23.2564 17.2031 24.5156 15.9439 24.5156 14.3906C24.5156 12.8373 23.2564 11.5781 21.7031 11.5781C20.1498 11.5781 18.8906 12.8373 18.8906 14.3906C18.8906 15.9439 20.1498 17.2031 21.7031 17.2031Z" fill="white"/>
<path d="M22.4062 16.5C23.5712 16.5 24.5156 15.5556 24.5156 14.3906C24.5156 13.2256 23.5712 12.2812 22.4062 12.2812C21.2413 12.2812 20.2969 13.2256 20.2969 14.3906C20.2969 15.5556 21.2413 16.5 22.4062 16.5Z" fill="#3E4347"/>
<path d="M10.1719 22.875L12.3281 25.1719C13.6406 26.5312 16.3125 26.5312 17.625 25.1719L19.8281 22.875L17.5781 20.5312H12.4219L10.1719 22.875Z" fill="#7D644B"/>
<path d="M14.9999 18.5625C14.9999 18.5625 12.7031 21.8438 12.9843 23.3906C13.3593 25.6406 16.5937 25.6406 17.0156 23.3906C17.2968 21.8438 14.9999 18.5625 14.9999 18.5625Z" fill="#F15A61"/>
<path d="M15 24.2344L15.5156 21.0938H14.4844L15 24.2344Z" fill="#BA454B"/>
<path d="M12.6562 19.4531H17.3438V21.6094H12.6562V19.4531Z" fill="#423223"/>
<path d="M22.4062 19.9687L19.0781 16.4531C17.0625 14.3438 12.9375 14.3438 10.9219 16.4531L7.59375 19.9687C6.65625 20.9531 6.65625 22.5938 7.59375 23.5781C8.53125 24.5625 10.0781 24.5625 11.0156 23.5781L14.3438 20.0625C14.6719 19.7344 15.2812 19.7344 15.6094 20.0625L18.9375 23.5781C19.875 24.5625 21.4219 24.5625 22.3594 23.5781C23.3906 22.5938 23.3906 20.9531 22.4062 19.9687Z" fill="#947151"/>
<path d="M12.2344 16.7344C12.2344 15.5156 13.4531 15.2812 15 15.2812C16.5469 15.2812 17.7656 15.5156 17.7656 16.7344C17.7656 17.7188 15.5625 18.5625 15 18.5625C14.4375 18.5625 12.2344 17.6719 12.2344 16.7344Z" fill="#3E4347"/>
<path d="M10.9265 18.2869L11.3901 17.8219L11.8546 18.2855L11.391 18.75L10.9265 18.2869Z" fill="#3E4347"/>
<path d="M9.81885 19.5989L10.2824 19.1344L10.7465 19.598L10.2834 20.0621L9.81885 19.5989Z" fill="#3E4347"/>
<path d="M11.3086 20.0451L11.7722 19.5806L12.2367 20.0437L11.7736 20.5087L11.3086 20.0451Z" fill="#3E4347"/>
<path d="M18.1418 18.2756L18.6068 17.8125L19.07 18.277L18.6054 18.7406L18.1418 18.2756Z" fill="#3E4347"/>
<path d="M19.2788 19.5759L19.7438 19.1123L20.2069 19.5768L19.7424 20.0404L19.2788 19.5759Z" fill="#3E4347"/>
<path d="M17.7876 20.0676L18.2521 19.6045L18.7157 20.0686L18.2512 20.5326L17.7876 20.0676Z" fill="#3E4347"/>
</svg>
