<svg fill="none" xmlns="http://www.w3.org/2000/svg">
<g clip-path="url(#clip0)">
<path d="M42.3463 48.1244C40.6049 48.1252 38.8712 47.8924 37.1915 47.4322H37.1809H37.1703C37.1351 47.4176 37.0983 47.4074 37.0606 47.4018H37.0474H37.0355C35.7704 47.0404 34.5447 46.5526 33.3769 45.9459L33.1337 45.8202L33.3439 45.6441C35.4877 43.8384 37.1405 41.5191 38.1485 38.9018C39.1566 36.2846 39.4871 33.4546 39.1093 30.6751C38.6147 26.8952 36.8222 23.4055 34.0391 20.8043L33.7206 20.5038L34.1581 20.4879C34.3986 20.4787 34.6418 20.4734 34.8824 20.4734C37.6649 20.479 40.4149 21.0724 42.9529 22.2147C45.4908 23.3571 47.7594 25.0228 49.6107 27.1029L49.6226 27.1148C53.4147 31.0563 58.2827 31.6638 61.6148 31.7763L61.8276 31.7842L61.788 31.9933C61.0134 36.07 58.9821 39.8009 55.9798 42.6615C52.9775 45.522 49.1553 47.3682 45.0506 47.9404C44.1543 48.0622 43.2508 48.1237 42.3463 48.1244Z" fill="#666666"/>
<path d="M61.6148 31.7696L61.3293 31.759H61.2315L61.0346 31.7484H60.9156L60.7292 31.7365L60.6037 31.7299L60.3843 31.714L60.1794 31.6981L60.0076 31.6835L59.8331 31.6677L59.7009 31.6544L59.5093 31.6346L59.3956 31.6213L59.1815 31.5962C58.9964 31.5737 58.8101 31.5485 58.6211 31.5208H58.5893L58.3329 31.481L58.2708 31.4705L58.0064 31.4255H57.9787C57.5822 31.354 57.179 31.268 56.7719 31.1674C55.1036 30.7642 53.5148 30.0833 52.0718 29.153V29.153C51.1804 28.5648 50.3587 27.877 49.6226 27.1028L49.6107 27.0909C47.7598 25.0109 45.4917 23.3452 42.9542 22.2026C40.4168 21.06 37.6672 20.4662 34.885 20.4601C34.6445 20.4601 34.4013 20.4601 34.1607 20.4746L33.7232 20.4905L34.0417 20.791C34.5166 21.2369 34.965 21.7102 35.3846 22.2085C37.9858 22.2186 40.5595 22.7421 42.9585 23.7488C45.3575 24.7555 47.5349 26.2258 49.3661 28.0756L49.378 28.0862C49.5578 28.2556 49.7415 28.4144 49.9252 28.5706L49.949 28.5865C53.6632 32.0687 55.9445 42.0057 46.2124 47.7498C50.0802 46.9721 53.6283 45.0567 56.4029 42.2487C59.1775 39.4406 61.0525 35.8676 61.788 31.9866L61.8276 31.7775L61.6148 31.7696Z" fill="#E6E6E6"/>
<path d="M32.0314 19.6329C30.9292 14.8024 28.4312 10.4037 24.849 6.98531L24.5397 6.68884V7.11766C24.5472 10.1575 24.0202 13.1748 22.9826 16.0316L22.8967 16.2698H23.1492C24.3773 16.3052 25.5977 16.477 26.788 16.782C26.8945 16.8108 26.9871 16.8773 27.0486 16.9691C27.11 17.0609 27.1363 17.1719 27.1224 17.2816C27.1086 17.3912 27.0556 17.4922 26.9732 17.5658C26.8908 17.6394 26.7847 17.6807 26.6743 17.682C26.6359 17.6825 26.5977 17.6776 26.5606 17.6675C25.288 17.3404 23.9793 17.1754 22.6654 17.1764C22.5227 17.1764 22.3799 17.1764 22.2292 17.1764C21.6611 17.1896 21.0941 17.2338 20.5308 17.3088C13.2876 18.3107 7.5948 24.3129 6.9934 31.6028C6.9863 31.6922 6.95305 31.7776 6.89781 31.8482C6.84257 31.9188 6.76779 31.9716 6.68279 31.9999C5.11427 32.5253 3.49993 32.9019 1.86104 33.1249L1.23056 33.2122L1.29665 33.4187C2.06682 35.8266 3.19937 38.1028 4.65522 40.1686C4.7332 40.1792 4.81383 40.1885 4.89446 40.1964C5.27 40.2337 5.64718 40.2518 6.02456 40.2507C7.96489 40.2507 10.122 39.8139 11.1662 39.2131L12.5117 38.4348L12.102 39.9357C11.6552 41.5636 10.5397 43.4113 9.17826 44.838C9.1386 44.8817 9.09631 44.9227 9.05533 44.9704C13.0961 48.4076 18.111 50.4905 23.395 50.9262L23.7849 50.9567L23.5589 50.6377C21.797 48.1475 20.6076 45.2975 20.0761 42.2924C19.5445 39.2873 19.6841 36.2016 20.4847 33.257C21.2853 30.3123 22.7271 27.5816 24.7066 25.2611C26.6861 22.9405 29.1541 21.0876 31.9335 19.8354L32.0657 19.7745L32.0314 19.6329Z" fill="#FBB03B"/>
<path opacity="0.4" d="M26.2513 17.5999C25.0764 17.3201 23.8731 17.178 22.6654 17.1764C22.5227 17.1764 22.3799 17.1764 22.2292 17.1764C21.6611 17.1895 21.0941 17.2337 20.5308 17.3087C13.2876 18.3106 7.5948 24.3128 6.9934 31.6028C6.9863 31.6922 6.95305 31.7775 6.89781 31.8481C6.84257 31.9188 6.76779 31.9715 6.68279 31.9998C5.11427 32.5252 3.49993 32.9019 1.86104 33.1248L1.23056 33.2122L1.29665 33.4186C2.06682 35.8266 3.19937 38.1028 4.65522 40.1686C4.7332 40.1792 4.81383 40.1885 4.89446 40.1964C5.08215 40.2149 5.27644 40.2295 5.47999 40.2388C4.14118 38.2665 3.09327 36.1112 2.36859 33.8395L2.3025 33.6331L2.93298 33.5444C4.57183 33.3219 6.18617 32.9457 7.75473 32.4207C7.83964 32.3922 7.91433 32.3394 7.96954 32.2689C8.02476 32.1983 8.05807 32.113 8.06534 32.0237C8.66674 24.7443 14.3595 18.7381 21.6027 17.7521C22.1661 17.6777 22.7331 17.6335 23.3012 17.6198C23.4519 17.6198 23.5946 17.6198 23.7374 17.6198C24.6346 17.6156 25.5305 17.6887 26.4152 17.8382C26.3597 17.7627 26.3029 17.682 26.2513 17.5999Z" fill="#E6E6E6"/>
<path d="M23.5959 50.9607L23.3712 50.6418C21.2499 47.6407 19.9656 44.1278 19.6506 40.4646C19.3356 36.8014 20.0012 33.1203 21.5789 29.8003C21.7129 29.5188 21.8525 29.2417 21.9979 28.9691C19.4047 26.4782 10.2145 38.1689 6.77002 32.045L6.59291 31.9483C6.5638 31.9663 6.53276 31.981 6.50038 31.992C4.93187 32.5174 3.31752 32.8941 1.67863 33.117L1.04816 33.2044L1.11424 33.4108C1.88441 35.8188 3.01697 38.0949 4.47282 40.1608C4.5508 40.1714 4.63011 40.1806 4.71205 40.1886C5.08759 40.2258 5.46478 40.2439 5.84215 40.2428C7.78248 40.2428 9.93958 39.8061 10.9838 39.2052L12.3293 38.427L11.9196 39.9278C11.4728 41.5637 10.3573 43.4114 8.99585 44.8381L8.87293 44.9705C12.9123 48.4067 17.9251 50.4895 23.2073 50.9263L23.5959 50.9607Z" fill="#E6E6E6"/>
<path d="M28.4943 47.3527C25.677 43.2449 24.5132 38.223 25.236 33.2925C25.9587 28.3621 28.5147 23.887 32.3922 20.7632L32.5072 20.6692L32.6222 20.7645C34.4577 22.2709 35.9282 24.1746 36.9229 26.3323C37.9177 28.49 38.4108 30.8455 38.3651 33.2216C38.3194 35.5977 37.7362 37.9324 36.6592 40.0502C35.5823 42.1679 34.0398 44.0136 32.1477 45.4482L32.1331 45.4601L32.1159 45.4667C32.0664 45.4924 32.0217 45.5264 31.9838 45.5673L31.9719 45.5805L31.9573 45.5898C30.9524 46.3244 29.8646 46.9378 28.7164 47.4176L28.5842 47.4745L28.4943 47.3527Z" fill="#666666"/>
<path d="M40.9267 20.4667C38.9686 19.8604 36.9307 19.5517 34.8811 19.5508C34.2982 19.5508 33.7087 19.576 33.1297 19.6263L32.9711 19.6395L32.9354 19.4846C32.3272 16.7835 31.293 14.1966 29.8716 11.8215C28.8499 10.1144 27.6371 8.52957 26.2566 7.0978L26.447 6.79736C29.7014 7.89463 32.6927 9.65685 35.2313 11.9723C37.7619 14.2735 39.778 17.0843 41.1475 20.2205L41.3074 20.5871L40.9267 20.4667Z" fill="#F7931E"/>
<path opacity="0.2" d="M41.1475 20.2206C39.7773 17.0852 37.7607 14.2753 35.23 11.975C32.6913 9.65953 29.7 7.89732 26.4456 6.80005L26.4258 6.83314C29.0689 8.44058 31.3873 10.5304 33.2606 12.9941C34.7988 15.0102 36.0119 17.2552 36.8557 19.6475C38.2369 19.7821 39.6009 20.0566 40.9267 20.4667L41.3074 20.5845L41.1475 20.2206Z" fill="#1A1A1A"/>
<path d="M27.6444 53.7599C26.7242 52.9798 25.877 52.1173 25.1133 51.183L25.1054 51.1724C23.4344 49.1263 22.1909 46.765 21.4486 44.2285C20.7063 41.6921 20.4803 39.0322 20.7841 36.4066C21.0878 33.7811 21.9151 31.2433 23.2169 28.944C24.5186 26.6446 26.2683 24.6305 28.3622 23.0211L28.6159 23.2858C25.8034 26.8199 24.225 31.1794 24.1224 35.6972C24.0197 40.215 25.3985 44.6419 28.0476 48.3004C28.1063 48.381 28.1898 48.4401 28.2854 48.4686C28.3809 48.497 28.4831 48.4933 28.5763 48.4579C29.8795 47.9589 31.1142 47.2962 32.2508 46.4858L32.3433 46.4197L32.4437 46.4739C33.5411 47.0811 34.6913 47.5871 35.8803 47.9854L36.1579 48.0794L35.9517 48.2885C33.6271 50.6295 30.8716 52.4975 27.8374 53.789L27.7343 53.8327L27.6444 53.7599Z" fill="#666666"/>
<path opacity="0.2" d="M35.8763 47.9854C34.6874 47.5871 33.5371 47.0812 32.4398 46.474L32.3393 46.4197L32.2468 46.4859L32.0195 46.6421C31.8873 46.7321 31.7551 46.8207 31.6229 46.9068L31.5952 46.924C31.4736 47.0021 31.352 47.0788 31.2277 47.1529L31.1458 47.2032C31.04 47.2668 30.933 47.329 30.8246 47.3898L30.6805 47.4706C30.0002 47.8498 29.2934 48.1793 28.5657 48.4566C28.4725 48.492 28.3703 48.4958 28.2748 48.4673C28.1793 48.4389 28.0957 48.3798 28.037 48.2991C25.3825 44.6429 24.0003 40.2149 24.103 35.6957C24.2057 31.1765 25.7875 26.8161 28.6054 23.2845L28.4164 23.0913C25.214 26.6642 23.2873 31.2009 22.9388 35.9891C22.5902 40.7772 23.8395 45.5457 26.4906 49.5459C25.8006 49.8106 25.0988 50.0528 24.3916 50.2566C24.6163 50.5689 24.8507 50.8756 25.0948 51.1764L25.1027 51.187C25.8673 52.1214 26.7154 52.9839 27.6365 53.7639L27.7224 53.8367L27.8255 53.793C30.8642 52.5016 33.6239 50.6323 35.9517 48.2885L36.1579 48.0794L35.8763 47.9854Z" fill="#1A1A1A"/>
<path d="M24.849 6.98531L24.5397 6.68884V7.11766C24.5472 10.1575 24.0202 13.1748 22.9826 16.0316L22.8967 16.2698H23.1492C24.3675 16.306 25.5781 16.4769 26.7589 16.7794L27.0061 16.6828C27.8639 16.8945 30.2021 17.9123 31.9957 19.8076L32.0657 19.7758L32.0314 19.6302C30.9287 14.8007 28.4307 10.403 24.849 6.98531V6.98531Z" fill="#FF96B2"/>
<path d="M32.0313 19.6329C30.9291 14.8024 28.4312 10.4037 24.8489 6.98535L24.6203 6.76697C26.9654 9.97634 28.5206 13.6949 29.1592 17.6198C30.2083 18.2063 31.1654 18.9443 31.9996 19.8103L32.0697 19.7785L32.0313 19.6329Z" fill="#FF769A"/>
<path d="M3.99963 34.2499C3.99963 35.1327 3.33875 35.8501 2.52323 35.8501C1.70771 35.8501 1.04816 35.1354 1.04816 34.2499C1.04816 33.3645 1.70903 32.6498 2.52323 32.6498C3.33743 32.6498 3.99963 33.3685 3.99963 34.2499Z" fill="black"/>
<path d="M10.5965 30.5732C10.4744 30.5723 10.3562 30.5307 10.2604 30.4549C10.1647 30.3792 10.0969 30.2736 10.0678 30.1549L9.94881 29.6666C9.86203 29.3102 9.84618 28.9403 9.90216 28.5779C9.95815 28.2154 10.0849 27.8676 10.2751 27.5542C10.4654 27.2408 10.7154 26.968 11.0109 26.7513C11.3065 26.5347 11.6417 26.3785 11.9975 26.2916C12.3534 26.2047 12.7228 26.1888 13.0848 26.2449C13.4467 26.3009 13.7941 26.4278 14.1071 26.6183C14.42 26.8088 14.6925 27.0592 14.9088 27.3551C15.1252 27.651 15.2812 27.9867 15.368 28.343L15.487 28.8314C15.5043 28.9014 15.5077 28.9741 15.497 29.0453C15.4863 29.1166 15.4617 29.1851 15.4246 29.2469C15.3875 29.3086 15.3386 29.3625 15.2807 29.4053C15.2228 29.4481 15.157 29.4791 15.0871 29.4965C14.946 29.5316 14.7968 29.5091 14.6722 29.434C14.6106 29.3969 14.5568 29.3479 14.514 29.2899C14.4713 29.2319 14.4403 29.1661 14.4229 29.0961L14.3027 28.6077C14.197 28.1705 13.9222 27.7933 13.5387 27.559C13.1552 27.3247 12.6945 27.2525 12.2579 27.3583C11.8213 27.4642 11.4446 27.7393 11.2106 28.1233C10.9766 28.5073 10.9045 28.9686 11.0102 29.4058L11.1291 29.8942C11.1636 30.0346 11.1412 30.1829 11.067 30.3068C10.9927 30.4308 10.8725 30.5203 10.7326 30.556C10.6881 30.5673 10.6424 30.5731 10.5965 30.5732V30.5732Z" fill="#42210B"/>
<path d="M41.7476 32.3784C41.6038 32.3784 41.4658 32.3218 41.3634 32.2207C41.261 32.1197 41.2024 31.9824 41.2003 31.8384L41.1924 31.3355C41.1927 30.6027 41.4808 29.8995 41.9944 29.3776C42.508 28.8556 43.206 28.5569 43.9377 28.5457C44.6694 28.5346 45.3761 28.812 45.9053 29.3181C46.4345 29.8242 46.7437 30.5184 46.7663 31.2508L46.7742 31.7537C46.7754 31.8258 46.7624 31.8974 46.736 31.9644C46.7095 32.0314 46.6701 32.0926 46.62 32.1444C46.5699 32.1961 46.5101 32.2375 46.444 32.2661C46.3779 32.2946 46.3069 32.3099 46.2349 32.3109H46.2257C46.0819 32.3109 45.9439 32.2543 45.8415 32.1532C45.7391 32.0522 45.6805 31.9149 45.6784 31.7709L45.6705 31.268C45.6636 30.8234 45.4825 30.3993 45.1663 30.0871C44.8501 29.775 44.424 29.5997 43.98 29.599H43.9536C43.5051 29.6067 43.0779 29.7921 42.7657 30.1146C42.4535 30.4372 42.2818 30.8705 42.2881 31.3196L42.2961 31.8239C42.2978 31.9693 42.2419 32.1095 42.1406 32.2137C42.0392 32.3179 41.9007 32.3776 41.7555 32.3797L41.7476 32.3784Z" fill="#42210B"/>
<path fill-rule="evenodd" clip-rule="evenodd" d="M4.40936 34.0513C4.40936 35.1472 3.60309 36.0366 2.60649 36.0366C1.60989 36.0366 0.803619 35.1485 0.803619 34.0513C0.803619 32.9541 1.61121 32.066 2.60649 32.066C3.60177 32.066 4.40936 32.9568 4.40936 34.0513Z" fill="#42210B"/>
<path fill-rule="evenodd" clip-rule="evenodd" d="M62.6339 32.7437C62.6339 33.8396 61.8263 34.729 60.831 34.729C59.8357 34.729 59.0281 33.8409 59.0281 32.7437C59.0281 31.6465 59.8357 30.7584 60.831 30.7584C61.8263 30.7584 62.6339 31.6492 62.6339 32.7437Z" fill="#42210B"/>
<path d="M62.8475 30.9167C62.7886 30.8472 62.7156 30.7912 62.6332 30.7524C62.5509 30.7136 62.4613 30.6929 62.3703 30.6917C58.6972 30.6348 54.0195 30.0908 50.4204 26.3558C48.2697 23.9483 45.5934 22.0701 42.5996 20.8672C41.0934 16.948 38.6482 13.4597 35.4793 10.7092C32.231 7.91946 28.3517 5.96587 24.1783 5.01801L24.1122 5.0061C24.0849 5.00415 24.0575 5.00415 24.0303 5.0061H24.0118C23.984 5.0061 23.9576 5.0061 23.9298 5.01404C23.902 5.01907 23.8746 5.02615 23.8479 5.03522H23.832C23.7776 5.05354 23.726 5.07938 23.6787 5.11198L23.6602 5.12257C23.6371 5.13834 23.6155 5.15605 23.5954 5.17551V5.17551C23.5752 5.19421 23.5567 5.21457 23.5399 5.23639L23.5293 5.2483C23.4951 5.29426 23.4671 5.34455 23.446 5.39786L23.4381 5.41639C23.4297 5.43888 23.4226 5.46187 23.417 5.48521V5.49713C23.417 5.5236 23.4077 5.55007 23.4051 5.57521C23.4024 5.60036 23.4051 5.58845 23.4051 5.59374C23.4038 5.61931 23.4038 5.64494 23.4051 5.67051V5.67712C23.619 9.22984 23.0677 12.7871 21.7886 16.1078C21.3233 16.1329 20.8554 16.1766 20.3928 16.2402C16.6767 16.7453 13.2361 18.4806 10.6187 21.1699C8.00122 23.8592 6.35735 27.3479 5.94869 31.0808C4.56863 31.5181 3.15354 31.8356 1.71909 32.0298L1.4402 32.0695C1.15602 32.1092 0.834834 32.1542 0.583701 32.178C0.49031 32.1868 0.400005 32.2161 0.31921 32.2638C0.238415 32.3116 0.169115 32.3765 0.11624 32.4541C0.0633659 32.5317 0.0282156 32.62 0.0132904 32.7127C-0.0016349 32.8055 0.0040315 32.9004 0.0298865 32.9906C0.691176 35.316 1.66969 37.5388 2.93774 39.5963V39.5963L2.94699 39.6109L2.97475 39.6559C3.32501 40.2012 3.75855 40.7266 4.22513 41.3275C4.70637 41.4033 5.19205 41.4476 5.67905 41.4599V41.4599H5.91036H6.02271C7.49359 41.4593 8.95705 41.2512 10.37 40.8418C9.81731 41.9761 9.0923 43.0178 8.22078 43.9296L8.09786 44.054C7.85728 44.2984 7.60357 44.5294 7.33785 44.7462C7.30636 44.7711 7.27275 44.7933 7.2374 44.8123C7.56255 45.1432 7.87449 45.445 8.16263 45.7004L8.17452 45.711L8.24193 45.7613C8.57634 46.0459 8.91603 46.3251 9.26629 46.5951C13.6206 49.9805 18.9316 51.902 24.4413 52.0851C25.2889 53.095 26.2302 54.0221 27.2527 54.8539C27.2591 54.858 27.2653 54.8624 27.2712 54.8671C27.2897 54.8804 27.3082 54.8936 27.328 54.9055L27.3637 54.9254L27.4206 54.9505L27.4576 54.9651L27.525 54.9823L27.5554 54.9889C27.5886 54.9942 27.6222 54.9969 27.6558 54.9968H27.7246C27.7446 54.9946 27.7645 54.9911 27.784 54.9863C27.7897 54.987 27.7955 54.987 27.8012 54.9863C27.8171 54.9863 27.8316 54.9783 27.8475 54.9743L27.87 54.9664L27.8911 54.9585C31.4158 53.5246 34.5905 51.347 37.1989 48.5738C38.8783 49.0079 40.606 49.2272 42.3405 49.2263C43.2986 49.2255 44.2556 49.1591 45.2047 49.0278C49.7259 48.4275 53.9208 46.3438 57.1335 43.1023C60.2797 39.9339 62.3347 35.8432 62.9995 31.4249C63.0124 31.3342 63.0055 31.2418 62.9792 31.1541C62.953 31.0663 62.908 30.9853 62.8475 30.9167V30.9167ZM40.9751 20.2928C38.4325 19.5042 35.7614 19.2162 33.1094 19.4444C32.4968 16.7244 31.455 14.1197 30.0231 11.7283C28.9945 10.0091 27.7732 8.41321 26.383 6.97153C32.9402 9.19769 38.2259 14.0008 40.9751 20.2928ZM38.0276 30.8095C38.4096 33.5405 38.0557 36.3241 37.0025 38.8722C35.9493 41.4202 34.2351 43.6401 32.0374 45.302C31.9666 45.3365 31.9029 45.3841 31.8497 45.4423C30.8566 46.1685 29.7811 46.7744 28.6458 47.2476C25.8575 43.1778 24.7062 38.2039 25.4222 33.3207C26.1383 28.4375 28.6689 24.005 32.508 20.9095C35.535 23.3893 37.508 26.928 38.0276 30.8095V30.8095ZM9.17905 44.8388C9.16452 44.8216 9.14337 44.815 9.17905 44.7832C10.551 43.3684 11.6547 41.5102 12.1028 39.8677L12.5112 38.3668L11.1604 39.1477C10.1215 39.7485 7.95908 40.1853 6.01875 40.1853C5.62222 40.1853 5.23891 40.1655 4.88865 40.131H4.85296C3.38532 38.0632 2.2449 35.7811 1.47192 33.3652L1.61467 33.3453L1.88695 33.307C3.53741 33.0802 5.16286 32.6982 6.74174 32.1661C6.86035 32.1266 6.96478 32.0532 7.04208 31.9548C7.11939 31.8565 7.16616 31.7376 7.1766 31.6129C7.77007 24.4142 13.3981 18.4822 20.5567 17.5068C21.1134 17.4324 21.6738 17.3882 22.2353 17.3744H22.2433C23.6813 17.3354 25.1178 17.4976 26.5112 17.8562C26.5928 17.8773 26.6777 17.8821 26.7611 17.8704C26.8446 17.8586 26.9249 17.8305 26.9975 17.7877C27.0701 17.7449 27.1336 17.6881 27.1843 17.6207C27.235 17.5533 27.2719 17.4766 27.293 17.3949C27.3141 17.3132 27.3189 17.2282 27.3072 17.1446C27.2954 17.0611 27.2674 16.9807 27.2246 16.908C27.1818 16.8353 27.1252 16.7717 27.0579 16.721C26.9906 16.6702 26.914 16.6332 26.8324 16.6121C25.6295 16.302 24.3956 16.1279 23.1539 16.0932C24.1979 13.2169 24.7272 10.1788 24.7176 7.11844C28.2687 10.5173 30.7497 14.8818 31.855 19.6747C29.052 20.9391 26.5632 22.809 24.567 25.1501C22.5708 27.4913 21.1167 30.2458 20.309 33.2161C19.5014 36.1864 19.3601 39.2988 19.8954 42.3302C20.4306 45.3616 21.6292 48.2368 23.4051 50.7497C18.1627 50.3165 13.1876 48.2494 9.17905 44.8388ZM27.7576 53.6204C26.8439 52.8484 26.0033 51.9938 25.2463 51.0673L25.2331 51.0514C23.5852 49.0212 22.36 46.6811 21.6295 44.1692C20.8991 41.6573 20.6783 39.0244 20.9801 36.4257C21.2819 33.8269 22.1002 31.315 23.3868 29.038C24.6734 26.761 26.4022 24.7649 28.4713 23.1675C25.6315 26.7334 24.0377 31.1333 23.9341 35.693C23.8305 40.2528 25.2228 44.7208 27.8977 48.4123C27.9568 48.4942 28.0345 48.5609 28.1243 48.6069C28.2142 48.6529 28.3136 48.6769 28.4145 48.677C28.4923 48.6773 28.5694 48.663 28.6419 48.6347C29.9592 48.133 31.2077 47.4659 32.3573 46.6494C33.4639 47.2561 34.6229 47.7615 35.8203 48.1595C33.5126 50.4871 30.774 52.342 27.7576 53.6204ZM45.021 47.7598C42.4195 48.1206 39.7719 47.949 37.2385 47.2556C37.1888 47.2356 37.1369 47.2214 37.0839 47.2132C35.8306 46.8575 34.6163 46.3759 33.4596 45.7759C35.6279 43.9512 37.2996 41.6065 38.3188 38.9604C39.3381 36.3142 39.6717 33.4528 39.2886 30.6427C38.7809 26.8238 36.97 23.2981 34.1628 20.6634C37.0385 20.5632 39.9009 21.0986 42.5465 22.2316C45.1922 23.3647 47.556 25.0674 49.47 27.2188C49.4754 27.2248 49.4812 27.2306 49.4872 27.236C53.1696 31.0649 57.805 31.8246 61.605 31.953C60.081 40.1747 53.3586 46.6256 45.0263 47.7598H45.021Z" fill="#42210B"/>
<path d="M47.9439 48.2077C47.8163 48.2074 47.6912 48.1712 47.5831 48.1032C44.8682 46.413 43.6178 44.7785 42.834 43.5436C42.784 43.4677 42.7496 43.3825 42.7328 43.2931C42.716 43.2037 42.7171 43.1119 42.7361 43.0229C42.7551 42.934 42.7916 42.8497 42.8435 42.775C42.8953 42.7003 42.9615 42.6367 43.0382 42.5878C43.1148 42.539 43.2004 42.5059 43.29 42.4906C43.3795 42.4752 43.4712 42.4778 43.5597 42.4983C43.6482 42.5188 43.7318 42.5567 43.8056 42.6098C43.8793 42.6629 43.9417 42.7302 43.9893 42.8078C44.74 43.9883 45.8397 45.4032 48.3074 46.9385C48.4337 47.0176 48.5308 47.1356 48.5841 47.2748C48.6374 47.414 48.6441 47.5668 48.603 47.7102C48.562 47.8535 48.4755 47.9796 48.3566 48.0693C48.2377 48.1591 48.0928 48.2077 47.9439 48.2077V48.2077Z" fill="#42210B"/>
<path opacity="0.2" d="M38.2066 30.7903C37.6804 26.8604 35.6846 23.2768 32.6222 20.7633L32.5072 20.668L32.3922 20.7619C32.1886 20.9261 31.989 21.0941 31.7934 21.2662C33.5008 22.8185 34.8456 24.7287 35.7319 26.8606C36.6182 28.9926 37.0243 31.294 36.9214 33.601C36.8184 35.908 36.2088 38.1639 35.1361 40.2081C34.0634 42.2524 32.5538 44.0348 30.7149 45.4284L30.7003 45.439L30.6845 45.4469C30.6346 45.472 30.5897 45.5061 30.5523 45.5475L30.5404 45.5594L30.5272 45.57C29.8034 46.0955 29.0367 46.5591 28.2353 46.9558C28.3199 47.0881 28.4058 47.2205 28.4996 47.3462L28.5842 47.468L28.7164 47.411C29.8646 46.9313 30.9524 46.3178 31.9573 45.5833L31.9719 45.574L31.9838 45.5608C32.0217 45.5199 32.0664 45.4859 32.1159 45.4602L32.1331 45.4536L32.1477 45.4416C34.3699 43.7606 36.1033 41.5155 37.1685 38.9387C38.2337 36.3619 38.5921 33.547 38.2066 30.785V30.7903Z" fill="#F2F2F2"/>
<path opacity="0.2" d="M30.5246 45.5699L30.5378 45.5594L30.5497 45.5474C30.5871 45.506 30.6319 45.4719 30.6818 45.4469L30.6977 45.4389L30.7122 45.4283C31.2952 44.9872 31.8464 44.5056 32.3618 43.987C32.2719 44.0267 32.1807 44.0677 32.0895 44.1061L31.9573 44.163L31.8741 44.0399C29.5909 40.7148 28.3807 36.7688 28.4065 32.7336C28.4322 28.6985 29.6928 24.7682 32.0181 21.4726C31.9441 21.4038 31.8701 21.3402 31.7961 21.2661C28.1461 24.4515 25.7926 28.8691 25.1833 33.6787C24.5741 38.4883 25.7515 43.3544 28.4917 47.3514C28.4031 47.219 28.3172 47.0867 28.2273 46.961C29.0308 46.5628 29.7993 46.0975 30.5246 45.5699V45.5699Z" fill="#1A1A1A"/>
<path opacity="0.2" d="M31.7934 21.2648C31.886 21.1841 31.9798 21.1047 32.0736 21.0253C31.9864 21.1047 31.886 21.1841 31.7934 21.2648Z" fill="#1A1A1A"/>
<path opacity="0.2" d="M32.0974 21.0055C32.1939 20.9234 32.2931 20.8414 32.3922 20.762C32.2931 20.8414 32.1939 20.9234 32.0974 21.0055Z" fill="#1A1A1A"/>
<path opacity="0.2" d="M32.5693 20.7196L32.5072 20.668L32.5693 20.7196Z" fill="#1A1A1A"/>
<g opacity="0.2">
<path opacity="0.2" d="M61.4919 31.7656C60.4986 35.5558 58.4073 38.9669 55.4816 41.5691C52.5558 44.1714 48.9265 45.8485 45.0506 46.3892C44.1543 46.511 43.2508 46.5724 42.3463 46.5732V46.5732C40.6048 46.5742 38.871 46.3409 37.1915 45.8797H37.1809H37.1703C37.1351 45.8651 37.0983 45.8549 37.0606 45.8492H37.0474H37.0355C36.0827 45.578 35.1518 45.2351 34.2506 44.8235C33.9589 45.1076 33.6567 45.3825 33.3439 45.648L33.1337 45.8241L33.3769 45.9498C34.5447 46.5566 35.7704 47.0443 37.0355 47.4057H37.0474H37.0606C37.0983 47.4113 37.1351 47.4215 37.1703 47.4361H37.1809H37.1915C38.8712 47.8963 40.6049 48.1291 42.3463 48.1283C43.2508 48.1276 44.1543 48.0661 45.0506 47.9443C49.1567 47.3715 52.98 45.5237 55.9825 42.6611C58.9849 39.7985 61.0154 36.0652 61.788 31.9867L61.8276 31.7775L61.6148 31.7696L61.4919 31.7656Z" fill="#1A1A1A"/>
</g>
<g opacity="0.2">
<path opacity="0.2" d="M32.0313 19.6329C31.989 19.4477 31.9441 19.2637 31.8992 19.0797C29.1717 20.1599 26.6851 21.7708 24.5832 23.8193C22.4812 25.8678 20.8057 28.3131 19.6534 31.014C18.5011 33.7149 17.895 36.6177 17.87 39.5546C17.8449 42.4915 18.4016 45.4042 19.5077 48.1244C16.1571 48.1429 12.6346 46.3866 9.64878 44.0982C9.43995 44.3537 9.22186 44.6012 8.99716 44.8368L8.87424 44.9691C12.467 48.0247 16.8364 50.0215 21.4957 50.737L21.4719 50.7053C22.105 50.8072 22.746 50.8839 23.391 50.9356L23.781 50.966L23.5549 50.647C21.793 48.1568 20.6036 45.3068 20.0721 42.3017C19.5405 39.2966 19.6801 36.211 20.4807 33.2663C21.2813 30.3216 22.7231 27.5909 24.7026 25.2704C26.6821 22.9498 29.1501 21.0969 31.9296 19.8447L32.0617 19.7838L32.0313 19.6329Z" fill="#1A1A1A"/>
<path opacity="0.2" d="M2.26285 36.3412C2.88651 37.6746 3.62601 38.9505 4.47282 40.1542C4.5508 40.1648 4.63011 40.1741 4.71205 40.182C4.95261 40.2058 5.20595 40.2217 5.47206 40.2297C4.11198 38.7116 3.07705 37.2359 2.52323 36.0791L2.26285 36.3412Z" fill="#1A1A1A"/>
</g>
</g>
<path d="M85.32 16.512V32.832C86.728 32.832 87.928 32.544 88.92 31.968C89.944 31.36 90.776 30.592 91.416 29.664C92.056 28.736 92.52 27.696 92.808 26.544C93.128 25.36 93.288 24.192 93.288 23.04C93.288 22.016 93.176 20.96 92.952 19.872C92.76 18.784 92.328 17.792 91.656 16.896C90.984 15.968 90.024 15.216 88.776 14.64C87.528 14.032 85.864 13.728 83.784 13.728C82.376 13.728 81.048 13.952 79.8 14.4C78.552 14.816 77.464 15.44 76.536 16.272C75.64 17.072 74.92 18.08 74.376 19.296C73.864 20.48 73.608 21.856 73.608 23.424C73.608 24.416 73.688 25.248 73.848 25.92C74.008 26.592 74.2 27.152 74.424 27.6C74.648 28.048 74.872 28.4 75.096 28.656C75.32 28.88 75.496 29.04 75.624 29.136C73.832 29.136 72.424 28.688 71.4 27.792C70.376 26.896 69.864 25.408 69.864 23.328C69.864 21.792 70.264 20.352 71.064 19.008C71.864 17.632 72.936 16.432 74.28 15.408C75.624 14.352 77.176 13.52 78.936 12.912C80.696 12.304 82.552 12 84.504 12C86.616 12 88.504 12.272 90.168 12.816C91.832 13.328 93.224 14.064 94.344 15.024C95.464 15.952 96.312 17.04 96.888 18.288C97.496 19.536 97.8 20.88 97.8 22.32C97.8 23.664 97.56 25.056 97.08 26.496C96.6 27.904 95.88 29.184 94.92 30.336C93.96 31.488 92.76 32.448 91.32 33.216C89.912 33.952 88.264 34.32 86.376 34.32H85.32V48H80.136V17.232L85.32 16.512ZM113.373 30C113.373 32.24 112.445 34.112 110.589 35.616C108.765 37.12 106.221 38.048 102.957 38.4C103.085 39.68 103.309 40.72 103.629 41.52C103.981 42.32 104.397 42.96 104.877 43.44C105.357 43.888 105.901 44.208 106.509 44.4C107.149 44.56 107.805 44.64 108.477 44.64C110.013 44.64 111.453 44.24 112.797 43.44C114.141 42.64 115.229 41.296 116.061 39.408H117.597C117.181 40.592 116.605 41.728 115.869 42.816C115.133 43.872 114.269 44.816 113.277 45.648C112.285 46.448 111.213 47.088 110.061 47.568C108.909 48.048 107.725 48.288 106.509 48.288C105.389 48.288 104.301 48.096 103.245 47.712C102.221 47.328 101.309 46.704 100.509 45.84C99.7086 44.944 99.0526 43.792 98.5406 42.384C98.0606 40.976 97.8206 39.248 97.8206 37.2C97.8206 35.856 97.9646 34.4 98.2526 32.832C98.5726 31.264 99.0846 29.808 99.7886 28.464C100.525 27.12 101.469 26 102.621 25.104C103.805 24.208 105.261 23.76 106.989 23.76C107.789 23.76 108.557 23.856 109.293 24.048C110.061 24.208 110.749 24.528 111.357 25.008C111.965 25.456 112.445 26.08 112.797 26.88C113.181 27.68 113.373 28.72 113.373 30ZM102.909 36.528C105.181 36.176 106.973 35.376 108.285 34.128C109.629 32.88 110.301 31.344 110.301 29.52C110.301 28.304 110.093 27.44 109.677 26.928C109.261 26.384 108.669 26.112 107.901 26.112C107.069 26.112 106.333 26.432 105.693 27.072C105.085 27.712 104.573 28.544 104.157 29.568C103.741 30.56 103.421 31.68 103.197 32.928C103.005 34.144 102.909 35.344 102.909 36.528ZM120.868 16.704V24H124.565V25.68H120.868V40.32C120.868 40.704 120.868 41.152 120.868 41.664C120.901 42.144 120.981 42.608 121.109 43.056C121.269 43.504 121.477 43.888 121.733 44.208C122.021 44.496 122.437 44.64 122.981 44.64C123.237 44.64 123.541 44.608 123.893 44.544C124.277 44.48 124.565 44.416 124.757 44.352C124.789 44.512 124.805 44.656 124.805 44.784C124.837 44.912 124.853 45.056 124.853 45.216C124.853 45.76 124.725 46.24 124.469 46.656C124.245 47.04 123.941 47.36 123.557 47.616C123.173 47.84 122.741 48 122.261 48.096C121.781 48.224 121.301 48.288 120.821 48.288C119.861 48.288 119.077 48.096 118.469 47.712C117.861 47.296 117.365 46.768 116.98 46.128C116.629 45.456 116.389 44.72 116.261 43.92C116.133 43.12 116.069 42.32 116.069 41.52V25.68H114.437V24H116.069V17.376L120.868 16.704Z" fill="#222222"/>
<path d="M143.682 24V51.792C143.682 53.296 143.522 54.56 143.202 55.584C142.882 56.64 142.434 57.488 141.858 58.128C141.314 58.8 140.674 59.28 139.938 59.568C139.234 59.856 138.482 60 137.682 60C136.082 60 134.834 59.536 133.938 58.608C133.042 57.712 132.594 56.608 132.594 55.296C132.594 54.464 132.77 53.712 133.122 53.04C133.506 52.368 133.986 51.744 134.562 51.168C135.17 50.624 135.842 50.128 136.578 49.68C137.346 49.264 138.114 48.896 138.882 48.576V45.552C138.242 46.48 137.506 47.168 136.674 47.616C135.874 48.064 135.058 48.288 134.226 48.288C133.298 48.288 132.418 48.16 131.586 47.904C130.754 47.648 130.034 47.232 129.426 46.656C128.818 46.048 128.338 45.28 127.986 44.352C127.634 43.392 127.458 42.224 127.458 40.848V24H132.258V40.32C132.258 41.888 132.53 43.008 133.074 43.68C133.618 44.32 134.306 44.64 135.138 44.64C135.586 44.64 136.034 44.528 136.482 44.304C136.93 44.048 137.33 43.696 137.682 43.248C138.034 42.8 138.322 42.256 138.546 41.616C138.77 40.976 138.882 40.24 138.882 39.408V24H143.682ZM136.77 57.504C137.634 57.504 138.194 57.168 138.45 56.496C138.738 55.856 138.882 54.976 138.882 53.856V50.496C137.282 51.232 136.146 51.952 135.474 52.656C134.802 53.392 134.466 54.208 134.466 55.104C134.466 55.84 134.658 56.416 135.042 56.832C135.458 57.28 136.034 57.504 136.77 57.504Z" fill="#F64B3C"/>
<defs>
<clipPath id="clip0">
<rect y="5" width="63" height="50" fill="white"/>
</clipPath>
</defs>
</svg>
