<svg width="30" height="30" viewBox="0 0 30 30" fill="none" xmlns="http://www.w3.org/2000/svg">
<g clip-path="url(#clip0)">
<path d="M20.165 22.8374C19.3358 22.8377 18.5102 22.7307 17.7104 22.519H17.7053H17.7003C17.6835 22.5123 17.666 22.5076 17.648 22.505H17.6417H17.6361C17.0336 22.3387 16.45 22.1144 15.8939 21.8353L15.7781 21.7774L15.8782 21.6964C16.899 20.8658 17.6861 19.7989 18.1661 18.595C18.6461 17.3911 18.8035 16.0893 18.6236 14.8107C18.3881 13.072 17.5345 11.4667 16.2092 10.2701L16.0575 10.1319L16.2659 10.1246C16.3804 10.1204 16.4962 10.1179 16.6108 10.1179C17.9358 10.1205 19.2453 10.3935 20.4539 10.9189C21.6624 11.4444 22.7427 12.2106 23.6242 13.1675L23.6299 13.173C25.4357 14.986 27.7538 15.2655 29.3405 15.3172L29.4418 15.3209L29.423 15.4171C29.0541 17.2923 28.0868 19.0086 26.6572 20.3244C25.2275 21.6403 23.4074 22.4895 21.4528 22.7527C21.026 22.8088 20.5958 22.837 20.165 22.8374Z" fill="#666666"/>
<path d="M29.3406 15.3141L29.2046 15.3092H29.158L29.0643 15.3043H29.0076L28.9189 15.2988L28.8591 15.2958L28.7546 15.2885L28.657 15.2812L28.5752 15.2745L28.4921 15.2672L28.4292 15.2611L28.3379 15.252L28.2838 15.2459L28.1818 15.2343C28.0937 15.224 28.005 15.2124 27.915 15.1996H27.8999L27.7777 15.1813L27.7482 15.1765L27.6223 15.1558H27.6091C27.4202 15.1229 27.2283 15.0833 27.0344 15.037C26.24 14.8516 25.4834 14.5384 24.7963 14.1104V14.1104C24.3718 13.8399 23.9805 13.5235 23.63 13.1674L23.6243 13.1619C22.743 12.2051 21.6629 11.4388 20.4546 10.9132C19.2463 10.3877 17.9369 10.1145 16.6121 10.1117C16.4975 10.1117 16.3817 10.1117 16.2672 10.1184L16.0588 10.1257L16.2105 10.2639C16.4366 10.469 16.6502 10.6867 16.85 10.9159C18.0886 10.9206 19.3142 11.1614 20.4566 11.6245C21.599 12.0876 22.6358 12.7639 23.5079 13.6148L23.5135 13.6197C23.5991 13.6976 23.6866 13.7707 23.7741 13.8425L23.7854 13.8498C25.5541 15.4517 26.6404 20.0227 22.0061 22.6649C23.8479 22.3072 25.5375 21.4261 26.8587 20.1344C28.18 18.8428 29.0728 17.1991 29.423 15.4139L29.4419 15.3177L29.3406 15.3141Z" fill="#E6E6E6"/>
<path d="M15.253 9.73111C14.7281 7.50908 13.5386 5.48568 11.8328 3.91323L11.6855 3.77686V3.97411C11.6891 5.37242 11.4381 6.76041 10.9441 8.07451L10.9032 8.1841H11.0234C11.6082 8.20038 12.1893 8.2794 12.7561 8.41972C12.8069 8.43298 12.8509 8.46354 12.8802 8.50578C12.9095 8.54801 12.922 8.59906 12.9154 8.64951C12.9088 8.69995 12.8835 8.74639 12.8443 8.78024C12.8051 8.8141 12.7546 8.83309 12.702 8.83371C12.6837 8.83393 12.6655 8.83167 12.6479 8.82702C12.0419 8.67658 11.4186 8.60069 10.793 8.60114C10.725 8.60114 10.6571 8.60114 10.5853 8.60114C10.3148 8.60719 10.0448 8.62752 9.77652 8.66203C6.32737 9.1229 3.61652 11.8839 3.33014 15.2373C3.32676 15.2784 3.31093 15.3177 3.28463 15.3502C3.25832 15.3826 3.22271 15.4069 3.18223 15.4199C2.43532 15.6616 1.66659 15.8349 0.886164 15.9374L0.585938 15.9776L0.617408 16.0726C0.984155 17.1802 1.52347 18.2273 2.21673 19.1776C2.25386 19.1824 2.29226 19.1867 2.33065 19.1903C2.50948 19.2075 2.68909 19.2158 2.86879 19.2153C3.79276 19.2153 4.81995 19.0144 5.31718 18.738L5.95791 18.38L5.7628 19.0704C5.55006 19.8193 5.01884 20.6692 4.37055 21.3255C4.35167 21.3456 4.33153 21.3644 4.31202 21.3864C6.23619 22.9675 8.62422 23.9256 11.1404 24.1261L11.3261 24.1401L11.2185 23.9933C10.3795 22.8478 9.81308 21.5368 9.55998 20.1545C9.30687 18.7722 9.37332 17.3527 9.75456 15.9982C10.1358 14.6436 10.8224 13.3875 11.765 12.3201C12.7076 11.2526 13.8829 10.4003 15.2064 9.82426L15.2693 9.79626L15.253 9.73111Z" fill="#FBB03B"/>
<path opacity="0.4" d="M12.5006 8.79602C11.9411 8.66731 11.3681 8.60193 10.793 8.6012C10.725 8.6012 10.6571 8.6012 10.5853 8.6012C10.3148 8.60724 10.0448 8.62757 9.77652 8.66208C6.32738 9.12296 3.61653 11.884 3.33015 15.2373C3.32676 15.2785 3.31093 15.3177 3.28463 15.3502C3.25832 15.3827 3.22271 15.407 3.18224 15.42C2.43532 15.6617 1.66659 15.8349 0.886164 15.9375L0.585938 15.9777L0.617408 16.0726C0.984155 17.1803 1.52347 18.2273 2.21673 19.1776C2.25386 19.1825 2.29226 19.1867 2.33065 19.1904C2.42003 19.1989 2.51255 19.2056 2.60948 19.2099C1.97195 18.3026 1.47294 17.3112 1.12786 16.2662L1.09639 16.1713L1.39661 16.1305C2.17702 16.0281 2.94575 15.8551 3.69268 15.6136C3.73312 15.6005 3.76868 15.5762 3.79498 15.5437C3.82127 15.5113 3.83713 15.472 3.84059 15.4309C4.12697 12.0824 6.83783 9.3196 10.287 8.86603C10.5552 8.8318 10.8252 8.81147 11.0958 8.80515C11.1675 8.80515 11.2355 8.80515 11.3035 8.80515C11.7307 8.80323 12.1573 8.83684 12.5786 8.90561C12.5522 8.8709 12.5251 8.83377 12.5006 8.79602Z" fill="#E6E6E6"/>
<path d="M11.2363 24.142L11.1293 23.9952C10.1191 22.6147 9.50758 20.9988 9.35757 19.3137C9.20756 17.6287 9.52452 15.9354 10.2758 14.4081C10.3396 14.2787 10.4061 14.1512 10.4754 14.0258C9.24046 12.88 4.8642 18.2577 3.22397 15.4407L3.13963 15.3963C3.12576 15.4045 3.11099 15.4113 3.09557 15.4164C2.34865 15.658 1.57992 15.8313 0.799494 15.9339L0.499268 15.974L0.530738 16.069C0.897486 17.1767 1.4368 18.2237 2.13006 19.174C2.16719 19.1789 2.20496 19.1831 2.24398 19.1868C2.42281 19.2039 2.60242 19.2122 2.78212 19.2117C3.70609 19.2117 4.73328 19.0108 5.23051 18.7344L5.87125 18.3764L5.67613 19.0668C5.46339 19.8193 4.93217 20.6693 4.28389 21.3256L4.22535 21.3864C6.14884 22.9671 8.53592 23.9252 11.0513 24.1261L11.2363 24.142Z" fill="#E6E6E6"/>
<path d="M13.5688 22.4823C12.2272 20.5927 11.673 18.2826 12.0172 16.0146C12.3613 13.7466 13.5785 11.6881 15.4249 10.2511L15.4797 10.2079L15.5344 10.2517C16.4085 10.9447 17.1087 11.8204 17.5824 12.8129C18.0561 13.8055 18.2909 14.889 18.2691 15.982C18.2474 17.075 17.9697 18.149 17.4568 19.1231C16.944 20.0973 16.2095 20.9463 15.3085 21.6062L15.3015 21.6117L15.2934 21.6147C15.2698 21.6265 15.2485 21.6422 15.2304 21.661L15.2247 21.6671L15.2178 21.6713C14.7393 22.0093 14.2213 22.2915 13.6745 22.5121L13.6116 22.5383L13.5688 22.4823Z" fill="#666666"/>
<path d="M19.489 10.1148C18.5565 9.8359 17.5861 9.69388 16.61 9.69349C16.3325 9.69349 16.0518 9.70506 15.7761 9.7282L15.7006 9.73428L15.6836 9.66305C15.3939 8.42052 14.9014 7.23057 14.2246 6.13798C13.7381 5.35272 13.1605 4.62372 12.5032 3.96511L12.5938 3.8269C14.1435 4.33165 15.568 5.14227 16.7768 6.20739C17.9819 7.26592 18.9419 8.55891 19.5941 10.0016L19.6702 10.1702L19.489 10.1148Z" fill="#F7931E"/>
<path opacity="0.2" d="M19.5941 10.0014C18.9416 8.55918 17.9813 7.26661 16.7762 6.20849C15.5673 5.14337 14.1429 4.33275 12.5932 3.828L12.5837 3.84322C13.8424 4.58265 14.9463 5.54397 15.8384 6.67728C16.5709 7.60465 17.1486 8.63737 17.5504 9.73782C18.2081 9.79973 18.8576 9.926 19.489 10.1147L19.6702 10.1689L19.5941 10.0014Z" fill="#1A1A1A"/>
<path d="M13.1642 25.4296C12.726 25.0708 12.3225 24.674 11.9588 24.2443L11.9551 24.2394C11.1594 23.2982 10.5672 22.212 10.2138 21.0452C9.86028 19.8784 9.75267 18.6549 9.89732 17.4471C10.042 16.2394 10.4359 15.072 11.0558 14.0143C11.6757 12.9566 12.5089 12.0301 13.5059 11.2898L13.6268 11.4116C12.2875 13.0372 11.5359 15.0426 11.487 17.1208C11.4381 19.199 12.0947 21.2354 13.3561 22.9183C13.3841 22.9554 13.4239 22.9825 13.4693 22.9956C13.5148 23.0087 13.5635 23.007 13.6079 22.9907C14.2285 22.7612 14.8164 22.4563 15.3576 22.0836L15.4017 22.0531L15.4495 22.0781C15.9721 22.3574 16.5198 22.5901 17.086 22.7734L17.2182 22.8166L17.12 22.9128C16.013 23.9897 14.7009 24.8489 13.256 25.443L13.207 25.4631L13.1642 25.4296Z" fill="#666666"/>
<path opacity="0.2" d="M17.084 22.7734C16.5178 22.5902 15.9701 22.3575 15.4475 22.0782L15.3997 22.0532L15.3557 22.0836L15.2474 22.1555C15.1845 22.1969 15.1215 22.2377 15.0586 22.2772L15.0454 22.2852C14.9875 22.3211 14.9295 22.3564 14.8704 22.3905L14.8314 22.4136C14.781 22.4428 14.73 22.4715 14.6784 22.4995L14.6098 22.5366C14.2859 22.7111 13.9493 22.8626 13.6028 22.9902C13.5584 23.0065 13.5097 23.0082 13.4642 22.9951C13.4187 22.982 13.379 22.9548 13.351 22.9177C12.0869 21.2359 11.4288 19.199 11.4777 17.1202C11.5266 15.0413 12.2798 13.0356 13.6216 11.411L13.5316 11.3221C12.0067 12.9657 11.0893 15.0526 10.9233 17.2551C10.7573 19.4577 11.3522 21.6512 12.6146 23.4912C12.286 23.613 11.9518 23.7244 11.6151 23.8182C11.7221 23.9619 11.8337 24.1029 11.9499 24.2413L11.9537 24.2462C12.3178 24.676 12.7217 25.0728 13.1603 25.4315L13.2012 25.465L13.2503 25.4449C14.6973 24.8509 16.0114 23.991 17.1199 22.9129L17.2181 22.8167L17.084 22.7734Z" fill="#1A1A1A"/>
<path d="M11.833 3.91323L11.6857 3.77686V3.97411C11.6893 5.37242 11.4383 6.76041 10.9442 8.07452L10.9033 8.1841H11.0235C11.6037 8.20074 12.1802 8.27935 12.7424 8.4185L12.8601 8.37405C13.2686 8.47147 14.382 8.93965 15.2362 9.81148L15.2695 9.79687L15.2531 9.7299C14.7281 7.5083 13.5386 5.48535 11.833 3.91323V3.91323Z" fill="#FF96B2"/>
<path d="M15.2532 9.7312C14.7283 7.50917 13.5388 5.48577 11.833 3.91332L11.7241 3.81287C12.8408 5.28918 13.5814 6.9997 13.8855 8.80519C14.3851 9.07494 14.8409 9.41446 15.2381 9.81279L15.2715 9.79818L15.2532 9.7312Z" fill="#FF769A"/>
<path d="M1.90473 16.4551C1.90473 16.8611 1.59003 17.1911 1.20169 17.1911C0.813341 17.1911 0.499268 16.8624 0.499268 16.4551C0.499268 16.0478 0.813971 15.719 1.20169 15.719C1.5894 15.719 1.90473 16.0496 1.90473 16.4551Z" fill="black"/>
<path d="M5.04594 14.7637C4.98783 14.7633 4.93152 14.7441 4.88592 14.7093C4.84032 14.6744 4.80804 14.6259 4.79418 14.5713L4.73753 14.3466C4.6962 14.1827 4.68866 14.0126 4.71532 13.8459C4.74198 13.6791 4.80233 13.5191 4.89292 13.375C4.98351 13.2308 5.10257 13.1053 5.2433 13.0057C5.38403 12.906 5.54367 12.8341 5.71311 12.7942C5.88255 12.7542 6.05848 12.7469 6.23084 12.7727C6.40319 12.7985 6.56862 12.8568 6.71765 12.9445C6.86669 13.0321 6.99642 13.1473 7.09945 13.2834C7.20247 13.4195 7.27677 13.5739 7.3181 13.7378L7.37474 13.9625C7.38301 13.9947 7.38464 14.0281 7.37954 14.0609C7.37445 14.0937 7.36273 14.1252 7.34505 14.1536C7.32737 14.182 7.30408 14.2068 7.2765 14.2265C7.24893 14.2462 7.21762 14.2604 7.18435 14.2684C7.11716 14.2846 7.04609 14.2742 6.98678 14.2397C6.95741 14.2226 6.93181 14.2001 6.91144 14.1734C6.89107 14.1467 6.87634 14.1164 6.86807 14.0842L6.81079 13.8596C6.76047 13.6585 6.62961 13.4849 6.447 13.3772C6.2644 13.2694 6.04501 13.2362 5.8371 13.2849C5.62919 13.3335 5.44979 13.4601 5.33837 13.6368C5.22694 13.8134 5.19262 14.0256 5.24294 14.2267L5.29959 14.4514C5.31599 14.5159 5.30535 14.5842 5.26998 14.6412C5.23461 14.6982 5.17739 14.7394 5.11077 14.7558C5.08958 14.761 5.06781 14.7637 5.04594 14.7637V14.7637Z" fill="#42210B"/>
<path d="M19.8798 15.5941C19.8114 15.5941 19.7457 15.5681 19.6969 15.5216C19.6481 15.4751 19.6202 15.4119 19.6193 15.3457L19.6155 15.1144C19.6156 14.7773 19.7528 14.4538 19.9974 14.2137C20.242 13.9736 20.5743 13.8362 20.9227 13.8311C21.2712 13.826 21.6077 13.9536 21.8597 14.1864C22.1117 14.4192 22.2589 14.7385 22.2697 15.0754L22.2734 15.3067C22.274 15.3399 22.2678 15.3728 22.2552 15.4037C22.2427 15.4345 22.2239 15.4626 22.2 15.4864C22.1762 15.5103 22.1477 15.5293 22.1162 15.5424C22.0848 15.5556 22.0509 15.5626 22.0167 15.5631H22.0122C21.9438 15.5631 21.8781 15.537 21.8293 15.4905C21.7806 15.4441 21.7527 15.3809 21.7517 15.3147L21.7479 15.0833C21.7446 14.8788 21.6584 14.6837 21.5078 14.5401C21.3572 14.3965 21.1543 14.3159 20.9429 14.3156H20.9303C20.7167 14.3191 20.5133 14.4044 20.3647 14.5528C20.216 14.7011 20.1342 14.9005 20.1373 15.1071L20.141 15.339C20.1419 15.4059 20.1152 15.4704 20.067 15.5184C20.0187 15.5663 19.9528 15.5938 19.8836 15.5947L19.8798 15.5941Z" fill="#42210B"/>
<path fill-rule="evenodd" clip-rule="evenodd" d="M2.09983 16.3637C2.09983 16.8678 1.71589 17.2769 1.24132 17.2769C0.76675 17.2769 0.382812 16.8684 0.382812 16.3637C0.382812 15.859 0.76738 15.4504 1.24132 15.4504C1.71527 15.4504 2.09983 15.8602 2.09983 16.3637Z" fill="#42210B"/>
<path fill-rule="evenodd" clip-rule="evenodd" d="M29.8257 15.7621C29.8257 16.2662 29.4411 16.6753 28.9672 16.6753C28.4932 16.6753 28.1086 16.2668 28.1086 15.7621C28.1086 15.2574 28.4932 14.8489 28.9672 14.8489C29.4411 14.8489 29.8257 15.2586 29.8257 15.7621Z" fill="#42210B"/>
<path d="M29.9273 14.9217C29.8993 14.8898 29.8645 14.864 29.8253 14.8462C29.7861 14.8283 29.7434 14.8188 29.7001 14.8182C27.951 14.7921 25.7235 14.5418 24.0097 12.8237C22.9855 11.7163 21.7111 10.8523 20.2855 10.299C19.5682 8.49616 18.4039 6.89152 16.8949 5.62627C15.3481 4.34301 13.5008 3.44436 11.5135 3.00835L11.482 3.00287C11.469 3.00197 11.456 3.00197 11.443 3.00287H11.4341C11.4209 3.00287 11.4083 3.00287 11.3951 3.00652C11.3819 3.00884 11.3688 3.01209 11.3561 3.01626H11.3486C11.3226 3.02469 11.2981 3.03658 11.2755 3.05157L11.2667 3.05645C11.2558 3.0637 11.2454 3.07185 11.2359 3.0808V3.0808C11.2263 3.0894 11.2174 3.09877 11.2095 3.1088L11.2044 3.11428C11.1881 3.13542 11.1748 3.15856 11.1648 3.18308L11.161 3.1916C11.157 3.20195 11.1536 3.21252 11.1509 3.22326V3.22874C11.1509 3.24092 11.1465 3.25309 11.1453 3.26466C11.144 3.27623 11.1453 3.27075 11.1453 3.27319C11.1446 3.28495 11.1446 3.29673 11.1453 3.3085V3.31154C11.2471 4.94579 10.9846 6.58213 10.3755 8.10965C10.1539 8.12122 9.93113 8.14131 9.71084 8.17053C7.94126 8.4029 6.30289 9.20115 5.05649 10.4382C3.81009 11.6753 3.02729 13.2801 2.83269 14.9972C2.17552 15.1984 1.50167 15.3444 0.818597 15.4338L0.685793 15.452C0.550471 15.4703 0.397525 15.491 0.277938 15.5019C0.233466 15.506 0.190464 15.5195 0.15199 15.5414C0.113516 15.5634 0.0805164 15.5933 0.055338 15.629C0.0301597 15.6646 0.0134215 15.7053 0.00631421 15.7479C-0.000793057 15.7906 0.00190523 15.8342 0.0142171 15.8758C0.329117 16.9454 0.795074 17.9679 1.39891 18.9144V18.9144L1.40332 18.9211L1.41653 18.9418C1.58332 19.1926 1.78977 19.4343 2.01195 19.7107C2.24111 19.7456 2.47239 19.7659 2.7043 19.7716V19.7716H2.81444H2.86794C3.56836 19.7713 4.26525 19.6756 4.93806 19.4873C4.67489 20.0091 4.32965 20.4882 3.91464 20.9077L3.85611 20.9649C3.74154 21.0773 3.62073 21.1836 3.4942 21.2833C3.4792 21.2948 3.4632 21.305 3.44637 21.3137C3.6012 21.4659 3.74974 21.6048 3.88695 21.7223L3.89261 21.7271L3.92471 21.7503C4.08395 21.8812 4.24571 22.0096 4.4125 22.1338C6.48597 23.6911 9.01505 24.575 11.6387 24.6592C12.0423 25.1237 12.4906 25.5502 12.9775 25.9329C12.9805 25.9347 12.9834 25.9368 12.9863 25.9389C12.9951 25.945 13.0039 25.9511 13.0133 25.9566L13.0303 25.9657L13.0574 25.9773L13.075 25.984L13.1071 25.9919L13.1216 25.995C13.1374 25.9974 13.1534 25.9986 13.1694 25.9986H13.2021C13.2117 25.9976 13.2211 25.9959 13.2305 25.9937C13.2332 25.9941 13.2359 25.9941 13.2387 25.9937C13.2462 25.9937 13.2531 25.9901 13.2607 25.9883L13.2714 25.9846L13.2815 25.9809C14.9599 25.3214 16.4716 24.3197 17.7137 23.044C18.5135 23.2437 19.3362 23.3446 20.1621 23.3442C20.6184 23.3438 21.0741 23.3133 21.526 23.2528C23.679 22.9767 25.6766 22.0182 27.2064 20.5271C28.7046 19.0697 29.6831 17.1879 29.9997 15.1555C30.0059 15.1138 30.0026 15.0713 29.9901 15.0309C29.9776 14.9906 29.9562 14.9533 29.9273 14.9217V14.9217ZM19.5119 10.0347C18.3012 9.67202 17.0292 9.53949 15.7663 9.64449C15.4747 8.39329 14.9785 7.1951 14.2967 6.09507C13.8069 5.30426 13.2253 4.57014 12.5633 3.90697C15.6858 4.931 18.2028 7.14041 19.5119 10.0347ZM18.1084 14.8724C18.2903 16.1287 18.1217 17.4092 17.6202 18.5813C17.1187 19.7534 16.3024 20.7745 15.2559 21.539C15.2222 21.5548 15.1918 21.5767 15.1665 21.6035C14.6936 21.9376 14.1815 22.2163 13.6408 22.434C12.3131 20.5618 11.7648 18.2738 12.1058 16.0276C12.4468 13.7813 13.6518 11.7423 15.48 10.3184C16.9214 11.4591 17.8609 13.087 18.1084 14.8724V14.8724ZM4.37096 21.3259C4.36404 21.318 4.35397 21.315 4.37096 21.3003C5.02428 20.6495 5.54984 19.7947 5.76321 19.0392L5.95769 18.3488L5.31444 18.708C4.81973 18.9844 3.79002 19.1853 2.86605 19.1853C2.67723 19.1853 2.4947 19.1762 2.32791 19.1603H2.31092C1.61204 18.2091 1.06899 17.1594 0.700898 16.0481L0.768874 16.0389L0.898532 16.0213C1.68446 15.917 2.45849 15.7412 3.21034 15.4965C3.26682 15.4783 3.31655 15.4445 3.35336 15.3993C3.39017 15.354 3.41244 15.2993 3.41741 15.242C3.70002 11.9306 6.38002 9.20187 9.78888 8.75317C10.054 8.71896 10.3208 8.69864 10.5882 8.69229H10.592C11.2768 8.67436 11.9609 8.74895 12.6244 8.9139C12.6632 8.92362 12.7036 8.92583 12.7434 8.92043C12.7831 8.91502 12.8214 8.9021 12.8559 8.8824C12.8905 8.86269 12.9207 8.8366 12.9449 8.8056C12.969 8.7746 12.9866 8.7393 12.9966 8.70173C13.0067 8.66415 13.009 8.62503 13.0034 8.58659C12.9978 8.54816 12.9844 8.51117 12.9641 8.47773C12.9437 8.44429 12.9167 8.41505 12.8847 8.3917C12.8526 8.36835 12.8161 8.35132 12.7773 8.34161C12.2045 8.19896 11.6169 8.11891 11.0257 8.10295C11.5228 6.77984 11.7748 5.38232 11.7703 3.97455C13.4613 5.53802 14.6427 7.54571 15.169 9.75042C13.8343 10.3321 12.6491 11.1922 11.6986 12.2691C10.748 13.3461 10.0556 14.6131 9.67096 15.9795C9.28635 17.3458 9.21907 18.7775 9.47397 20.172C9.72886 21.5664 10.2996 22.889 11.1453 24.0449C8.64888 23.8457 6.2798 22.8948 4.37096 21.3259ZM13.2179 25.3654C12.7828 25.0103 12.3825 24.6172 12.022 24.191L12.0157 24.1837C11.231 23.2498 10.6476 22.1734 10.2998 21.0179C9.95193 19.8624 9.84678 18.6513 9.99049 17.4559C10.1342 16.2605 10.5239 15.105 11.1365 14.0575C11.7492 13.0101 12.5725 12.0919 13.5578 11.3571C12.2055 12.9974 11.4465 15.0214 11.3972 17.1189C11.3478 19.2163 12.0108 21.2716 13.2846 22.9697C13.3128 23.0074 13.3497 23.0381 13.3925 23.0592C13.4353 23.0804 13.4826 23.0915 13.5307 23.0915C13.5677 23.0916 13.6045 23.085 13.639 23.072C14.2663 22.8412 14.8608 22.5344 15.4082 22.1588C15.9352 22.4379 16.4871 22.6704 17.0573 22.8534C15.9584 23.9241 14.6543 24.7774 13.2179 25.3654ZM21.4385 22.6696C20.1997 22.8355 18.939 22.7566 17.7326 22.4376C17.7089 22.4284 17.6842 22.4219 17.659 22.4181C17.0621 22.2545 16.4839 22.033 15.9331 21.757C16.9657 20.9176 17.7617 19.839 18.247 18.6218C18.7324 17.4046 18.8912 16.0883 18.7088 14.7957C18.4671 13.039 17.6047 11.4172 16.268 10.2052C17.6374 10.1591 19.0004 10.4054 20.2602 10.9266C21.52 11.4478 22.6457 12.2311 23.5571 13.2207C23.5597 13.2235 23.5624 13.2261 23.5653 13.2286C25.3188 14.9899 27.5262 15.3394 29.3357 15.3984C28.61 19.1804 25.4088 22.1478 21.4411 22.6696H21.4385Z" fill="#42210B"/>
<path d="M22.8306 22.8756C22.7698 22.8755 22.7103 22.8588 22.6588 22.8276C21.366 22.0501 20.7706 21.2982 20.3973 20.7302C20.3735 20.6952 20.3571 20.6561 20.3491 20.6149C20.3411 20.5738 20.3417 20.5315 20.3507 20.4906C20.3598 20.4497 20.3771 20.4109 20.4018 20.3766C20.4265 20.3422 20.458 20.313 20.4945 20.2905C20.531 20.268 20.5718 20.2528 20.6144 20.2457C20.6571 20.2387 20.7007 20.2399 20.7429 20.2493C20.785 20.2587 20.8248 20.2761 20.86 20.3006C20.8951 20.325 20.9248 20.356 20.9474 20.3917C21.3049 20.9347 21.8286 21.5856 23.0037 22.2918C23.0638 22.3282 23.1101 22.3825 23.1355 22.4465C23.1608 22.5105 23.164 22.5808 23.1445 22.6468C23.1249 22.7127 23.0837 22.7707 23.0271 22.812C22.9705 22.8533 22.9015 22.8756 22.8306 22.8756V22.8756Z" fill="#42210B"/>
<path opacity="0.2" d="M18.1935 14.8635C17.943 13.0558 16.9926 11.4073 15.5343 10.2511L15.4796 10.2073L15.4248 10.2505C15.3279 10.326 15.2328 10.4033 15.1397 10.4825C15.9527 11.1965 16.5931 12.0752 17.0151 13.0559C17.4372 14.0366 17.6306 15.0952 17.5815 16.1564C17.5325 17.2177 17.2422 18.2554 16.7314 19.1958C16.2206 20.1361 15.5018 20.956 14.6261 21.5971L14.6192 21.6019L14.6116 21.6056C14.5878 21.6171 14.5665 21.6328 14.5487 21.6519L14.543 21.6574L14.5367 21.6622C14.192 21.9039 13.827 22.1172 13.4453 22.2997C13.4856 22.3605 13.5265 22.4214 13.5712 22.4793L13.6115 22.5353L13.6744 22.5091C14.2212 22.2884 14.7392 22.0062 15.2177 21.6683L15.2246 21.664L15.2303 21.658C15.2484 21.6392 15.2697 21.6235 15.2932 21.6117L15.3014 21.6086L15.3084 21.6032C16.3666 20.8299 17.192 19.7972 17.6992 18.6118C18.2065 17.4265 18.3771 16.1316 18.1935 14.8611V14.8635Z" fill="#F2F2F2"/>
<path opacity="0.2" d="M14.5356 21.6623L14.5419 21.6574L14.5476 21.652C14.5654 21.6329 14.5868 21.6172 14.6105 21.6057L14.6181 21.602L14.625 21.5972C14.9026 21.3943 15.1651 21.1727 15.4105 20.9342C15.3677 20.9524 15.3243 20.9713 15.2809 20.9889L15.2179 21.0151L15.1783 20.9585C14.0911 19.4289 13.5148 17.6138 13.527 15.7576C13.5393 13.9014 14.1395 12.0935 15.2469 10.5775C15.2116 10.5459 15.1764 10.5166 15.1411 10.4825C13.403 11.9478 12.2823 13.9799 11.9922 16.1923C11.7021 18.4048 12.2628 20.6432 13.5676 22.4818C13.5254 22.4209 13.4845 22.36 13.4417 22.3022C13.8243 22.119 14.1903 21.905 14.5356 21.6623V21.6623Z" fill="#1A1A1A"/>
<path opacity="0.2" d="M15.1399 10.4819C15.184 10.4448 15.2286 10.4082 15.2733 10.3717C15.2318 10.4082 15.184 10.4448 15.1399 10.4819Z" fill="#1A1A1A"/>
<path opacity="0.2" d="M15.2844 10.3625C15.3304 10.3248 15.3776 10.287 15.4248 10.2505C15.3776 10.287 15.3304 10.3248 15.2844 10.3625Z" fill="#1A1A1A"/>
<path opacity="0.2" d="M15.5093 10.231L15.4797 10.2073L15.5093 10.231Z" fill="#1A1A1A"/>
<g opacity="0.2">
<path opacity="0.2" d="M29.282 15.3123C28.809 17.0557 27.8131 18.6248 26.4199 19.8219C25.0267 21.0189 23.2984 21.7904 21.4528 22.0391C21.026 22.0951 20.5958 22.1234 20.165 22.1237V22.1237C19.3357 22.1242 18.5101 22.0169 17.7104 21.8047H17.7053H17.7003C17.6835 21.798 17.666 21.7933 17.648 21.7907H17.6417H17.6361C17.1824 21.6659 16.7391 21.5082 16.3099 21.3189C16.171 21.4496 16.0271 21.576 15.8782 21.6982L15.7781 21.7791L15.8939 21.837C16.45 22.1161 17.0336 22.3405 17.6361 22.5067H17.6417H17.648C17.666 22.5093 17.6835 22.514 17.7003 22.5207H17.7053H17.7104C18.5102 22.7324 19.3358 22.8395 20.165 22.8391C20.5958 22.8388 21.026 22.8105 21.4528 22.7545C23.4081 22.4909 25.2287 21.641 26.6584 20.3242C28.0882 19.0074 29.0551 17.2901 29.423 15.4139L29.4418 15.3177L29.3405 15.3141L29.282 15.3123Z" fill="#1A1A1A"/>
</g>
<g opacity="0.2">
<path opacity="0.2" d="M15.253 9.73117C15.2329 9.64594 15.2115 9.56131 15.1901 9.47668C13.8913 9.97359 12.7072 10.7146 11.7063 11.6569C10.7054 12.5992 9.90748 13.724 9.35877 14.9665C8.81006 16.2089 8.52141 17.5442 8.5095 18.8951C8.4976 20.2461 8.76267 21.586 9.2894 22.8372C7.69386 22.8458 6.01649 22.0379 4.59466 20.9852C4.49522 21.1027 4.39136 21.2166 4.28436 21.3249L4.22583 21.3858C5.93666 22.7914 8.01732 23.7099 10.236 24.0391L10.2247 24.0244C10.5262 24.0713 10.8314 24.1066 11.1386 24.1304L11.3243 24.1444L11.2166 23.9977C10.3776 22.8521 9.81124 21.5412 9.55813 20.1588C9.30502 18.7765 9.37147 17.3571 9.75272 16.0025C10.134 14.648 10.8205 13.3919 11.7631 12.3244C12.7058 11.2569 13.881 10.4046 15.2046 9.82858L15.2675 9.80058L15.253 9.73117Z" fill="#1A1A1A"/>
<path opacity="0.2" d="M1.07764 17.4168C1.37462 18.0302 1.72676 18.6171 2.13 19.1708C2.16714 19.1757 2.2049 19.18 2.24393 19.1836C2.35848 19.1946 2.47911 19.2019 2.60584 19.2055C1.95818 18.5072 1.46535 17.8284 1.20163 17.2963L1.07764 17.4168Z" fill="#1A1A1A"/>
</g>
</g>
<defs>
<clipPath id="clip0">
<rect y="3" width="30" height="23" fill="white"/>
</clipPath>
</defs>
</svg>
