<svg width="30" height="30" viewBox="0 0 30 30" fill="none" xmlns="http://www.w3.org/2000/svg">
<g clip-path="url(#clip0)">
<path d="M24.704 22.261C24.9177 22.9638 24.8435 23.7228 24.4977 24.3709C24.1518 25.019 23.5628 25.5032 22.86 25.7171L9.68811 29.7244C8.98539 29.9381 8.22657 29.864 7.57847 29.5184C6.93038 29.1728 6.44607 28.5839 6.23202 27.8813L0.0468608 7.55629C-0.0589865 7.20834 -0.0952488 6.84294 -0.0598547 6.48098C-0.0244606 6.11901 0.0818963 5.76756 0.253141 5.4467C0.424386 5.12585 0.657164 4.84187 0.938178 4.61099C1.21919 4.38012 1.54294 4.20686 1.89092 4.10113L15.0628 0.092381C15.7655 -0.121179 16.5242 -0.0469993 17.1721 0.298616C17.8201 0.644232 18.3044 1.233 18.5184 1.93551L24.704 22.2605" fill="#C3C3C3"/>
<path d="M26.4423 26.3156C26.4726 27.0494 26.2105 27.7652 25.7135 28.3058C25.2164 28.8464 24.5252 29.1676 23.7915 29.1989L10.0341 29.7792C9.3005 29.8095 8.58485 29.5474 8.04428 29.0505C7.50371 28.5536 7.18238 27.8625 7.15084 27.1289L6.25647 5.90391C6.24081 5.54046 6.29698 5.1775 6.42176 4.83578C6.54653 4.49406 6.73746 4.1803 6.98363 3.91245C7.2298 3.6446 7.52636 3.42792 7.85636 3.27482C8.18636 3.12171 8.54331 3.03517 8.90678 3.02016L22.6641 2.43938C23.3979 2.40903 24.1136 2.67115 24.6543 3.16817C25.1949 3.66519 25.5161 4.35647 25.5474 5.09016L26.4423 26.3152" fill="#969698"/>
<path d="M24.1701 21.9422C24.2715 22.275 24.3063 22.6245 24.2726 22.9707C24.2388 23.317 24.1371 23.6532 23.9734 23.9601C23.8096 24.267 23.5869 24.5387 23.3181 24.7595C23.0492 24.9803 22.7395 25.1459 22.4066 25.2469L9.80288 29.0836C9.4701 29.1849 9.12063 29.2197 8.77443 29.1859C8.42822 29.152 8.09207 29.0504 7.78518 28.8866C7.47829 28.7228 7.20667 28.5002 6.98585 28.2314C6.76502 27.9627 6.59931 27.653 6.49819 27.3202L0.580691 7.87317C0.479334 7.54039 0.444552 7.1909 0.478333 6.84468C0.512114 6.49846 0.613796 6.16228 0.777566 5.85538C0.941337 5.54847 1.16398 5.27685 1.43278 5.05604C1.70158 4.83522 2.01127 4.66955 2.34413 4.56848L14.9479 0.732228C15.2807 0.630955 15.6302 0.596262 15.9765 0.630133C16.3227 0.664005 16.6589 0.765776 16.9658 0.92963C17.2727 1.09348 17.5443 1.31621 17.7651 1.58508C17.9859 1.85395 18.1515 2.16369 18.2526 2.4966L24.1691 21.9432" fill="#D1D2D3"/>
<path d="M7.9401 8.92506C7.95604 8.97897 7.63354 9.12428 7.21917 9.25037L3.48416 10.3876C3.06979 10.5127 2.72057 10.5727 2.7037 10.5197L2.47963 9.781C2.46276 9.72803 2.78713 9.58365 3.20151 9.45662L6.93651 8.32084C7.35042 8.19381 7.7001 8.13522 7.71604 8.18818L7.9401 8.92506" fill="#AAAAAA"/>
<path d="M8.55002 10.9253C8.56596 10.9787 8.24346 11.1245 7.82721 11.2482L4.09314 12.3863C3.67877 12.5115 3.32955 12.572 3.31267 12.5181L3.08908 11.7812C3.07127 11.7287 3.39471 11.5829 3.81002 11.4568L7.54408 10.3201C7.95986 10.194 8.30721 10.1345 8.32502 10.1874L8.55002 10.9253" fill="#AAAAAA"/>
<path d="M9.19785 13.0552C9.21473 13.1091 8.89223 13.2534 8.47598 13.3805L4.74098 14.5162C4.32707 14.6433 3.97738 14.7019 3.96191 14.6489L3.73738 13.912C3.72145 13.8595 4.04394 13.7128 4.45832 13.5881L8.19332 12.45C8.60863 12.3239 8.95785 12.2648 8.97285 12.3183L9.19785 13.0552Z" fill="#AAAAAA"/>
<path d="M21.8101 18.7014C21.826 18.7548 21.5035 18.9006 21.0877 19.0262L17.3541 20.1625C16.9398 20.2895 16.5906 20.3481 16.5732 20.2937L16.3487 19.5573C16.3332 19.5048 16.6571 19.359 17.0715 19.2334L20.8056 18.0962C21.2209 17.9701 21.5691 17.9106 21.586 17.9636L21.8101 18.7014" fill="#AAAAAA"/>
<path d="M22.4178 20.7C22.4356 20.7534 22.1112 20.8992 21.6968 21.0249L17.9627 22.162C17.5474 22.2881 17.1992 22.3477 17.1828 22.2933L16.9582 21.5559C16.9404 21.5034 17.2648 21.3586 17.6792 21.232L21.4142 20.0958C21.8295 19.9688 22.1778 19.9102 22.1932 19.9636L22.4178 20.7" fill="#AAAAAA"/>
<path d="M23.0672 22.8324C23.0841 22.8844 22.7607 23.0302 22.3453 23.1558L18.6103 24.293C18.196 24.4191 17.8467 24.4786 17.8313 24.4252L17.6063 23.6888C17.5903 23.6358 17.9138 23.4896 18.3282 23.3626L22.0632 22.2268C22.4785 22.1011 22.8258 22.0411 22.8422 22.0941L23.0672 22.8324" fill="#AAAAAA"/>
<path d="M20.0665 12.9699C20.0829 13.0238 19.1196 13.3627 17.914 13.7297L7.06713 17.0297C5.86338 17.3958 4.87291 17.6504 4.85697 17.5979L4.63103 16.8605C4.61603 16.8066 5.57978 16.4672 6.78447 16.1007L17.6267 12.8007C18.8313 12.4336 19.8223 12.1796 19.8378 12.2316L20.0623 12.969" fill="#AAAAAA"/>
<path d="M20.6672 14.851C20.6836 14.9039 19.7203 15.2438 18.5142 15.6108L7.66732 18.9108C6.46357 19.2779 5.47404 19.5314 5.45764 19.478L5.23311 18.7407C5.21717 18.6877 6.17998 18.3474 7.38467 17.9808L18.2315 14.6808C19.4358 14.3138 20.4248 14.0597 20.4417 14.1127L20.6667 14.851" fill="#AAAAAA"/>
<path d="M21.267 16.8272C21.2829 16.8797 20.3201 17.22 19.1136 17.5871L8.26668 20.8871C7.0634 21.2536 6.07246 21.5077 6.05699 21.4561L5.83246 20.7183C5.81699 20.6649 6.77933 20.3246 7.98402 19.9585L18.8309 16.6585C20.037 16.2929 21.0261 16.0379 21.0425 16.0908L21.267 16.8282" fill="#AAAAAA"/>
<path d="M16.4859 4.51928C16.6071 4.48222 16.7344 4.46944 16.8605 4.48167C16.9866 4.4939 17.1091 4.53091 17.2209 4.59057C17.3327 4.65023 17.4316 4.73137 17.512 4.82934C17.5923 4.92731 17.6526 5.04018 17.6892 5.16147L19.087 9.75147C19.1615 9.99657 19.1357 10.2612 19.0152 10.4873C18.8947 10.7133 18.6894 10.8823 18.4444 10.9571L11.3616 13.1124C11.1168 13.1866 10.8525 13.1607 10.6268 13.0403C10.4012 12.9199 10.2325 12.7149 10.1578 12.4702L8.75952 7.87835C8.72274 7.75702 8.71023 7.62963 8.72269 7.50347C8.73516 7.3773 8.77236 7.25483 8.83217 7.14304C8.89198 7.03126 8.97323 6.93235 9.07127 6.85197C9.16932 6.7716 9.28224 6.71132 9.40358 6.6746L16.4864 4.51928" fill="#27A8E0"/>
<path d="M14.0811 19.8281C14.5794 19.6772 15.0926 19.9167 15.23 20.3648L16.4576 24.4027C16.5945 24.8513 16.3011 25.3369 15.8033 25.4888L8.88358 27.5939C8.38529 27.7458 7.87061 27.5048 7.73467 27.0572L6.50701 23.0198C6.36873 22.5717 6.66358 22.0861 7.16139 21.9333L14.0811 19.8281Z" fill="#AEADAD"/>
</g>
<defs>
<clipPath id="clip0">
<rect width="30" height="30" fill="white"/>
</clipPath>
</defs>
</svg>
