<svg width="40" height="40" viewBox="0 0 40 40" fill="none" xmlns="http://www.w3.org/2000/svg">
<path d="M26.8333 3H14.1667C13.5949 3 13.0671 3.14388 12.5833 3.43164C12.0995 3.7194 11.7147 4.10677 11.4288 4.59375C11.1429 5.08073 11 5.61198 11 6.1875V33.8125C11 34.6979 11.3079 35.4505 11.9236 36.0703C12.5394 36.6901 13.287 37 14.1667 37H26.8333C27.713 37 28.4606 36.6901 29.0764 36.0703C29.6921 35.4505 30 34.6979 30 33.8125V6.1875C30 5.61198 29.8571 5.08073 29.5712 4.59375C29.2853 4.10677 28.9005 3.7194 28.4167 3.43164C27.9329 3.14388 27.4051 3 26.8333 3ZM27.8889 33.8125C27.8889 34.1003 27.7844 34.3493 27.5755 34.5596C27.3666 34.7699 27.1192 34.875 26.8333 34.875H14.1667C13.8808 34.875 13.6334 34.7699 13.4245 34.5596C13.2156 34.3493 13.1111 34.1003 13.1111 33.8125V6.1875C13.1111 5.89974 13.2156 5.65072 13.4245 5.44043C13.6334 5.23014 13.8808 5.125 14.1667 5.125H26.8333C27.1192 5.125 27.3666 5.23014 27.5755 5.44043C27.7844 5.65072 27.8889 5.89974 27.8889 6.1875V33.8125ZM20.5165 29.5625C19.9337 29.5625 19.4334 29.7728 19.0156 30.1934C18.5978 30.6139 18.3889 31.112 18.3889 31.6875C18.3889 32.0638 18.4823 32.418 18.6693 32.75C18.8562 33.082 19.1146 33.3421 19.4444 33.5303C19.7743 33.7184 20.1262 33.8125 20.5 33.8125C20.8738 33.8125 21.2257 33.7184 21.5556 33.5303C21.8854 33.3421 22.1438 33.082 22.3307 32.75C22.5177 32.418 22.6111 32.0638 22.6111 31.6875C22.6111 31.112 22.4077 30.6139 22.0009 30.1934C21.594 29.7728 21.0992 29.5625 20.5165 29.5625ZM22.6111 6.1875H18.3889C18.103 6.1875 17.8556 6.29264 17.6467 6.50293C17.4378 6.71322 17.3333 6.96224 17.3333 7.25C17.3333 7.53776 17.4378 7.78678 17.6467 7.99707C17.8556 8.20736 18.103 8.3125 18.3889 8.3125H22.6111C22.897 8.3125 23.1444 8.20736 23.3533 7.99707C23.5622 7.78678 23.6667 7.53776 23.6667 7.25C23.6667 6.96224 23.5622 6.71322 23.3533 6.50293C23.1444 6.29264 22.897 6.1875 22.6111 6.1875Z" fill="#222222"/>
</svg>
