<svg width="38" height="38" viewBox="0 0 38 38" fill="none" xmlns="http://www.w3.org/2000/svg">
<path d="M7.20416 26.5847V33.0968L13.9333 31.4879L19 36.3911L24.0667 31.4879L30.7958 33.0968V26.5847L37.6042 24.8992L34.2 18.3871L37.6042 11.875L30.7958 10.1895V3.67743L24.0667 5.2863L19 0.383072L13.9333 5.2863L7.20416 3.67743V10.1895L0.395828 11.875L3.79999 18.3871L0.395828 24.8992L7.20416 26.5847ZM6.80833 16.9315L5.30416 13.9436L7.99583 13.3307C8.78749 13.1774 9.40763 12.8071 9.85625 12.2198C10.3049 11.6324 10.5292 10.9557 10.5292 10.1895V7.89114L13.0625 8.58065H13.9333C14.8306 8.58065 15.6222 8.24866 16.3083 7.58468L19 4.97985L21.6917 7.58468C22.3778 8.24866 23.1694 8.58065 24.0667 8.58065C24.3833 8.58065 24.6736 8.52958 24.9375 8.42743L27.4708 7.89114V10.1895C27.4708 10.9557 27.6951 11.6324 28.1437 12.2198C28.5924 12.8071 29.2125 13.1774 30.0042 13.3307L32.6958 13.9436L31.1917 16.9315C30.6639 17.9019 30.6639 18.8723 31.1917 19.8428L32.6958 22.8307L30.0042 23.4436C29.2125 23.5968 28.5924 23.9671 28.1437 24.5544C27.6951 25.1418 27.4708 25.8186 27.4708 26.5847V28.8831L24.9375 28.1936H24.0667C23.1694 28.1936 22.3778 28.5255 21.6917 29.1895L19 31.7944L16.3083 29.1895C15.6222 28.5255 14.8306 28.1936 13.9333 28.1936C13.6167 28.1936 13.3264 28.2446 13.0625 28.3468L10.5292 28.8831V26.5847C10.5292 25.8186 10.3049 25.1418 9.85625 24.5544C9.40763 23.9671 8.78749 23.5968 7.99583 23.4436L5.30416 22.8307L6.80833 19.8428C7.33611 18.8723 7.33611 17.9019 6.80833 16.9315ZM17.3375 23.9798L25.2542 16.2419C25.993 15.5269 25.993 14.7608 25.2542 13.9436C24.4625 13.2796 23.6708 13.2796 22.8792 13.9436L17.3375 19.3831L15.1208 17.2379C14.3292 16.5739 13.5375 16.5739 12.7458 17.2379C12.0597 18.004 12.0597 18.7702 12.7458 19.5363L17.3375 23.9798Z" fill="#F64B3C"/>
</svg>
