<svg width="40" height="40" viewBox="0 0 40 40" fill="none" xmlns="http://www.w3.org/2000/svg">
<mask id="mask0" mask-type="alpha" maskUnits="userSpaceOnUse" x="0" y="0" width="40" height="40">
<path d="M34.6409 18.1021C33.7584 16.1486 32.4756 14.3953 30.8727 12.9518L29.55 11.7581C29.5051 11.7187 29.451 11.6907 29.3925 11.6766C29.3341 11.6626 29.273 11.6628 29.2146 11.6774C29.1563 11.6919 29.1025 11.7204 29.0579 11.7602C29.0134 11.8 28.9794 11.8499 28.9591 11.9056L28.3682 13.5732C28 14.6194 27.3227 15.6879 26.3636 16.7385C26.3 16.8056 26.2272 16.8235 26.1772 16.828C26.1272 16.8324 26.05 16.8235 25.9818 16.7609C25.9182 16.7072 25.8863 16.6268 25.8909 16.5463C26.0591 13.8549 25.2409 10.8192 23.45 7.51532C21.9682 4.77027 19.9091 2.62876 17.3363 1.13552L15.4591 0.0491256C15.2136 -0.0939393 14.9 0.0938331 14.9136 0.375492L15.0136 2.52147C15.0818 3.98788 14.9091 5.28441 14.5 6.36186C14 7.68074 13.2818 8.90574 12.3636 10.0055C11.7246 10.7699 11.0004 11.4612 10.2045 12.0666C8.28775 13.5159 6.72915 15.3729 5.64545 17.4986C4.56443 19.6428 4.00132 22.0036 4 24.397C4 26.5072 4.42273 28.5503 5.25909 30.4772C6.06666 32.3325 7.23208 34.0162 8.6909 35.4353C10.1636 36.866 11.8727 37.9926 13.7773 38.775C15.75 39.5887 17.8409 40 20 40C22.1591 40 24.25 39.5887 26.2227 38.7795C28.1226 38.0017 29.8502 36.8673 31.3091 35.4398C32.7818 34.0092 33.9363 32.3371 34.7409 30.4817C35.576 28.5601 36.0044 26.4913 36 24.4015C36 22.2197 35.5454 20.1006 34.6409 18.1021Z" fill="#FD2929"/>
</mask>
<g mask="url(#mask0)">
<rect width="40" height="40" fill="url(#paint0_linear)"/>
</g>
<defs>
<linearGradient id="paint0_linear" x1="20" y1="0" x2="20" y2="40" gradientUnits="userSpaceOnUse">
<stop stop-color="#E69307"/>
<stop offset="1" stop-color="#D93333"/>
</linearGradient>
</defs>
</svg>
