<svg width="120" height="120" viewBox="0 0 120 120" fill="none" xmlns="http://www.w3.org/2000/svg">
<path d="M62.883 7.847C57.7112 13.0188 55.5469 20.0556 56.3818 26.792C56.5485 28.136 57.5986 29.1861 58.9426 29.3527C65.679 30.1877 72.7157 28.0234 77.8876 22.8516C83.0594 17.6798 85.2237 10.643 84.3887 3.90657C84.2221 2.56258 83.172 1.51247 81.828 1.34584C75.0915 0.511796 68.0548 2.67519 62.883 7.847Z" fill="#3EA05B"/>
<path d="M57.2214 28.5141C57.6728 28.9655 58.2706 29.2694 58.9426 29.3527C65.6791 30.1877 72.7158 28.0243 77.8876 22.8516C83.0604 17.6797 85.2237 10.643 84.3888 3.90655C84.3055 3.23456 84.0015 2.63672 83.5502 2.18536L57.2214 28.5141Z" fill="#2C7340"/>
<path d="M38.7799 30.6509C43.9517 35.8227 50.9885 37.987 57.7249 37.1512C59.0689 36.9845 60.119 35.9353 60.2847 34.5914C61.1197 27.8549 58.9563 20.8182 53.7845 15.6464C48.6127 10.4745 41.5759 8.31024 34.8395 9.1452C33.4955 9.31182 32.4454 10.3619 32.2787 11.7059C31.4438 18.4424 33.6081 25.4791 38.7799 30.6509Z" fill="#3EA05B"/>
<path d="M59.4461 36.3125C59.8975 35.8612 60.2014 35.2633 60.2856 34.5914C61.1206 27.854 58.9563 20.8182 53.7845 15.6454C48.6127 10.4736 41.5759 8.31022 34.8395 9.14518C34.1675 9.2285 33.5687 9.53245 33.1174 9.98381L59.4461 36.3125Z" fill="#2C7340"/>
<path d="M73.0307 32.1643C73.0307 27.952 69.5911 24.537 65.3485 24.537C61.105 24.537 57.6654 27.952 57.6654 32.1643C57.6654 36.3757 61.105 39.7906 65.3485 39.7906C69.5911 39.7906 73.0307 36.3757 73.0307 32.1643Z" fill="#F07A97"/>
<path d="M73.0307 32.1643C73.0307 36.3757 69.5911 39.7906 65.3485 39.7906V24.537C69.5911 24.537 73.0307 27.952 73.0307 32.1643Z" fill="#E6486D"/>
<path d="M30.4944 31.1938H3.51562C1.57379 31.1938 0 32.7686 0 34.7095C0 36.6513 1.57379 38.2251 3.51562 38.2251H30.4944C32.4362 38.2251 34.01 36.6513 34.01 34.7095C34.01 32.7686 32.4362 31.1938 30.4944 31.1938Z" fill="#B5C9F5"/>
<path d="M116.484 31.1938H89.4369C87.4951 31.1938 85.9213 32.7686 85.9213 34.7095C85.9213 36.6513 87.4951 38.2251 89.4369 38.2251H116.484C118.426 38.2251 120 36.6513 120 34.7095C120 32.7686 118.426 31.1938 116.484 31.1938Z" fill="#B5C9F5"/>
<path d="M62.1341 58.4271C61.5674 57.16 60.3104 56.3452 58.9233 56.3452C58.916 56.3452 58.9078 56.3452 58.8995 56.3452C57.5043 56.3553 56.2463 57.1893 55.6943 58.4711L47.3126 77.948C46.5445 79.7314 47.3685 81.7996 49.1519 82.5668C49.6051 82.7618 50.0766 82.8543 50.5399 82.8543C51.9022 82.8543 53.1985 82.0578 53.7707 80.7275L54.2194 79.6857H63.9267L64.4119 80.7715C65.2039 82.5449 67.2821 83.3395 69.0555 82.5485C70.8279 81.7566 71.6235 79.6774 70.8325 77.905L62.1341 58.4271ZM57.2452 72.6544L58.9828 68.616L60.7864 72.6544H57.2452Z" fill="#FBD43A"/>
<path d="M70.8316 77.904L62.1332 58.4271C61.5674 57.16 60.3094 56.3452 58.9233 56.3452C58.9151 56.3452 58.9078 56.3452 58.8995 56.3452C58.9233 56.3452 58.9828 68.616 58.9828 68.616L60.7864 72.6544H59.0808V79.6857H63.9267L64.411 80.7715C65.2029 82.5449 67.2821 83.3395 69.0555 82.5485C70.8279 81.7566 71.6235 79.6774 70.8316 77.904Z" fill="#FB8626"/>
<path d="M41.5256 56.2683C39.5847 56.2683 38.0099 57.8421 38.0099 59.7839V68.3661H30.6638V59.7839C30.6638 57.8421 29.09 56.2683 27.1481 56.2683C25.2072 56.2683 23.6325 57.8421 23.6325 59.7839V79.3378C23.6325 81.2796 25.2072 82.8534 27.1481 82.8534C29.09 82.8534 30.6638 81.2796 30.6638 79.3378V75.3973H38.0099V79.3378C38.0099 81.2796 39.5847 82.8534 41.5256 82.8534C43.4674 82.8534 45.0412 81.2796 45.0412 79.3378V59.7839C45.0412 57.8421 43.4674 56.2683 41.5256 56.2683Z" fill="#FBD43A"/>
<path d="M91.4347 56.1237C89.4938 56.1237 87.9191 57.6975 87.9191 59.6393V69.1736L78.7235 57.4677C77.7979 56.2894 76.2269 55.8271 74.8096 56.3169C73.3933 56.8067 72.443 58.1406 72.443 59.6393V79.3396C72.443 81.2815 74.0177 82.8552 75.9586 82.8552C77.9005 82.8552 79.4742 81.2815 79.4742 79.3396V69.8053L88.6707 81.5112C89.35 82.3764 90.3773 82.8552 91.4356 82.8552C91.8192 82.8552 92.2074 82.7921 92.5837 82.6621C94.0009 82.1723 94.9503 80.8383 94.9503 79.3396V59.6393C94.9503 57.6975 93.3765 56.1237 91.4347 56.1237Z" fill="#FB8626"/>
<path d="M119.577 77.7374L114.133 65.3027L117.95 62.6505C119.543 61.5427 119.939 59.3546 118.834 57.7606C117.729 56.1667 115.54 55.7693 113.945 56.8716L107.747 61.1563C107.642 61.2286 107.543 61.3055 107.449 61.387L105.062 63.045V59.6823C105.062 57.7405 103.488 56.1667 101.547 56.1667C99.6048 56.1667 98.031 57.7405 98.031 59.6823V79.2361C98.031 81.1761 99.603 82.7499 101.543 82.7518H101.547C103.486 82.7518 105.059 81.1816 105.062 79.2435L105.078 71.597L108.248 69.3933L113.135 80.5573C113.914 82.3352 115.987 83.1464 117.766 82.3682C119.545 81.5891 120.355 79.5163 119.577 77.7374Z" fill="#FB8626"/>
<path d="M45.7398 92.5754C44.1852 91.4108 41.9824 91.7267 40.8179 93.2803L36.059 99.6286L31.301 93.2803C30.1364 91.7267 27.9328 91.4108 26.3791 92.5754C24.8255 93.7399 24.5096 95.9436 25.6741 97.4973L32.5434 106.662V115.06C32.5434 117.002 34.1171 118.575 36.059 118.575C38.0008 118.575 39.5746 117.002 39.5746 115.06V106.663L46.4438 97.4973C47.6084 95.9436 47.2934 93.7399 45.7398 92.5754Z" fill="#FBD43A"/>
<path d="M59.4122 91.7285C56.4267 91.7056 53.5291 92.8582 51.4655 94.9026C49.5081 96.8426 48.4296 99.3997 48.4296 102.103V108.235C48.4296 113.975 53.3276 118.69 59.3472 118.746H59.4507C62.4014 118.746 65.2551 117.592 67.2949 115.571C69.2523 113.632 70.3299 111.074 70.3299 108.37V102.24C70.3308 96.4993 65.4327 91.7834 59.4122 91.7285ZM63.2996 108.37C63.2996 109.413 62.7814 110.145 62.3465 110.576C61.615 111.301 60.5621 111.714 59.4525 111.714C59.4388 111.714 59.426 111.714 59.4122 111.714C57.2333 111.694 55.4608 110.133 55.4608 108.235V102.103C55.4608 101.06 55.979 100.328 56.4139 99.8977C57.1454 99.1726 58.1982 98.7588 59.3069 98.7588C59.3207 98.7588 59.3344 98.7588 59.3481 98.7597C61.5271 98.779 63.2996 100.341 63.2996 102.24V108.37Z" fill="#FBD43A"/>
<path d="M59.4122 91.7285L59.3069 98.7589C59.3206 98.7589 59.3344 98.7589 59.3481 98.7598C61.527 98.779 63.2995 100.341 63.2995 102.24V108.37C63.2995 109.413 62.7813 110.145 62.3464 110.576C61.6149 111.301 60.5621 111.714 59.4525 111.714C59.4387 111.714 59.4259 111.714 59.4122 111.714L59.3481 118.746H59.4506C62.4014 118.746 65.256 117.592 67.2949 115.571C69.2523 113.632 70.3298 111.075 70.3308 108.37V102.24C70.3308 96.4993 65.4327 91.7834 59.4122 91.7285Z" fill="#FB8626"/>
<path d="M91.9812 91.7706C90.0394 91.7706 88.4656 93.3453 88.4656 95.2863V108.37C88.4656 109.413 87.9474 110.145 87.5125 110.576C86.7718 111.31 85.7034 111.717 84.5782 111.714C82.3993 111.694 80.6268 110.133 80.6268 108.235V95.1508C80.6268 93.2089 79.053 91.6351 77.1112 91.6351C75.1703 91.6351 73.5956 93.2089 73.5956 95.1508V108.235C73.5956 113.975 78.4937 118.691 84.5142 118.746H84.6176C87.5674 118.746 90.4221 117.592 92.4618 115.571C94.4183 113.632 95.4968 111.075 95.4968 108.371V95.2872C95.4968 93.3453 93.923 91.7706 91.9812 91.7706Z" fill="#FB8626"/>
<path d="M62.7219 40.5441C62.7219 34.8862 58.1021 30.2994 52.402 30.2994C46.702 30.2994 42.0822 34.8862 42.0822 40.5441C42.0822 46.203 46.702 50.7898 52.402 50.7898C58.1021 50.7898 62.7219 46.203 62.7219 40.5441Z" fill="#F07A97"/>
<path d="M62.7219 40.5441C62.7219 46.203 58.1022 50.7898 52.4021 50.7898V30.2994C58.1013 30.2994 62.7219 34.8862 62.7219 40.5441Z" fill="#E6486D"/>
<path d="M18.0753 56.152H3.78021C1.83929 56.152 0.264587 57.7258 0.264587 59.6677C0.264587 61.6086 1.83929 63.1833 3.78021 63.1833H7.41211V79.3378C7.41211 81.2796 8.9859 82.8534 10.9277 82.8534C12.8696 82.8534 14.4434 81.2796 14.4434 79.3378V63.1833H18.0753C20.0171 63.1833 21.5909 61.6086 21.5909 59.6677C21.5909 57.7258 20.0171 56.152 18.0753 56.152Z" fill="#FBD43A"/>
</svg>
