<svg xmlns="http://www.w3.org/2000/svg" viewBox="0 0 669.59 371.49"><defs><style>.cls-1{isolation:isolate;}.cls-2{fill:#fffef3;}.cls-3{fill:#ff983b;}.cls-4{fill:#ffd345;}.cls-5{fill:#bcb53c;}.cls-6{fill:#afac35;}.cls-7{fill:#c6c646;}.cls-8{fill:#ffe75a;}.cls-9{fill:#fff27b;}.cls-10{fill:#372e44;}.cls-11{fill:#4f455e;}.cls-12{fill:#ff9f50;}.cls-13{fill:#ffb95c;}.cls-14{fill:#ff8040;}.cls-15{fill:#ffeac5;}.cls-16{fill:#ffd58a;}.cls-17{fill:#b24a3f;}.cls-18{fill:#993730;}.cls-19{fill:#bf5b4b;}.cls-20{fill:#542f29;}.cls-21{fill:#472622;}.cls-22{fill:#ffd685;}.cls-23{fill:#b23841;opacity:0.5;mix-blend-mode:multiply;}.cls-24{fill:#ffdfab;}.cls-25{fill:#513229;}.cls-26{fill:#513830;}.cls-27{fill:#d1756b;}.cls-28{fill:#684436;}.cls-29{fill:#351e19;}.cls-30{fill:#d6ae85;}.cls-31{fill:#a56b55;}.cls-32{fill:#ba8867;}.cls-33{fill:#f7d5b7;}.cls-34{fill:#c69a71;}.cls-35{fill:#513935;}.cls-36{fill:#7f5752;}.cls-37{fill:#382927;}.cls-38{fill:#644;}.cls-39{fill:#e27a34;}.cls-40{fill:#c6422c;}.cls-41{fill:#ffd16c;}.cls-42{fill:#ffb852;}.cls-43{fill:#fff2d2;}.cls-44{fill:#ffe18d;}.cls-45{fill:#ffcf7b;}.cls-46{fill:#6b4a43;}.cls-47{fill:#4f322d;}.cls-48{fill:#35201d;}.cls-49{fill:#f45e4e;}.cls-50{fill:#bf6767;}.cls-51{fill:#fffbf6;opacity:0.7;mix-blend-mode:overlay;}.cls-52{fill:#704940;}.cls-53{fill:#5b332d;}.cls-54,.cls-56{fill:#ef4b4b;}.cls-55{fill:#dd3636;}.cls-56{opacity:0.4;}.cls-57{fill:#ff988a;}.cls-58{fill:#ff4a69;}.cls-59{fill:#dd3c5e;}.cls-60{fill:#ff8a93;}</style></defs><g class="cls-1"><g id="Layer_2" data-name="Layer 2"><g id="_1" data-name="1"><path class="cls-2" d="M212,371.49H11.09l3.51-9a16.63,16.63,0,0,1,10.1-9.64l.09-.22-5-137.7L0,215.86V202.13L78.67,107l37.79-2.51.08-.09.09.08,1.93-.13.12,1.84.07.06-.13-1.9,34.3-2.28.26,3.34L153,102l111.6-7.41.88-3.23,2.92,1.71c3.67-44.44,27-60.24,34.5-64.21C311.07,16.76,324,8.39,341.29,4a87.46,87.46,0,0,1,29.25-2.75A43.5,43.5,0,0,1,380.89,0C397.74,0,422,10.14,441.61,58.46c5.3,13,17.83,45,27.15,78.48l1-1a44.26,44.26,0,0,1,6.82-5.32c-9.31-20.75-10.86-42.24-10.93-43.21L465.49,85l1.81-1.63a7.64,7.64,0,0,1,5.28-1.83c9.84,0,38,16.42,55.43,27.25l2.8-8,11.4,8.36,3.23.07,9.59-6.57,3.12,6.22,9.53-5.14,1.85,4.94C588,95.13,610.54,80,619.25,80a7.56,7.56,0,0,1,4.22,1.18l2.08,1.36.17,2.47c.07,1,1.49,23.21-5.64,46.08a175.53,175.53,0,0,1,30.21,31.32l4.65,6.49-2.45.42,2.16,1.25-2.95,5,.25.25-.46.09-2.2,3.77-4.2-2.43-5.82,1.22,4.75,4.94-4.78,3.35a165.15,165.15,0,0,1-19.91,11.45l17,16L618.2,210a43.5,43.5,0,0,0-14.07-.82l11.59,19.51-16.53-9.5a21.51,21.51,0,0,0-12.31-2.77c-.08.32-.15.65-.23,1s-.13.58-.2.87q-.18.81-.33,1.65l-.16.81c-.11.63-.22,1.26-.32,1.9l-.11.68c-.11.76-.21,1.52-.31,2.29l-.05.39a150.23,150.23,0,0,0-.92,18.75v.37c0,.38,0,.76,0,1.14v0a18.55,18.55,0,0,1,3.64-6,13.37,13.37,0,0,1,10.19-4.79c8.45,0,16,7.75,19.27,11.64h.08l1.08.19h0c.59.11,1.18.24,1.77.38,3.66-5.19,10.07-12.28,17.83-12.28a13,13,0,0,1,8.77,3.53,15.91,15.91,0,0,1,5.62,11.58c.14,5.66-2.71,10.72-5.56,14.33a49.11,49.11,0,0,1,8,14.93,39.37,39.37,0,0,1,1.45,6,19.91,19.91,0,0,1-.6,14.47,14.63,14.63,0,0,1,2.68,5.28,20,20,0,0,1-.39,11.87h0l.11.13c.14.17.28.34.41.52.27.35.53.71.79,1.08s.34.5.5.74l.07.1c.1.15.2.3.29.45l1.54,2.44-.08.14c3.06,6,6.7,17.25,1.74,32a7.87,7.87,0,0,1,5.43,3.91,6.87,6.87,0,0,1-.71,7.07l-1.5,2h-80l-.31-.47-1.39-.1H452.86l-.76-.36H370.8l.3,3.81H211.7Zm-180.07-10H197.32l-.27-.69H360.28L360,357h94.48l.71.36,130.56,0c1,.1,2.22.16,3.5.18l2.7,0,.21.33H651.4l.27-.56c.21-.42.41-.85.61-1.27l.32-.72c6.63-15.15,1.66-25.79-.78-29.67l-.23-.34c-.14-.23-.25-.39-.36-.55s-.34-.48-.52-.71l-.23-.29-.11-.13-.3-.36-.33-.38-1.37-1.44-.24-1.54c-.1-.64-.23-1.3-.38-2l-.55-2.62,1.6-1.64a10.09,10.09,0,0,0-.22-6.32,2.73,2.73,0,0,0-1.93-1.77L626.39,300,646.75,296a10.07,10.07,0,0,0,.69-2.82l-.83-5.36a29.27,29.27,0,0,0-1.14-4.85,38.51,38.51,0,0,0-8.77-14.67l-3.41-3.55,3.5-3.47c2.83-2.79,5.83-7,5.74-10.48a5.79,5.79,0,0,0-2.29-4.38,3,3,0,0,0-2.1-1c-2.83,0-7.72,4.59-11.37,10.68l-2.07,3.45-3.82-1.29a32.61,32.61,0,0,0-4.07-1.09l-.12,0-.63-.11H616l-3.23.66-1.88-2.7a35.39,35.39,0,0,0-7.19-7.14V263.6l2.52,1.54-2.38,4.21c-.24.42-.47.85-.7,1.29l-.24.47-.26.53c-.13.28-.26.55-.38.82s-.23.51-.33.76-.22.53-.33.8-.19.51-.29.78-.19.53-.27.79-.18.53-.26.8-.15.52-.22.78l-.21.82c-.06.25-.11.51-.17.78s-.1.52-.15.8-.08.51-.12.77-.07.52-.1.78l-.06.78V282l0,.65c0,.21,0,.43,0,.65v.24c0,.21,0,.42,0,.63s0,.42,0,.64l0,.3c0,.17,0,.35.05.52s.07.42.1.62l.06.35.25,1.7L599,290.52l-5.91,10.62-3.27-11.71c-3.35-12-7.77-22.2-13.14-30.4l-.68-1-.16-1.65a50.26,50.26,0,0,0-1.37-8.11l-.17-.6V247c0-.62,0-1.23,0-1.85v-.36a158.56,158.56,0,0,1,1-20l.06-.44c.11-.86.22-1.7.34-2.53l.12-.76c.12-.72.23-1.43.36-2.13l.18-.92c.12-.63.25-1.26.38-1.88.07-.34.15-.68.23-1,.13-.57.27-1.14.41-1.7.1-.36.19-.7.28-1,.15-.54.3-1.07.46-1.59l1-3.17L582,207a33.87,33.87,0,0,1,8.91-.56l-2.59-4.36,6.69-1.53A64.27,64.27,0,0,1,605.55,199l-3.84-3.61,6.79-3.08a194.46,194.46,0,0,0,20-10.55l-9-9.36L631,170l-12-5.11,6.74-1.16-9.23-9.23,18.84,7.59,1.75-.3a166.32,166.32,0,0,0-25.88-25l-2.9-2.2,1.2-3.43c5.53-15.79,6.35-32.11,6.37-40.25-7,2.91-22.3,12.3-43.08,27.69l-1.39,1-1.74,0c-.89,0-1.79,0-2.69,0l-4,.08-.66-1.76-3,1.65-1.33,0-2.74-.07-3-.09-1-2.05-2.81,1.93-1.63,0c-2.14-.06-4.27-.11-6.32-.13l-1.6,0-3.07-2.25L535,119l-3.36.18c-1.31.06-2.39.16-3.22.27l-1.81.26-1.55-1c-21.57-13.48-40.29-23.54-48.83-26.39,1.13,8.15,4.1,23.83,11.23,38l2.15,4.26-4.14,2.35c-.87.49-1.68,1-2.46,1.45l19.18,8.42L486,149.69c-.09,0-8.31,1.47-16.26,3.18l1.22.53a100.08,100.08,0,0,0,10.42,4L493.11,161l-25.82,13.36-1.31-6.5c-.58-2.86-1.21-5.79-1.88-8.71l-1.1-4.75h0l-1.2-4.69c-9.28-36.41-23.69-73.27-29.45-87.44C418.45,28.06,400.65,10,380.89,10a33.33,33.33,0,0,0-4.22.27l.2,1.73-6.22-.67c-8.09-.89-17.14-.08-26.91,2.39-15.3,3.86-26.48,11.18-33.23,21.74l-.78,1.22-1.31.62c-4.88,2.28-29.31,16.14-30.5,64.39l-.21,8.46-9.79-5.72L83.63,116.66,10.29,205.38l19.09-.88,5.48,150Zm566.21-116a3.34,3.34,0,0,0-2.69,1.41c-2.17,2.46-2.19,4.3-2,5.48.35,2.35,2.1,4.82,4.31,6.93l5.92-11.45C601.72,246.45,599.75,245.46,598.11,245.46ZM454.73,272.93l-5.45-39.25,5.19-.5c3.73-.36,15.1-1.45,15.69-27.72l0-1c0-2.32,0-4.85-.19-7.51l-.43-7.81,7.27,2.88c3.79,1.51,7.63,2.94,11.41,4.26l13.91,4.85-12.11,4c.94.42,1.9.87,2.87,1.36l4.82,2.45-2.81,4.61a210.89,210.89,0,0,0-19.78,42.74L472.59,264l-5.74-5.8a11.91,11.91,0,0,0-3.06-2.42,3.51,3.51,0,0,0-.23.37l-.07.12c-.49.81-1,1.71-1.53,2.75Zm8.74-27.29a10.51,10.51,0,0,1,4.43,1c2-5.55,4.21-10.74,6.39-15.51a23.28,23.28,0,0,1-13.74,11l.53,3.82A8.76,8.76,0,0,1,463.47,245.64Zm16.33-33.73a54.23,54.23,0,0,1-3,14c2.33-4.76,4.62-9,6.73-12.7C482.19,212.69,481,212.26,479.8,211.91Z"/><polygon class="cls-3" points="269.86 102.78 240.39 127.64 331.94 184.07 391.65 177.84 269.86 102.78"/><polygon class="cls-4" points="268.55 99.01 267.07 104.45 391.65 177.84 391.43 170.79 268.55 99.01"/><polygon class="cls-5" points="30.27 365.8 180.84 365.8 179.8 179.09 24.04 195.27 30.27 365.8"/><polygon class="cls-6" points="26.55 263.92 180.53 309.69 179.8 179.09 24.04 195.27 26.55 263.92"/><polygon class="cls-7" points="365.69 365.8 180.84 365.8 176.69 171.62 262.88 113.11 349.86 164.74 365.69 365.8"/><polygon class="cls-6" points="201.09 188.56 204.27 365.8 204.75 181.65 201.09 188.56"/><polygon class="cls-6" points="232.77 152.13 235.94 329.37 236.43 145.23 232.77 152.13"/><polygon class="cls-6" points="264.63 125.8 267.81 303.04 268.3 118.89 264.63 125.8"/><polygon class="cls-6" points="295.55 142.12 298.73 319.36 299.21 135.21 295.55 142.12"/><polygon class="cls-6" points="327.52 165.97 330.7 343.21 331.19 159.06 327.52 165.97"/><polygon class="cls-6" points="167.05 241.91 264.97 129.56 351.9 192.32 349.86 164.74 258.17 110.09 161.81 195.46 167.05 241.91"/><path class="cls-8" d="M284.14,191.16c-66.24-3.79-81.65,110-79.87,174.64H347.15C347.71,312.83,342.42,194.48,284.14,191.16Z"/><polygon class="cls-4" points="5 210.62 186.38 202.32 268.77 106.06 268.77 99.37 5 203.93 5 210.62"/><polygon class="cls-8" points="5 203.93 186.38 195.63 268.77 99.37 81.15 111.81 5 203.93"/><polygon class="cls-9" points="219.59 153.82 268.77 99.37 81.15 111.81 219.59 153.82"/><path class="cls-10" d="M283.31,197.31c-59.8-3.65-73.71,106.09-72.1,168.49h129C340.71,314.69,335.94,200.52,283.31,197.31Z"/><path class="cls-11" d="M283.31,197.31a47.12,47.12,0,0,0-5.7,0c52.57,3.29,57.34,117.4,56.83,168.49h5.76C340.71,314.69,335.94,200.52,283.31,197.31Z"/><path class="cls-10" d="M278.88,197.27c-.38,0-.76,0-1.13.06,22,1.46,34.13,23.56,42.47,51.17,1.88-.18,5.29-1.5,7.13-1.62q-1.53-5-3.32-9.76c0-.12-.09-.23-.13-.35q-.88-2.28-1.81-4.47l-.09-.2q-1.87-4.4-4-8.36l-.24-.44q-1-1.91-2.13-3.69c-.07-.11-.15-.22-.22-.34a66.63,66.63,0,0,0-4.75-6.7l-.36-.45c-.81-1-1.64-1.92-2.5-2.81l-.36-.37c-.87-.9-1.77-1.76-2.68-2.57l0,0c-.92-.8-1.86-1.54-2.83-2.24l-.5-.37c-.94-.66-1.9-1.28-2.88-1.85l-.51-.28a34.63,34.63,0,0,0-3.11-1.55l-.05,0c-1.07-.45-2.17-.84-3.28-1.19l-.62-.19c-1.09-.32-2.2-.58-3.33-.8l-.65-.1a33.2,33.2,0,0,0-3.64-.43c-1.05-.07-2.08-.08-3.1-.08C279.76,197.23,279.32,197.26,278.88,197.27Z"/><path class="cls-4" d="M100.71,289.61a47.17,47.17,0,0,0,1.93-13.49c0-17.86-9.37-32.33-20.94-32.33s-21,14.47-21,32.33a47.17,47.17,0,0,0,1.93,13.49Z"/><path class="cls-10" d="M99.05,288.15a48.49,48.49,0,0,0,1.5-12.08c0-16-7.27-28.93-16.24-28.93s-16.23,12.95-16.23,28.93a48.49,48.49,0,0,0,1.5,12.08Z"/><polygon class="cls-4" points="150.82 200.48 154.56 200.48 234.6 102.78 150.82 200.48"/><polygon class="cls-4" points="109.73 203.1 113.47 203.1 193.51 105.39 109.73 203.1"/><polygon class="cls-4" points="70.23 203.86 73.97 203.86 154.01 106.15 70.23 203.86"/><polygon class="cls-4" points="36.55 205.33 40.29 205.33 120.33 107.62 36.55 205.33"/><path class="cls-12" d="M594.44,362.45c-13.08.68-23.51-1.26-19.56-12.53,5.8-16.54,21.27,7.1,21.27,7.1Z"/><path class="cls-13" d="M591.67,243.56c-8.82,10,2,20,8.33,23.64l15.15-14.81C614.15,250.72,600.5,233.57,591.67,243.56Z"/><path class="cls-14" d="M594.3,246.25c-6.37,7.21,1.45,14.43,6,17.07,2.85-5.31,5.5-8.72,10.94-10.7C610.54,251.42,600.68,239,594.3,246.25Z"/><path class="cls-13" d="M643.58,242.66c9.14,8.2.31,19.31-5.17,23.88l-16.8-11.45C622.39,253.26,633.84,233.92,643.58,242.66Z"/><path class="cls-14" d="M642.38,246c6.72,5.92.27,14-3.73,17.32L626.59,255C627.16,253.66,635.35,239.8,642.38,246Z"/><path class="cls-12" d="M650.85,360.21l-3.52,2.72h16.86S668.21,357.55,650.85,360.21Z"/><path class="cls-13" d="M645.09,315.43c-23.28,7.17-26.56,39.58-25.35,47.5h34.62C670.65,335,652.22,313.23,645.09,315.43Z"/><path class="cls-12" d="M653.33,339.46c0-7.18,1.1-13.4,2.72-16.42-3.52-5.57-8.13-8.48-11-7.61-23.28,7.17-26.56,39.58-25.35,47.5h34.62a53.92,53.92,0,0,0,2.83-5.55C655,355.55,653.33,348.23,653.33,339.46Z"/><path class="cls-12" d="M596.83,362.93c-5.66-10.32-22-50.61,3.33-83.24s53.28,25.64,53.28,43.62-7.31,39.62-23.31,39.62Z"/><path class="cls-15" d="M647.94,309.05c-5.82-22.48-32.63-20.31-37.62-15.49-17.38,16.8-3.17,54.28,1.18,69.37h19C648.6,355.22,653.77,331.52,647.94,309.05Z"/><path class="cls-16" d="M611,336.05c6.41-16.45,19.74-26.62,29.76-22.71,5.07,2,8.32,7.18,9.47,14a69.21,69.21,0,0,0-2.27-18.26c-5.82-22.48-32.63-20.31-37.62-15.49-13.6,13.15-7.85,38.95-2.63,56.79A49.11,49.11,0,0,1,611,336.05Z"/><path class="cls-13" d="M646.82,300.56l-5,24.76,1.35,0s7.41-6.18,9.51-8.44S656.08,301.89,646.82,300.56Z"/><path class="cls-17" d="M650.69,336.71c-5.8-10.78-14.34-15.78-20.88-13s-7.13,13.85-1.32,24.63,15,15.3,22.34,14.41C655.19,358,656.5,347.49,650.69,336.71Z"/><path class="cls-18" d="M650.33,337.58c-2.26-4-3.92-7.21-6.78-9.86-2.47-3-9.46-2.57-11.31-1.3-9.64,6.56,9.91,30.63,18.76,36.23C655.22,358.37,656.52,348.58,650.33,337.58Z"/><path class="cls-19" d="M650.69,336.71A34.24,34.24,0,0,0,644,327.8a7.88,7.88,0,0,0-5.91.81c-8.88,6,4.27,27.83,12.86,34C655.22,357.83,656.44,347.39,650.69,336.71Z"/><path class="cls-20" d="M624.55,339.43c-2.12.26-6.32-10.32,2.89-16.32s17.76.45,15.09,2.56c-1.37,1.09-5.25-1-11.76,4.11S625.89,339.27,624.55,339.43Z"/><path class="cls-21" d="M635.9,325.2c-5.82.61-10.6,1.85-11,0-5.82,6.07-2.27,14.48-.38,14.25,1.34-.16-.44-4.44,6.22-9.65s10.39-3,11.76-4.11a1.21,1.21,0,0,0,.49-1.08C641.15,324.82,638.66,324.91,635.9,325.2Z"/><path class="cls-20" d="M628.9,318.11l-1.79-1.87c-2.31,1.65-3,4.73.44,8.47l.57-.31S625,319.9,628.9,318.11Z"/><path class="cls-13" d="M601.25,298l25.69,25.31-1.32,1s-16.11-3.78-26.3-1.88l-7.67-10.86S595.06,294.89,601.25,298Z"/><path class="cls-12" d="M595.66,312c1.71-4.47,9.05-5.38,17.31-2.39L601.25,298c-7.42-6.35-11.3,12.84-11.3,12.84l9.37,11.56h.11C596.09,318.77,594.54,314.89,595.66,312Z"/><path class="cls-22" d="M590.29,315c-19.55,7.24-6.22,40-.89,47.95h34.85C626,334.74,596.28,312.77,590.29,315Z"/><path class="cls-13" d="M596.93,353c-8.46-14.29-10.45-28.76-4.43-32.33s17.74,5.15,26.21,19.44c.74,1.25,1.42,2.5,2.06,3.74C613,325.52,594.83,313.3,590.29,315c-19.55,7.24-6.22,40-.89,47.95h14.72A67.54,67.54,0,0,1,596.93,353Z"/><path class="cls-23" d="M634.12,298.17s12,8.45,17,4.34a8.07,8.07,0,0,0-4-1.87c-9.69-21.51-29-44.09-46.93-20.95a64.4,64.4,0,0,0-8.87,15.39C599.28,314,630.34,309.37,634.12,298.17Z"/><path class="cls-22" d="M633.79,295.78c-4.66,3.56-19.09,19.54-34.18,1.34s8.43-46.4,17.09-45.07a43.69,43.69,0,0,1,33.52,29.3c2.25,6.76,2.52,16.32,0,18.43C645.31,303.89,633.79,295.78,633.79,295.78Z"/><path class="cls-13" d="M636.79,295.78c-.38.29-.82.66-1.32,1.09,2.8,1.7,8.49,4.73,12.5,3.94C642.79,300,636.79,295.78,636.79,295.78Z"/><path class="cls-13" d="M602.6,297.12c-14-16.9,5.26-42.4,15-44.91l-.92-.16c-8.66-1.33-32.19,26.86-17.09,45.07,5.84,7,11.58,9,16.69,8.47C612,305.16,607.33,302.81,602.6,297.12Z"/><path class="cls-13" d="M635.79,288.57c-3.61,2.36-11.84,4.22-16.31,4.22-13.31,0-20.47-9.58-20.8-24.47-4.66,9-6.33,20,.93,28.8,15.09,18.2,29.52,2.22,34.18-1.34,0,0,11.52,8.11,16.43,4,1-.87,3.66-6.66,1.34-12.77C647,291.33,644.34,290.23,635.79,288.57Z"/><path class="cls-13" d="M610.09,362.93H632C635.83,357.24,619.42,354.92,610.09,362.93Z"/><path class="cls-22" d="M615.54,362.93H632C634.9,358.65,622.56,356.91,615.54,362.93Z"/><path class="cls-15" d="M640.3,290.53c5.46,2.14,10.21.66,9.89-3.67s-5.86-12.78-11.43-14c-4.87-1.07-7.9,4.64-7.48,8.17S635.5,288.64,640.3,290.53Z"/><path class="cls-24" d="M642.78,284.85c-4.62-3.38-7.18-8-5.16-10.73a3.91,3.91,0,0,1,1.42-1.19l-.28-.07c-4.87-1.07-7.9,4.64-7.48,8.17s4.22,7.61,9,9.5,9.18.93,9.82-2.4C647.77,288.13,645.38,286.75,642.78,284.85Z"/><path class="cls-15" d="M630.65,291.27c3.59-1.78,6.93-3.15,8.14-5.59,1.35-2.74.2-6.58-2.43-8.64-5.08-4-15.5-2.83-22.24,2-5.9,4.2-6.7,9.71-2.49,12.7S623.94,294.59,630.65,291.27Z"/><path class="cls-24" d="M636.36,277c-14-11-5.15,1.07-5.23,4.23-.15,5.52-6.09,11.85-13.88,11.85a19.54,19.54,0,0,1-3.64-.35c4.44,1.8,11.27,1.36,17-1.5,3.59-1.78,6.93-3.15,8.14-5.59C640.14,282.94,639,279.1,636.36,277Z"/><path class="cls-25" d="M636.91,281.08l-.31.31a24.17,24.17,0,0,1-1.7,7.78l1.31-.27S637.4,283.47,636.91,281.08Z"/><path class="cls-25" d="M630,291.57s7.45-3.65,9.67-1a3.16,3.16,0,0,0-3.14-2.5C633.91,288,630,291.57,630,291.57Z"/><path class="cls-15" d="M638,263.37c-4.36-3.66-15.81-8.7-18.15-6.84s7.31,11.84,12,15.53c4.52,3.57,9.65,4.75,11.55,2.8S642.22,266.91,638,263.37Z"/><path class="cls-15" d="M629.3,272.2c1.33-6-4-15.37-9-15.91s-10.1,3.83-11.44,9.79,1.62,11.23,6.6,11.78S628,278.15,629.3,272.2Z"/><path class="cls-26" d="M619.45,270.88a1.23,1.23,0,0,0-1.23-1.12,1.08,1.08,0,0,0-.79,1.36,1.25,1.25,0,0,0,1.24,1.12A1.07,1.07,0,0,0,619.45,270.88Z"/><path class="cls-15" d="M622,260.44c2.14,13.54,5.66,15.26,7.85,17l11.48-1.22S619.81,246.9,622,260.44Z"/><path class="cls-24" d="M624.47,268.26c-1,1,4.3,7.84,5.11,9.1l5.5-1.8C629.51,274.66,624.47,268.26,624.47,268.26Z"/><path class="cls-25" d="M629.28,276.1c-.8,1.77,4.53,6.53,7.32,6.53,1.11,0,6-5.19,5.46-6.53S630.12,274.27,629.28,276.1Z"/><path class="cls-13" d="M642.83,325.62a1.78,1.78,0,0,0,.92-2.12,6,6,0,0,0-1.92-2.39,1.28,1.28,0,0,0-1.18.22Z"/><path class="cls-13" d="M629.82,321.66a1.75,1.75,0,0,0-2.22-.72c-.48.17-2.18,1.71-2.23,2.22a1.31,1.31,0,0,0,.33,1.18Z"/><path class="cls-13" d="M628.3,322.05c.81.32,2.9,1.62,3.32,1.25.83-.74-1.63-2-2.46-2.19S628.3,322.05,628.3,322.05Z"/><path class="cls-13" d="M641.83,321.11c-.84-.12-3.06-.89-3.4-.44-.68.9,1.89,1.58,2.72,1.54S641.83,321.11,641.83,321.11Z"/><path class="cls-13" d="M642.07,322.67c-.81.31-3.16.72-3.24,1.28-.18,1.1,2.43.43,3.14,0S642.07,322.67,642.07,322.67Z"/><path class="cls-13" d="M627,322.69c.69.54,2.33,2.38,2.84,2.15,1-.46-1-2.4-1.74-2.79S627,322.69,627,322.69Z"/><path class="cls-13" d="M642.9,324.14c-.68.53-2.83,1.63-2.75,2.18.16,1.08,2.48-.33,3-.95S642.9,324.14,642.9,324.14Z"/><path class="cls-13" d="M625.16,323.89c.7.55,2.33,2.38,2.83,2.15,1-.45-1-2.39-1.72-2.78S625.16,323.89,625.16,323.89Z"/><path class="cls-27" d="M650.12,337.51c-.36-.67-.74-1.3-1.11-1.92-2.3,3.47-3.46,8.59-2.85,14.12a22.47,22.47,0,0,0,4.44,11.45C654.33,356.59,655.32,347.16,650.12,337.51Z"/><path class="cls-24" d="M639.86,291c.21-1.27-2.45-1.84-5.51-1.3-2.66.48-4.52,1.63-4.48,2.59s1.86,1.49,4.31,1.28C637,293.37,639.66,292.23,639.86,291Z"/><path class="cls-25" d="M630.42,291.7c0-.34-.19-.61-.44-.61s-.43.27-.43.61.19.6.43.6S630.42,292,630.42,291.7Z"/><path class="cls-25" d="M640.08,290.39c0-.34-.2-.61-.44-.61s-.44.27-.44.61.2.6.44.6S640.08,290.72,640.08,290.39Z"/><path class="cls-28" d="M629.55,275.79c1.85,1,5.23,1.74,9.11,1.74a30.19,30.19,0,0,0,3.08-.16,1.85,1.85,0,0,0,.32-1.27C641.59,274.85,631.46,274.33,629.55,275.79Z"/><path class="cls-29" d="M635.54,281.27c-1.5-.25-6-4.06-3.4-3.81C637.21,278,635.54,281.27,635.54,281.27Z"/><path class="cls-29" d="M637.85,281c1-.26,3.9-3.57,2.41-3.15A3.27,3.27,0,0,0,637.85,281Z"/><path class="cls-27" d="M647.68,335.26a3.84,3.84,0,0,0-1.31-3c-1.15-.79-2.19.26-1.88,2.26.25,1.68,1.29,2.7,2.11,2.58C647.24,337,647.66,336.23,647.68,335.26Z"/><path class="cls-26" d="M636.34,270.44a1.24,1.24,0,0,0-1.29-1,.74.74,0,0,0-.51,1.13,1.26,1.26,0,0,0,1.1.77A.7.7,0,0,0,636.34,270.44Z"/><polygon class="cls-30" points="553.13 109.99 544.98 115.58 556.22 116.14 553.13 109.99"/><polygon class="cls-30" points="565.01 110.83 556.33 115.53 567.44 117.28 565.01 110.83"/><polygon class="cls-30" points="533.31 108.8 530.99 115.47 542 115.18 533.31 108.8"/><path class="cls-31" d="M473.46,205.29S491,207.48,503.31,220l-5.88-22.62Z"/><path class="cls-31" d="M586.25,208.6s16-7.49,33.09-3.48l-17-16Z"/><path class="cls-31" d="M578.8,213.11a27.17,27.17,0,0,1,22.89,1.74l-11-18.55Z"/><path class="cls-31" d="M602,362.36H557.43s12.22-123,23.17-106.46C606.52,295,602,362.36,602,362.36Z"/><path class="cls-32" d="M609.65,349.23c-6.39-1.4-10.39,3.7-11.92,8.16l1.48,5h12.2C616.13,358.15,616,350.63,609.65,349.23Z"/><path class="cls-32" d="M473.54,345.7c-27.82,9.56-49.11-6.52-48.24-26.51s11.73-79.54-15.21-80.41-28.25,70.84-6.52,102.14,64.32,15.21,73.45,10.43Z"/><path class="cls-31" d="M473.54,345.7c-27.82,9.56-49.11-6.52-48.24-26.51.52-12.07,4.67-38.52,2-57.8-.66,8-1.71,16.41-3.18,25.15-4,24-10.34,45-17,58.8,22.51,25.21,61.27,10.54,69.93,6Z"/><path class="cls-32" d="M470.93,362.36H597.84S563.65,234.87,588,201.26l-88.08-4S437.9,275.44,470.93,362.36Z"/><path class="cls-31" d="M579.83,268.21c.82,31.05,8.39,94.15,8.39,94.15H575.93S552.69,298,558.68,269C560.76,258.85,579.07,239.37,579.83,268.21Z"/><path class="cls-31" d="M579.25,244.78c-.15-18.45,2.15-34.42,8.74-43.52l-88.08-4s-62,78.23-29,165.15h47.48C462.47,189.64,567.67,208.85,579.25,244.78Z"/><path class="cls-30" d="M620.73,85.37s1.89,27.42-8.23,52l-44.21-21.62S614.31,81.16,620.73,85.37Z"/><path class="cls-33" d="M616.29,92s1.28,18.66-5.61,35.43l-30.09-14.72S611.91,89.15,616.29,92Z"/><path class="cls-30" d="M470.64,87.11s2,30.13,16.52,52.73l42.59-24S476.44,81.89,470.64,87.11Z"/><path class="cls-33" d="M476.81,94s1.62,24,13.15,42l33.91-19.15S481.43,89.87,476.81,94Z"/><path class="cls-30" d="M454.13,187.35s56.5,29.27,101.41,24.92,80.83-29.55,80.83-29.55l-7-7.24,12.46-2.61-5.8-5.8,10.15-1.74s-37.11-51.81-79.39-50.7c-11,.29-37.09-1.74-41.73.58s-39.69,12.46-51.86,24.34l11.88,5.21s-22.89,4.06-29.84,6.67c0,0,14.19,7.53,24.62,10.72L455.29,174.9l9.56,5.79Z"/><path class="cls-34" d="M636.16,167.15c-19.41,13.47-48.43-7.84-79.27-7.84-33.07,0-61.35,20.05-80.84,4.84L455.29,174.9l9.56,5.79-10.72,6.66s56.5,29.27,101.41,24.92,80.83-29.55,80.83-29.55l-7-7.24,12.46-2.61Z"/><path class="cls-35" d="M535.87,138.19c-.19-4.31-3-7.8-6.18-7.8s-5.7,3.49-5.52,7.8,3,7.8,6.19,7.8S536.05,142.49,535.87,138.19Z"/><path class="cls-35" d="M581.71,136.17c-1.24-4.39-4.88-7.95-8.13-7.95s-4.89,3.56-3.65,7.95,4.88,8,8.13,8S582.94,140.56,581.71,136.17Z"/><path class="cls-31" d="M553.8,179.32l-2.61,2.9s8.41,10.43,19.42-4.35C570.61,177.87,559.89,185.69,553.8,179.32Z"/><path class="cls-33" d="M518.45,170.26c5.49,6.82,21.38,14.13,31.87,4.64,12.17-11,6.37-20,6.37-20l-9-7.82S499.33,146.5,518.45,170.26Z"/><path class="cls-33" d="M600,167.24c-3.37,6.12-17.82,12.26-31.84,3.17C553,160.58,556,153.21,556,153.21l6.32-6.33S611.5,146.38,600,167.24Z"/><path class="cls-36" d="M558.27,158S544,147.64,547.13,145.29c2.93-2.2,17.54-.31,18.33,1.94S558.27,158,558.27,158Z"/><path class="cls-30" d="M513.41,258.77c6.63,34.16,13.48,103.59,13.48,103.59h13.8s10.42-70.78-3.38-102.79C532.52,248.46,507.24,227,513.41,258.77Z"/><path class="cls-30" d="M580.81,255.86c3.45,35.12,16.4,106.5,16.4,106.5h-12.3S556.2,289.6,559.72,256.69C560.94,245.27,577.6,223.24,580.81,255.86Z"/><path class="cls-32" d="M461.8,362.36h61.28S469.27,236.87,459.2,253.71C435.34,293.57,461.8,362.36,461.8,362.36Z"/><path class="cls-31" d="M452.74,279.52c14.67-4,33,21.07,49.28,56a160.26,160.26,0,0,1,9.85,26.84h11.21s-50-133.43-63.88-108.65a74.87,74.87,0,0,0-8.42,26.57A11.54,11.54,0,0,1,452.74,279.52Z"/><path class="cls-31" d="M461.33,361c.3.87.47,1.34.47,1.34h.27C461.82,361.92,461.58,361.47,461.33,361Z"/><path class="cls-30" d="M603.16,346.67c-7.87-1.67-12.71,4.42-14.52,9.75l1.9,5.94h15C611.28,357.33,611,348.35,603.16,346.67Z"/><path class="cls-30" d="M551,347.38c-8.52-1.6-12.06,4.21-12.66,9.31l3.37,5.67h15.47C561.85,357.56,559.47,349,551,347.38Z"/><path class="cls-30" d="M526.26,346c6.93-1.26,11,3.48,12.84,8.74L537,362.35H518.74A11.08,11.08,0,0,1,526.26,346Z"/><path class="cls-30" d="M461.14,348c14.25-1.09,32.3,14.32,32.3,14.32H454C441.92,356.65,446.08,349.2,461.14,348Z"/><path class="cls-30" d="M541,346.29c-8.22-1.49-18.59,3.7-12,16.07h17.48C552.3,357.21,550.48,348,541,346.29Z"/><path class="cls-34" d="M545.1,356c-.25,2.48-3.52,4.45-7.54,4.45-3,0-5.65-1.13-6.85-2.76a6.39,6.39,0,0,0,1.32,4.72h11.82C546.34,360.57,546.75,357.91,545.1,356Z"/><path class="cls-34" d="M558.08,356c-.29,2.48-4.14,4.45-8.85,4.45-3.57,0-7.93.09-6.49,2H557.5C560.42,360.57,560,357.91,558.08,356Z"/><path class="cls-35" d="M557.5,149.08A27.79,27.79,0,0,1,547,147.21C548.66,151,558.27,158,558.27,158s6.51-6.8,7.17-9.87A30.89,30.89,0,0,1,557.5,149.08Z"/><path class="cls-33" d="M469,175.88l-.3-.51c.28-.16,27.95-16.05,58.24-15.86l0,1.74h-.68C496.69,161.25,469.31,175.72,469,175.88Z"/><path class="cls-33" d="M488.91,190.75l-.6-.5c.74-.9,18.37-22,38.47-27.56l.47,1.68C507.67,169.77,489.09,190.53,488.91,190.75Z"/><path class="cls-33" d="M502.77,196.49l-.71-.24c.06-.16,5.74-16.25,25.69-26.72l.8,1.54C509.21,181.22,502.82,196.33,502.77,196.49Z"/><path class="cls-34" d="M538.72,157.77c0-.8-.41-1.45-.92-1.45s-.93.65-.93,1.45.42,1.45.93,1.45S538.72,158.57,538.72,157.77Z"/><path class="cls-34" d="M527.57,162.69c0-.8-.42-1.44-.93-1.44s-.92.64-.92,1.44.41,1.45.92,1.45S527.57,163.49,527.57,162.69Z"/><path class="cls-34" d="M538.87,169.07c0-.8-.42-1.45-.93-1.45s-.92.65-.92,1.45.41,1.45.92,1.45S538.87,169.87,538.87,169.07Z"/><path class="cls-34" d="M550.75,162.69c0-.79-.42-1.44-.93-1.44s-.92.65-.92,1.44.41,1.45.92,1.45S550.75,163.49,550.75,162.69Z"/><path class="cls-34" d="M575.66,156.32c0-.8-.41-1.45-.92-1.45s-.92.65-.92,1.45.41,1.45.92,1.45S575.66,157.12,575.66,156.32Z"/><path class="cls-34" d="M580,166.46c0-.8-.41-1.45-.92-1.45s-.93.65-.93,1.45.42,1.45.93,1.45S580,167.26,580,166.46Z"/><path class="cls-33" d="M647.49,172.91l.3-.51c-.28-.16-27.95-16-58.24-15.85l0,1.73h.68C619.84,158.28,647.22,172.75,647.49,172.91Z"/><path class="cls-33" d="M627.62,187.78l.6-.5c-.74-.9-18.37-22-38.47-27.55l-.47,1.67C608.86,166.8,627.44,187.57,627.62,187.78Z"/><path class="cls-33" d="M613.76,193.52l.71-.23c-.06-.17-5.74-16.26-25.68-26.73L588,168.1C607.32,178.25,613.71,193.37,613.76,193.52Z"/><path class="cls-34" d="M590.87,167c0-.8-.41-1.45-.92-1.45s-.92.65-.92,1.45.41,1.45.92,1.45S590.87,167.84,590.87,167Z"/><path class="cls-34" d="M591,156.32c0-.8-.41-1.45-.93-1.45s-.92.65-.92,1.45.41,1.45.92,1.45S591,157.12,591,156.32Z"/><path class="cls-32" d="M528.18,123.8a22.46,22.46,0,0,0-14.92,10.71s-3.26-7.61,3.25-11.3A10.49,10.49,0,0,1,528.18,123.8Z"/><path class="cls-32" d="M577.91,122.34a21.59,21.59,0,0,1,13.53,11.72s3.67-7.36-2.31-11.5A9.77,9.77,0,0,0,577.91,122.34Z"/><path class="cls-34" d="M560.53,146.05c-1.42-.08-2.6.29-2.62.81s1.09,1,2.51,1.09,2.6-.28,2.63-.8S562,146.14,560.53,146.05Z"/><path class="cls-37" d="M555.43,152.71c-1.67-2-4.78-4-4.12-2,.44,1.43,2.45,3.14,3.62,3.75.69.35,1.19.38,1.33.16S556.21,153.64,555.43,152.71Z"/><path class="cls-37" d="M560.88,153.79c2-1.68,4-4.79,2-4.13-1.42.44-3.14,2.45-3.74,3.62-.35.7-.38,1.19-.16,1.34S560,154.56,560.88,153.79Z"/><path class="cls-38" d="M522.08,362.31h5.57s-1.7-5.8-3.27-6.08S522.08,362.31,522.08,362.31Z"/><path class="cls-38" d="M535,362.31h5.57s-1.69-5.8-3.27-6.08S535,362.31,535,362.31Z"/><path class="cls-38" d="M547.26,362.31h5.57s-3.42-5.38-5.08-5.65S547.26,362.31,547.26,362.31Z"/><path class="cls-38" d="M611.28,362.31H606.9s2.4-5.78,3.69-6.07S611.28,362.31,611.28,362.31Z"/><path class="cls-38" d="M601.2,362.31h-5.5s3.38-5.38,5-5.65S601.2,362.31,601.2,362.31Z"/><path class="cls-39" d="M257.82,180.22C204.39,274,260.42,326.81,308,347l8.47-20.19C213.51,290.32,257.82,180.22,257.82,180.22Z"/><path class="cls-39" d="M302.12,223.87c10.36,24.78,41.69,4.56,37.13-16.94S294.3,68.16,307.33,32.32C307.33,32.32,233.38,59.53,302.12,223.87Z"/><path class="cls-40" d="M308.49,215.51c7.11,18.8,26.75,2.82,23.41-13.57s-36.71-123.39-29.07-151C302.83,50.9,261.37,90.8,308.49,215.51Z"/><path class="cls-39" d="M371.18,6.26c15-3.91,43-1.95,65.8,54.08s65.8,181.77,13,177.86S371.18,6.26,371.18,6.26Z"/><path class="cls-40" d="M384.44,29.94c12.08-3,34.48-.85,51.63,46.94S485.19,231.73,443,227.44,384.44,29.94,384.44,29.94Z"/><path class="cls-41" d="M454.57,266.22S456.5,183.86,420,142.16s-67.43-4.89-67.43-4.89-34.18,77.48-42,104.19-18.9,101-15,120.53H477.37S493.66,315.73,454.57,266.22Z"/><path class="cls-42" d="M454.57,266.22s3.91-88.61-32.57-130.31-71.67-5.86-71.67-5.86-31.92,84.7-39.74,111.41-18.9,101-15,120.53h64.32c-7.21-92.94,18.33-198.53,63.19-186,31.53,8.84,35.07,74.84,22.56,148.26a294.38,294.38,0,0,1-9,37.69h40.67S493.66,315.73,454.57,266.22Z"/><polygon class="cls-42" points="364.83 361.99 387.79 361.99 384.02 181.25 343.96 211.55 364.83 361.99"/><polygon class="cls-42" points="432.72 361.99 445.94 361.99 446.41 233.04 412.44 205.09 432.72 361.99"/><path class="cls-41" d="M323.62,362H263s-17.76-11.19-8.64-24.88,51.92-7.34,59.59-.48C323.27,344.94,323.62,362,323.62,362Z"/><path class="cls-41" d="M309.28,233.64c-19.54,7.82-29.31,82.09-28.66,107.5L289.74,362H336S328.83,225.82,309.28,233.64Z"/><path class="cls-42" d="M328.07,327.71A186,186,0,0,1,329.8,362h8.62s-9.78-139-29.32-131.22c-6.51,2.6-11.74,15.46-16.06,28.55C306.94,257.72,322.59,288.21,328.07,327.71Z"/><path class="cls-41" d="M517.75,329.67C464.1,323.18,448.36,362,448.36,362h71.45S532.23,331.43,517.75,329.67Z"/><path class="cls-42" d="M516.82,344.32c-20.23.89-36.86-3.86-37.15-10.6a.57.57,0,0,1,0-.13A76.16,76.16,0,0,0,444.61,362h75.2s3.88-9.56,4.77-18.29Q520.83,344.14,516.82,344.32Z"/><path class="cls-41" d="M437,100.08C426.55,43.4,404.41-6.77,342.51,8.87S295,89.33,313,127c8,6,23.94,12.21,25.58,34.57l93.16-2.81C416.78,128.75,437,100.08,437,100.08Z"/><path class="cls-42" d="M437,100.08c-10.12.55-34-27.13-60.69-22.91-18.33,2.89-54,51.06-63.09,49.91,8.37,5.46,23.47,17.16,24.84,36l95.33-3.64C420.56,133.79,433,106.68,437,100.08Z"/><path class="cls-39" d="M394.19,73.85s-5.54,11.93-17.53,16.05c-6,2.06-14.27.63-22.91-2.14,0,0,12.63,18.67,30.35,12.87S394.19,73.85,394.19,73.85Z"/><path class="cls-35" d="M364.56,116.26c4.41,5.45,22.39,17.45,31,10.75s18.42-21.62,12-37.13-29.16,6.93-29.16,6.93Z"/><path class="cls-43" d="M396.05,116.52c-6.71,4-18.46,2.47-28-.29l-.9,1.38c4.41,4.33,21.72,13.29,29.22,7A32.85,32.85,0,0,0,407,107.4,44.77,44.77,0,0,1,396.05,116.52Z"/><path class="cls-44" d="M356.52,73.21c-11.73,5.37-28.36,19.11-26.41,41.59,0,0,18.23,11.42,31.44,7.81,10.75-2.93,21.36-31.81,21.36-31.81Z"/><path class="cls-45" d="M375.87,86.11c-3.57,9.07-13.34,18.37-26.66,24.15a62,62,0,0,1-18.39,4.89c4.85,2.42,21.12,11.26,32.76,6.61,11.4-4.56,19.33-31,19.33-31Z"/><path class="cls-44" d="M379.69,64.36c11.72-5.39,32.23-2.56,47.41,15,0,0,1,31.12-12.65,29.72S379.6,90.32,379.6,90.32Z"/><path class="cls-45" d="M401,90.18a69.72,69.72,0,0,1-21.33-6.6l0,6.74s21.23,17.37,34.85,18.77c8.45.87,11.28-10.78,12.22-19.75A66.53,66.53,0,0,1,401,90.18Z"/><path class="cls-35" d="M393.31,40.21c-2.54-5.33-7.17-8.44-10.14-6.87s-3,6.67-.53,11.51,5.43,5.66,8.33,4.59S395.79,45.41,393.31,40.21Z"/><path class="cls-35" d="M334.85,66.43c-2.81-5.89-7.7-9.28-10.93-7.58s-3.56,7.87-.76,13.77,6.34,6.77,9.57,5.07S337.65,72.33,334.85,66.43Z"/><path class="cls-46" d="M382.16,90.3c-4,1.82-31.83-8.14-30.53-15.63S379.29,53.55,386.81,62C392.35,68.16,386.39,88.34,382.16,90.3Z"/><polygon class="cls-44" points="356.03 361.99 379 361.99 378.19 222.95 343.26 252.11 356.03 361.99"/><path class="cls-41" d="M378.05,236.6l.22,0,.54-32.26c-8.21-19.32-40.76-4.45-37.22,46.5,1,14.65,8.47,59.75,8.47,59.75C353.32,268.58,365.51,235.87,378.05,236.6Z"/><path class="cls-44" d="M472.16,362H446.73l-35-160.22c15.18,5.31,25.79,9.85,40.26,14.93Z"/><path class="cls-44" d="M371.67,362h31.76s-5.87-16.61-24.08-17.14C367.27,344.51,371.67,362,371.67,362Z"/><path class="cls-44" d="M347.33,362H379.1s-3-13.77-21.15-14.2C345.93,347.5,347.33,362,347.33,362Z"/><path class="cls-44" d="M487.24,362H456.67s2.91-13.77,20.35-14.2C488.59,347.5,487.24,362,487.24,362Z"/><path class="cls-44" d="M435.16,362h31.76s-3-13.77-21.15-14.2C433.75,347.5,435.16,362,435.16,362Z"/><path class="cls-41" d="M459.32,269.59,452,216.7c-10.29-49.78-45.8-42.94-40.26-14.93l5.8,26.51C429.44,227,445.74,243.62,459.32,269.59Z"/><path class="cls-47" d="M369.78,74.17a53.77,53.77,0,0,1-17.29,3.51c4.67,6.87,26.23,14.2,29.67,12.62,4-1.83,9.45-19.68,5.56-27C383.69,67.4,377.38,71.36,369.78,74.17Z"/><path class="cls-48" d="M374.12,86c1.31-.49-4.05-8.11-9.46-8.88s-6.2,1.91-4.25,3.67S372.58,86.58,374.12,86Z"/><path class="cls-48" d="M381.5,84.92c-1.24.71-3.49-8.44-.47-13.21s5.6-3.67,5.64-1S383,84.07,381.5,84.92Z"/><path class="cls-42" d="M314.59,65c.88,9.72-10.49,10.08-9.77-3.91s15.59-25.83,23.37-25.21,2.89,10.46-3.28,10.8S313.43,52.23,314.59,65Z"/><path class="cls-42" d="M372.88,29.71c-7.59,5.47-13.89-6-1.9-11.8s29.64,3.77,33.23,12-7.15,7.87-10.68,1.73S382.85,22.53,372.88,29.71Z"/><path class="cls-49" d="M375.21,118s5.8,23.82,14.68,22.27c11.11-1.93,12.52-31,12.52-31S385.14,107.83,375.21,118Z"/><path class="cls-42" d="M330.82,337.89c-6.13,16.05-34.37,24.25-64.1,18.34a96.05,96.05,0,0,1-12.67-3.43c4.13,5.6,11.27,9.19,11.27,9.19h76S340.93,346.53,330.82,337.89Z"/><path class="cls-50" d="M356,362h7.49s-2.28-6.52-4.4-6.84S356,362,356,362Z"/><path class="cls-50" d="M373.44,362h7.49s-2.28-6.52-4.4-6.84S373.44,362,373.44,362Z"/><path class="cls-50" d="M389.89,362h7.49s-4.6-6.05-6.84-6.36S389.89,362,389.89,362Z"/><path class="cls-50" d="M443.64,362h7.08s-2.16-6.52-4.16-6.84S443.64,362,443.64,362Z"/><path class="cls-50" d="M460.1,362h7.08s-2.15-6.52-4.15-6.84S460.1,362,460.1,362Z"/><path class="cls-50" d="M475.65,362h7.08s-4.35-6.05-6.46-6.36S475.65,362,475.65,362Z"/><path class="cls-51" d="M383.88,62.81c-.51-1.34-3.69-1.38-7.1-.09s-5.75,3.45-5.23,4.8,3.69,1.38,7.09.08S384.4,64.16,383.88,62.81Z"/><path class="cls-51" d="M366.39,70.18c-.41-.55-1.56-.4-2.57.35s-1.48,1.82-1.06,2.37,1.57.41,2.57-.34S366.81,70.74,366.39,70.18Z"/><path class="cls-52" d="M167.24,296c-6.19-3.94-13.3,3.11-13.3,3.11s2.39-9.83-8.76-12.31c-6.14-1.36-15.42,5.56-15.42,5.56s3.45-9.69-3.57-11.75c-6.5-1.91-11.62,9.5-11.62,9.5s-1.12-9-8.44-7.88S96,299.1,96,299.1s-3.38-7.88-10.69-6.75S78,301.91,78,301.91,74.07,298,70.7,299.1s-7.32,9.56-7.32,9.56-9.56,2.81-14.06,10.69l129.38,3.37S173.42,299.93,167.24,296Z"/><path class="cls-53" d="M173.23,305.31c-1.7,3-4.38,4.92-7.4,4.92-5.13,0-9.29-5.55-9.29-12.39,0-.27,0-.53,0-.8a19,19,0,0,0-2.63,2.06,11.27,11.27,0,0,0,.1-3.85,16.05,16.05,0,0,1-4.9,4.24c-6.1,3.46-13.14,2.57-15.72-2a8.35,8.35,0,0,1-.18-7.39,38.81,38.81,0,0,0-3.48,2.24,17.13,17.13,0,0,0,.83-5.5c-2.22,4.35-6.15,6.91-9.73,5.95-2.34-.63-4-2.64-4.89-5.31a28,28,0,0,0-1.4,2.61,13.75,13.75,0,0,0-1.07-3.58c-1.6,8.48-6.46,14.63-11.15,13.92-2.34-.36-4.21-2.35-5.38-5.32-.66,2.3-1,4-1,4A14.29,14.29,0,0,0,94,296a8.75,8.75,0,0,1-8.53,6.22,9,9,0,0,1-7-3.27,13.3,13.3,0,0,0-.46,3,13.18,13.18,0,0,0-1.72-1.39c-.35,3.52-4.29,6.3-9.1,6.3a12.41,12.41,0,0,1-2.7-.3c-.68,1.24-1.11,2.14-1.11,2.14s-9.56,2.81-14.06,10.69l129.38,3.37A130.93,130.93,0,0,0,173.23,305.31Z"/><path class="cls-52" d="M128.67,303a6.66,6.66,0,1,0-6.66,6.66A6.66,6.66,0,0,0,128.67,303Z"/><path class="cls-52" d="M155.61,311.62a6.66,6.66,0,1,0-6.66,6.66A6.66,6.66,0,0,0,155.61,311.62Z"/><path class="cls-52" d="M103.93,313.27a6.19,6.19,0,1,0-9.08.09A6.43,6.43,0,0,0,103.93,313.27Z"/><path class="cls-54" d="M195.38,361.54l-13.92-44.31a5.81,5.81,0,0,0-5.54-4.07H50.37a5.09,5.09,0,0,0-4.68,3.1L26.45,361.54Z"/><path class="cls-55" d="M181.64,317.79c-7.44,17.27-35.53,30.12-69.08,30.12-32.41,0-59.74-12-68.25-28.4l-17.86,42H195.38Z"/><path class="cls-56" d="M173,361s7.44-23.54,10.53-23.23,8.67,22.3,8.67,22.3Z"/><path class="cls-54" d="M203.87,364.52a11.84,11.84,0,0,0-11-7.53H30a11.55,11.55,0,0,0-10.76,7.35l-.85,2.15H204.64Z"/><path class="cls-57" d="M103,316.26c0-.94-10.74-1.7-24-1.7s-24,.76-24,1.7S65.7,318,79,318,103,317.2,103,316.26Z"/><path class="cls-57" d="M123.71,316.26c0-.94-2.63-1.7-5.88-1.7s-5.89.76-5.89,1.7,2.64,1.71,5.89,1.71S123.71,317.2,123.71,316.26Z"/><path class="cls-58" d="M299.7,334.68A30.68,30.68,0,1,0,269,365.36,30.68,30.68,0,0,0,299.7,334.68Z"/><path class="cls-59" d="M293.36,316.07a30.62,30.62,0,0,1-54.67,14.27,31,31,0,0,0-.34,4.34,30.68,30.68,0,1,0,55-18.61Z"/><path class="cls-60" d="M266.18,323.14c7.52-2.54,12.66-7.4,11.49-10.86s-8.2-4.2-15.71-1.66-12.66,7.4-11.49,10.86S258.67,325.68,266.18,323.14Z"/></g></g></g></svg>