<svg width="459" height="254" viewBox="0 0 459 254" fill="none" xmlns="http://www.w3.org/2000/svg">
<path d="M145.325 254H7.60213L10.0082 247.846C10.6143 246.313 11.5474 244.929 12.7429 243.791C13.9384 242.653 15.3677 241.788 16.9317 241.255L16.9934 241.105L13.5659 146.955L0 147.591V138.203L53.9278 73.1594L79.8326 71.4433L79.8875 71.3817L79.9492 71.4364L81.2722 71.3475L81.3544 72.6056L81.4024 72.6466L81.3133 71.3475L104.826 69.7886L105.004 72.0723L104.881 69.7408L181.382 64.6743L181.985 62.4659L183.987 63.635C186.502 33.2499 202.495 22.447 207.636 19.7325C213.237 11.4594 222.1 5.73652 233.952 2.73493C240.482 0.984985 247.261 0.349262 254.003 0.854666C256.325 0.287121 258.707 0.000172135 261.098 0C272.648 0 289.278 6.93305 302.721 39.971C306.354 48.8596 314.943 70.739 321.332 93.6304L322.018 92.9467C323.453 91.5849 325.019 90.3665 326.693 89.3092C320.311 75.1217 319.248 60.4283 319.2 59.7651L319.091 58.1173L320.331 57.0028C321.336 56.1448 322.629 55.6978 323.951 55.7516C330.696 55.7516 350 66.9785 361.948 74.3833L363.867 68.9135L371.682 74.6295L373.896 74.6773L380.47 70.1852L382.609 74.438L389.141 70.9236L390.409 74.3013C403.071 65.0435 418.522 54.6986 424.492 54.6986C425.515 54.6768 426.522 54.9576 427.385 55.5055L428.811 56.4353L428.927 58.1242C428.975 58.8079 429.949 73.9936 425.061 89.6306C432.828 95.8844 439.784 103.078 445.77 111.045L448.957 115.483L447.278 115.77L448.759 116.624L446.736 120.043L446.908 120.214L446.593 120.275L445.084 122.853L442.205 121.192L438.216 122.026L441.472 125.403L438.195 127.694C433.833 130.616 429.273 133.232 424.547 135.523L436.2 146.462L423.772 143.584C420.609 142.875 417.352 142.686 414.128 143.023L422.072 156.363L410.741 149.867C408.181 148.409 405.242 147.749 402.303 147.974C402.248 148.192 402.2 148.418 402.145 148.657C402.09 148.897 402.056 149.054 402.008 149.252C401.926 149.621 401.85 149.997 401.782 150.38L401.672 150.934C401.597 151.365 401.521 151.796 401.453 152.233L401.377 152.698C401.302 153.218 401.233 153.737 401.165 154.264L401.131 154.531C400.653 158.787 400.442 163.068 400.5 167.351V167.604C400.5 167.863 400.5 168.123 400.5 168.383C401.062 166.87 401.909 165.477 402.995 164.281C403.851 163.261 404.919 162.439 406.125 161.874C407.332 161.308 408.647 161.012 409.98 161.005C415.773 161.005 420.948 166.304 423.19 168.964H423.245L423.985 169.094C424.389 169.169 424.794 169.258 425.198 169.354C427.707 165.805 432.101 160.958 437.421 160.958C439.657 160.981 441.803 161.843 443.432 163.371C444.592 164.35 445.534 165.561 446.197 166.924C446.861 168.288 447.231 169.774 447.285 171.289C447.381 175.159 445.427 178.618 443.474 181.087C445.88 184.147 447.736 187.601 448.957 191.295C449.396 192.634 449.728 194.006 449.951 195.397C451.064 198.63 450.918 202.161 449.54 205.291C450.393 206.357 451.018 207.585 451.377 208.901C452.114 211.571 452.021 214.401 451.11 217.017L451.185 217.106C451.281 217.222 451.377 217.338 451.466 217.461C451.651 217.701 451.83 217.947 452.008 218.2C452.186 218.453 452.241 218.542 452.351 218.706L452.399 218.774C452.467 218.877 452.536 218.979 452.597 219.082L453.653 220.75L453.598 220.846C455.696 224.948 458.191 232.64 454.791 242.725C455.57 242.871 456.308 243.186 456.951 243.648C457.595 244.11 458.128 244.708 458.513 245.399C458.882 246.172 459.031 247.031 458.945 247.883C458.859 248.735 458.542 249.548 458.027 250.233L456.998 251.6H402.159L401.946 251.279L400.993 251.21H310.433L309.912 250.964H254.181L254.387 253.569H145.119L145.325 254ZM21.8878 247.163H135.262L135.077 246.691H246.97L246.778 244.093H311.543L312.03 244.339H401.528C402.214 244.407 403.05 244.448 403.927 244.462H405.778L405.922 244.688H446.531L446.716 244.305C446.86 244.018 446.997 243.724 447.134 243.436L447.353 242.944C451.898 232.585 448.491 225.311 446.819 222.658L446.661 222.425C446.565 222.268 446.49 222.159 446.414 222.049C446.339 221.94 446.181 221.721 446.058 221.564L445.9 221.365L445.825 221.277L445.619 221.03L445.393 220.771L444.454 219.786L444.289 218.733C444.221 218.295 444.132 217.844 444.029 217.366L443.652 215.574L444.749 214.453C445.164 213.034 445.111 211.519 444.598 210.132C444.497 209.836 444.322 209.57 444.091 209.358C443.86 209.147 443.579 208.996 443.275 208.921L429.387 205.12L443.343 202.385C443.594 201.768 443.753 201.119 443.816 200.457L443.247 196.792C443.082 195.667 442.82 194.557 442.466 193.476C441.24 189.726 439.186 186.298 436.454 183.446L434.117 181.018L436.516 178.646C438.456 176.738 440.512 173.86 440.451 171.48C440.427 170.896 440.273 170.325 440.002 169.807C439.731 169.29 439.348 168.838 438.881 168.486C438.698 168.282 438.477 168.116 438.23 167.999C437.983 167.881 437.715 167.814 437.441 167.802C435.501 167.802 432.149 170.94 429.647 175.104L428.228 177.463L425.61 176.581C424.697 176.273 423.765 176.024 422.82 175.836H422.737L422.305 175.76H422.264L420.05 176.212L418.761 174.366C417.362 172.511 415.702 170.867 413.833 169.484V180.232L415.56 181.285L413.929 184.164C413.764 184.451 413.607 184.745 413.449 185.046L413.284 185.367L413.106 185.729C413.017 185.921 412.928 186.105 412.846 186.29C412.763 186.475 412.688 186.639 412.619 186.81C412.551 186.98 412.469 187.172 412.393 187.357C412.318 187.541 412.263 187.705 412.194 187.89C412.126 188.074 412.064 188.252 412.009 188.43C411.954 188.608 411.886 188.792 411.831 188.977C411.776 189.162 411.728 189.333 411.68 189.51L411.536 190.071C411.495 190.242 411.461 190.42 411.42 190.604C411.379 190.789 411.351 190.96 411.317 191.151C411.283 191.343 411.262 191.5 411.235 191.678C411.207 191.856 411.187 192.033 411.166 192.211L411.125 192.744V192.813V193.257C411.125 193.401 411.125 193.551 411.125 193.702V193.866C411.125 194.009 411.125 194.153 411.125 194.296C411.125 194.44 411.125 194.584 411.125 194.734V194.939C411.125 195.055 411.125 195.178 411.159 195.295C411.194 195.411 411.207 195.582 411.228 195.719L411.269 195.958L411.44 197.12L410.611 198.638L406.56 205.899L404.318 197.893C402.022 189.688 398.992 182.714 395.311 177.107L394.845 176.424L394.735 175.296C394.574 173.425 394.26 171.57 393.796 169.75L393.679 169.34V168.882C393.679 168.458 393.679 168.041 393.679 167.617V167.371C393.619 162.803 393.848 158.236 394.365 153.696L394.406 153.396C394.481 152.808 394.557 152.233 394.639 151.666L394.721 151.146C394.803 150.654 394.879 150.168 394.968 149.69L395.091 149.061C395.174 148.63 395.263 148.199 395.352 147.775C395.4 147.543 395.455 147.31 395.509 147.092C395.599 146.702 395.695 146.312 395.791 145.929C395.859 145.683 395.921 145.451 395.982 145.245C396.085 144.876 396.188 144.514 396.298 144.158L396.983 141.991L398.958 141.533C400.968 141.137 403.021 141.008 405.065 141.15L403.29 138.169L407.876 137.123C410.251 136.571 412.667 136.216 415.101 136.063L412.469 133.595L417.123 131.489C421.829 129.352 426.407 126.943 430.833 124.275L424.664 117.876L432.547 116.235L424.321 112.741L428.941 111.948L422.614 105.637L435.529 110.826L436.728 110.621C431.452 104.3 425.504 98.5689 418.988 93.5278L417 92.0236L417.822 89.6784C421.613 78.8823 422.175 67.7238 422.189 62.1582C417.391 64.1478 406.902 70.5681 392.658 81.0907L391.705 81.7745H390.512C389.902 81.7745 389.285 81.7745 388.668 81.7745L385.926 81.8292L385.474 80.6258L383.417 81.754H382.506L380.627 81.7061L378.571 81.6446L377.885 80.2429L375.959 81.5625H374.842C373.375 81.5215 371.915 81.4873 370.51 81.4736H369.413L367.308 79.9352L366.739 81.3642L364.436 81.4873C363.538 81.5283 362.798 81.5967 362.229 81.6719L360.988 81.8497L359.926 81.166C345.139 71.9492 332.307 65.0709 326.453 63.1222C327.227 68.6947 329.263 79.4156 334.151 89.1041L335.625 92.0168L332.787 93.6236C332.19 93.9586 331.635 94.3073 331.1 94.615L344.248 100.372L333.15 102.348C333.088 102.348 327.454 103.353 322.004 104.522L322.84 104.885C325.168 105.928 327.553 106.841 329.983 107.62L338.024 110.081L320.325 119.216L319.427 114.771C319.029 112.816 318.597 110.813 318.138 108.816L317.384 105.568L316.561 102.362C310.2 77.467 300.322 52.2646 296.373 42.5761C286.845 19.1856 274.643 6.83733 261.098 6.83733C260.131 6.83773 259.164 6.89939 258.205 7.02194L258.342 8.2048L254.078 7.7467C248.533 7.13817 242.329 7.692 235.632 9.38082C225.144 12.02 217.48 17.025 212.853 24.2452L212.318 25.0793L211.42 25.5032C208.075 27.0622 191.328 36.5387 190.513 69.5288L190.369 75.3132L183.658 71.4023L57.3279 79.7643L7.05373 140.425L20.1398 139.823L23.8963 242.383L21.8878 247.163ZM410.021 167.85C409.66 167.854 409.304 167.943 408.983 168.111C408.663 168.278 408.387 168.519 408.177 168.814C406.69 170.496 406.676 171.754 406.806 172.561C407.046 174.167 408.246 175.856 409.761 177.299L413.819 169.47C412.475 168.506 411.125 167.829 410.001 167.829L410.021 167.85ZM311.715 186.611L307.979 159.775L311.536 159.433C314.093 159.187 321.887 158.441 322.292 140.48V139.796C322.292 138.21 322.292 136.48 322.162 134.661L321.867 129.321L326.85 131.29C329.448 132.323 332.081 133.301 334.672 134.203L344.207 137.519L335.906 140.254C336.55 140.541 337.208 140.849 337.873 141.184L341.177 142.859L339.251 146.011C333.652 155.217 329.104 165.019 325.692 175.234L323.958 180.506L320.023 176.54C319.42 175.877 318.711 175.318 317.925 174.885C317.868 174.966 317.815 175.051 317.768 175.138L317.72 175.22C317.384 175.774 317.034 176.389 316.671 177.101L311.715 186.611ZM317.706 167.952C318.756 167.957 319.792 168.19 320.743 168.636C322.114 164.841 323.629 161.293 325.123 158.031C323.091 161.671 319.71 164.371 315.704 165.552L316.068 168.164C316.601 168.019 317.153 167.947 317.706 167.952ZM328.9 144.89C328.642 148.157 327.95 151.376 326.844 154.462C328.441 151.208 330.011 148.309 331.457 145.779C330.538 145.423 329.723 145.129 328.9 144.89Z" fill="#FFFEF3"/>
<path d="M184.987 70.2741L164.786 87.2717L227.543 125.855L268.474 121.595L184.987 70.2741Z" fill="#FF983B"/>
<path d="M184.089 67.6964L183.075 71.4159L268.474 121.595L268.323 116.775L184.089 67.6964Z" fill="#FFD345"/>
<path d="M20.7499 250.11H123.965L123.252 122.45L16.4793 133.513L20.7499 250.11Z" fill="#BCB53C"/>
<path d="M18.1999 180.451L123.752 211.745L123.252 122.45L16.4793 133.513L18.1999 180.451Z" fill="#AFAC35"/>
<path d="M250.678 250.11H123.965L121.12 117.342L180.203 77.337L239.827 112.638L250.678 250.11Z" fill="#C6C646"/>
<path d="M137.846 128.925L140.026 250.11L140.355 124.2L137.846 128.925Z" fill="#AFAC35"/>
<path d="M159.562 104.016L161.735 225.201L162.071 99.2986L159.562 104.016Z" fill="#AFAC35"/>
<path d="M181.402 86.0136L183.582 207.198L183.918 81.289L181.402 86.0136Z" fill="#AFAC35"/>
<path d="M202.598 97.1721L204.778 218.357L205.107 92.4476L202.598 97.1721Z" fill="#AFAC35"/>
<path d="M224.513 113.479L226.693 234.664L227.029 108.755L224.513 113.479Z" fill="#AFAC35"/>
<path d="M114.512 165.402L181.635 88.5845L241.225 131.496L239.827 112.638L176.974 75.2722L110.92 133.642L114.512 165.402Z" fill="#AFAC35"/>
<path d="M194.776 130.702C149.369 128.111 138.806 205.913 140.026 250.11H237.969C238.353 213.892 234.727 132.972 194.776 130.702Z" fill="#FFE75A"/>
<path d="M3.42747 144.008L127.762 138.333L184.24 72.5167V67.9426L3.42747 139.434V144.008Z" fill="#FFD345"/>
<path d="M3.42747 139.434L127.762 133.759L184.24 67.9426L55.6278 76.4482L3.42747 139.434Z" fill="#FFE75A"/>
<path d="M150.528 105.172L184.24 67.9426L55.6278 76.4482L150.528 105.172Z" fill="#FFF27B"/>
<path d="M194.207 134.907C153.215 132.412 143.68 207.445 144.783 250.11H233.212C233.555 215.164 230.285 137.102 194.207 134.907Z" fill="#372E44"/>
<path d="M194.207 134.907C192.906 134.829 191.601 134.829 190.3 134.907C226.336 137.157 229.606 215.178 229.257 250.11H233.205C233.555 215.164 230.285 137.102 194.207 134.907Z" fill="#4F455E"/>
<path d="M191.171 134.88C190.91 134.88 190.65 134.88 190.396 134.921C205.477 135.919 213.792 151.03 219.509 169.908C220.798 169.785 223.135 168.882 224.396 168.8C223.697 166.521 222.939 164.296 222.121 162.127C222.121 162.045 222.059 161.97 222.032 161.887C221.629 160.848 221.216 159.829 220.791 158.831L220.729 158.694C219.874 156.689 218.961 154.783 217.987 152.978L217.823 152.678C217.366 151.807 216.879 150.966 216.362 150.155C216.314 150.079 216.26 150.004 216.212 149.922C215.222 148.33 214.134 146.8 212.956 145.341L212.709 145.033C212.154 144.35 211.585 143.721 210.995 143.112L210.748 142.859C210.152 142.244 209.535 141.656 208.911 141.102C208.281 140.555 207.636 140.049 206.971 139.57L206.628 139.317C205.984 138.866 205.326 138.442 204.654 138.053L204.305 137.861C203.612 137.472 202.901 137.119 202.173 136.801H202.138C201.405 136.494 200.651 136.227 199.89 135.988L199.465 135.858C198.718 135.639 197.957 135.461 197.182 135.311L196.737 135.242C195.911 135.099 195.078 135 194.242 134.948C193.522 134.901 192.816 134.894 192.117 134.894C191.774 134.853 191.472 134.873 191.171 134.88Z" fill="#372E44"/>
<path d="M69.0361 198.016C69.9224 195.022 70.368 191.915 70.3591 188.792C70.3591 176.581 63.936 166.687 56.0049 166.687C48.0737 166.687 41.6095 176.581 41.6095 188.792C41.6006 191.915 42.0462 195.022 42.9325 198.016H69.0361Z" fill="#FFD345"/>
<path d="M67.8982 197.018C68.5874 194.319 68.9329 191.544 68.9264 188.758C68.9264 177.818 63.9429 168.978 57.794 168.978C51.6451 168.978 46.6684 177.832 46.6684 188.758C46.662 191.544 47.0075 194.319 47.6967 197.018H67.8982Z" fill="#372E44"/>
<path d="M103.386 137.075H105.95L160.817 70.2741L103.386 137.075Z" fill="#FFD345"/>
<path d="M75.2193 138.866H77.783L132.65 72.0586L75.2193 138.866Z" fill="#FFD345"/>
<path d="M48.1423 139.386H50.706L105.573 72.5783L48.1423 139.386Z" fill="#FFD345"/>
<path d="M25.0548 140.391H27.6186L82.4855 73.5833L25.0548 140.391Z" fill="#FFD345"/>
<path d="M407.485 247.819C398.519 248.284 391.369 246.958 394.077 239.252C398.053 227.943 408.657 244.106 408.657 244.106L407.485 247.819Z" fill="#FF9F50"/>
<path d="M405.586 166.53C399.54 173.367 406.957 180.205 411.296 182.693L421.682 172.567C420.996 171.426 411.639 159.7 405.586 166.53Z" fill="#FFB95C"/>
<path d="M407.389 168.369C403.023 173.299 408.383 178.236 411.502 180.041C413.456 176.41 415.272 174.078 419.001 172.725C418.522 171.904 411.763 163.412 407.389 168.369Z" fill="#FF8040"/>
<path d="M441.17 165.915C447.436 171.521 441.383 179.118 437.626 182.242L426.11 174.413C426.645 173.162 434.494 159.939 441.17 165.915Z" fill="#FFB95C"/>
<path d="M440.348 168.198C444.954 172.246 440.533 177.771 437.791 180.041L429.524 174.352C429.914 173.436 435.529 163.959 440.348 168.198Z" fill="#FF8040"/>
<path d="M446.154 246.287L443.741 248.147H455.298C455.298 248.147 458.054 244.469 446.154 246.287Z" fill="#FF9F50"/>
<path d="M442.205 215.67C426.247 220.572 423.999 242.732 424.828 248.147H448.56C459.727 229.051 447.093 214.166 442.205 215.67Z" fill="#FFB95C"/>
<path d="M447.854 232.1C447.854 227.191 448.608 222.938 449.718 220.873C447.305 217.065 444.145 215.075 442.178 215.67C426.22 220.572 423.971 242.732 424.801 248.147H448.532C449.252 246.921 449.9 245.654 450.472 244.353C448.999 243.101 447.854 238.096 447.854 232.1Z" fill="#FF9F50"/>
<path d="M409.123 248.147C405.244 241.091 394.043 213.544 411.406 191.233C428.77 168.923 447.929 208.764 447.929 221.058C447.929 233.351 442.918 248.147 431.95 248.147H409.123Z" fill="#FF9F50"/>
<path d="M444.159 211.308C440.169 195.937 421.791 197.421 418.371 200.717C406.457 212.203 416.198 237.83 419.18 248.147H432.204C444.611 242.876 448.155 226.671 444.159 211.308Z" fill="#FFEAC5"/>
<path d="M418.837 229.769C423.231 218.521 432.369 211.568 439.237 214.241C442.713 215.608 444.94 219.15 445.729 223.813C445.77 219.601 445.246 215.402 444.173 211.328C440.183 195.958 421.805 197.442 418.384 200.737C409.062 209.728 413.003 227.369 416.582 239.566C416.836 236.206 417.596 232.903 418.837 229.769Z" fill="#FFD58A"/>
<path d="M443.391 205.503L439.964 222.432H440.889C440.889 222.432 445.969 218.207 447.408 216.661C448.848 215.116 449.739 206.412 443.391 205.503Z" fill="#FFB95C"/>
<path d="M446.044 230.22C442.068 222.849 436.214 219.43 431.731 221.331C427.248 223.232 426.843 230.801 430.826 238.172C434.809 245.542 441.109 248.633 446.14 248.024C449.129 244.776 450.027 237.59 446.044 230.22Z" fill="#B24A3F"/>
<path d="M445.797 230.815C444.248 228.08 443.11 225.885 441.15 224.073C439.457 222.022 434.665 222.316 433.397 223.184C426.789 227.669 440.19 244.127 446.257 247.956C449.149 245.029 450.041 238.336 445.797 230.815Z" fill="#993730"/>
<path d="M446.044 230.22C444.859 227.953 443.31 225.895 441.458 224.128C440.087 223.776 438.632 223.975 437.407 224.682C431.32 228.784 440.334 243.71 446.222 247.928C449.149 244.66 449.986 237.522 446.044 230.22Z" fill="#BF5B4B"/>
<path d="M428.125 232.08C426.672 232.257 423.793 225.023 430.106 220.921C436.42 216.819 442.281 221.229 440.451 222.671C439.511 223.417 436.852 221.988 432.389 225.481C427.927 228.975 429.044 231.97 428.125 232.08Z" fill="#542F29"/>
<path d="M435.906 222.35C431.916 222.767 428.639 223.615 428.365 222.35C424.376 226.5 426.809 232.25 428.105 232.093C429.023 231.984 427.803 229.057 432.369 225.495C436.934 221.933 439.491 223.444 440.43 222.685C440.545 222.601 440.636 222.489 440.695 222.36C440.754 222.23 440.778 222.088 440.766 221.947C439.504 222.09 437.798 222.152 435.906 222.35Z" fill="#472622"/>
<path d="M431.107 217.502L429.88 216.224C428.297 217.352 427.824 219.458 430.182 222.015L430.573 221.803C430.573 221.803 428.434 218.726 431.107 217.502Z" fill="#542F29"/>
<path d="M412.153 203.752L429.764 221.058L428.859 221.741C428.859 221.741 417.816 219.157 410.83 220.456L405.573 213.031C405.573 213.031 407.91 201.626 412.153 203.752Z" fill="#FFB95C"/>
<path d="M408.321 213.325C409.494 210.268 414.525 209.646 420.187 211.691L412.153 203.752C407.067 199.411 404.407 212.532 404.407 212.532L410.83 220.436H410.906C408.616 217.954 407.554 215.301 408.321 213.325Z" fill="#FF9F50"/>
<path d="M404.64 215.376C391.239 220.326 400.377 242.725 404.03 248.161H427.92C429.119 228.873 408.746 213.851 404.64 215.376Z" fill="#FFD685"/>
<path d="M409.192 241.358C403.393 231.587 402.029 221.694 406.155 219.253C410.282 216.812 418.316 222.774 424.122 232.544C424.629 233.399 425.095 234.254 425.534 235.102C420.208 222.569 407.752 214.214 404.64 215.376C391.239 220.326 400.377 242.725 404.03 248.161H414.121C412.274 246.047 410.624 243.77 409.192 241.358Z" fill="#FFB95C"/>
<g style="mix-blend-mode:multiply" opacity="0.5">
<path d="M434.685 203.869C434.685 203.869 442.911 209.646 446.339 206.836C445.562 206.164 444.612 205.721 443.597 205.558C436.954 190.85 423.718 175.412 411.427 191.233C408.922 194.444 406.876 197.985 405.346 201.756C410.803 214.692 432.094 211.527 434.685 203.869Z" fill="#B23841"/>
</g>
<path d="M434.459 202.235C431.265 204.669 421.373 215.595 411.029 203.151C400.685 190.707 416.808 171.426 422.744 172.335C428.023 173.313 432.941 175.689 436.983 179.213C441.026 182.738 444.044 187.281 445.722 192.368C447.264 196.99 447.449 203.527 445.722 204.969C442.356 207.78 434.459 202.235 434.459 202.235Z" fill="#FFD685"/>
<path d="M436.516 202.235C436.255 202.433 435.954 202.686 435.611 202.98C437.53 204.142 441.431 206.214 444.18 205.674C440.629 205.12 436.516 202.235 436.516 202.235Z" fill="#FFB95C"/>
<path d="M413.079 203.151C403.482 191.596 416.684 174.16 423.361 172.444L422.731 172.335C416.794 171.426 400.664 190.7 411.015 203.151C415.019 207.937 418.953 209.304 422.456 208.942C419.522 208.648 416.321 207.041 413.079 203.151Z" fill="#FFB95C"/>
<path d="M435.83 197.305C433.356 198.918 427.714 200.19 424.65 200.19C415.526 200.19 410.618 193.64 410.392 183.459C407.197 189.613 406.052 197.134 411.029 203.151C421.373 215.595 431.265 204.669 434.459 202.235C434.459 202.235 442.356 207.78 445.722 204.969C446.407 204.375 448.231 200.416 446.641 196.238C443.515 199.192 441.691 198.44 435.83 197.305Z" fill="#FFB95C"/>
<path d="M418.213 248.147H433.232C435.858 244.257 424.609 242.671 418.213 248.147Z" fill="#FFB95C"/>
<path d="M421.949 248.147H433.232C435.22 245.221 426.761 244.031 421.949 248.147Z" fill="#FFD685"/>
<path d="M438.922 198.645C442.665 200.108 445.921 199.096 445.701 196.136C445.482 193.175 441.684 187.398 437.866 186.563C434.528 185.832 432.451 189.736 432.739 192.15C433.027 194.563 435.631 197.353 438.922 198.645Z" fill="#FFEAC5"/>
<path d="M440.622 194.761C437.455 192.45 435.7 189.292 437.085 187.425C437.339 187.08 437.673 186.801 438.058 186.611L437.866 186.563C434.528 185.832 432.451 189.736 432.739 192.15C433.027 194.563 435.632 197.353 438.908 198.645C442.185 199.937 445.201 199.281 445.64 197.004C444.042 197.004 442.404 196.06 440.622 194.761Z" fill="#FFDFAB"/>
<path d="M432.307 199.151C434.768 197.934 437.057 196.997 437.887 195.329C438.812 193.455 438.024 190.83 436.221 189.421C432.739 186.686 425.596 187.486 420.976 190.789C416.931 193.661 416.383 197.428 419.269 199.472C422.155 201.517 427.707 201.421 432.307 199.151Z" fill="#FFEAC5"/>
<path d="M436.221 189.394C426.624 181.873 432.691 190.126 432.636 192.286C432.533 196.06 428.461 200.388 423.121 200.388C422.284 200.387 421.448 200.307 420.626 200.149C423.67 201.38 428.352 201.079 432.279 199.124C434.74 197.907 437.03 196.97 437.859 195.302C438.812 193.455 438.031 190.83 436.221 189.394Z" fill="#FFDFAB"/>
<path d="M436.598 192.184L436.386 192.396C436.295 194.221 435.901 196.018 435.22 197.715L436.118 197.53C436.118 197.53 436.934 193.818 436.598 192.184Z" fill="#513229"/>
<path d="M431.861 199.356C431.861 199.356 436.968 196.86 438.49 198.672C438.385 198.183 438.113 197.745 437.721 197.433C437.328 197.121 436.839 196.955 436.338 196.963C434.542 196.915 431.861 199.356 431.861 199.356Z" fill="#513229"/>
<path d="M437.345 180.075C434.356 177.572 426.508 174.126 424.903 175.398C423.299 176.67 429.914 183.493 433.129 186.016C436.228 188.457 439.744 189.264 441.047 187.931C442.349 186.598 440.238 182.495 437.345 180.075Z" fill="#FFEAC5"/>
<path d="M431.381 186.112C432.293 182.01 428.639 175.603 425.212 175.234C421.785 174.865 418.288 177.853 417.37 181.928C416.451 186.003 418.48 189.606 421.894 189.982C425.308 190.358 430.49 190.18 431.381 186.112Z" fill="#FFEAC5"/>
<path d="M424.629 185.21C424.61 185 424.513 184.805 424.357 184.663C424.201 184.521 423.997 184.443 423.786 184.444C423.688 184.467 423.595 184.509 423.514 184.569C423.433 184.629 423.365 184.705 423.314 184.792C423.263 184.879 423.231 184.976 423.219 185.076C423.207 185.176 423.216 185.277 423.245 185.374C423.267 185.583 423.366 185.778 423.522 185.919C423.679 186.06 423.883 186.139 424.095 186.14C424.193 186.117 424.285 186.074 424.366 186.014C424.447 185.954 424.515 185.878 424.565 185.791C424.615 185.704 424.647 185.607 424.658 185.507C424.669 185.407 424.659 185.306 424.629 185.21Z" fill="#513830"/>
<path d="M426.377 178.071C427.844 187.329 430.257 188.505 431.758 189.695L439.628 188.861C439.628 188.861 424.876 168.814 426.377 178.071Z" fill="#FFEAC5"/>
<path d="M428.07 183.418C427.385 184.102 431.018 188.779 431.573 189.64L435.344 188.409C431.525 187.794 428.07 183.418 428.07 183.418Z" fill="#FFDFAB"/>
<path d="M431.368 188.779C430.819 189.989 434.473 193.243 436.386 193.243C437.146 193.243 440.498 189.695 440.128 188.779C439.758 187.863 431.944 187.527 431.368 188.779Z" fill="#513229"/>
<path d="M440.656 222.637C440.917 222.51 441.124 222.294 441.239 222.028C441.355 221.763 441.372 221.465 441.287 221.188C440.997 220.538 440.544 219.975 439.971 219.554C439.834 219.511 439.688 219.502 439.547 219.528C439.406 219.555 439.274 219.615 439.162 219.704L440.656 222.637Z" fill="#FFB95C"/>
<path d="M431.738 219.93C431.589 219.675 431.352 219.484 431.071 219.393C430.791 219.303 430.486 219.318 430.216 219.437C429.887 219.554 428.722 220.606 428.687 220.955C428.656 221.098 428.661 221.246 428.7 221.387C428.74 221.527 428.813 221.656 428.914 221.762L431.738 219.93Z" fill="#FFB95C"/>
<path d="M430.696 220.196C431.251 220.415 432.684 221.304 432.972 221.051C433.541 220.545 431.854 219.683 431.285 219.554C430.716 219.424 430.696 220.196 430.696 220.196Z" fill="#FFB95C"/>
<path d="M439.971 219.554C439.395 219.471 437.873 218.945 437.64 219.253C437.174 219.868 438.936 220.333 439.505 220.306C440.073 220.278 439.971 219.554 439.971 219.554Z" fill="#FFB95C"/>
<path d="M440.135 220.62C439.58 220.832 437.969 221.112 437.914 221.495C437.791 222.247 439.58 221.789 440.067 221.495C440.553 221.201 440.135 220.62 440.135 220.62Z" fill="#FFB95C"/>
<path d="M429.805 220.634C430.278 221.003 431.402 222.261 431.752 222.104C432.437 221.789 431.066 220.463 430.559 220.196C430.052 219.93 429.805 220.634 429.805 220.634Z" fill="#FFB95C"/>
<path d="M440.704 221.625C440.238 221.988 438.764 222.74 438.819 223.116C438.929 223.854 440.519 222.89 440.875 222.466C441.232 222.042 440.704 221.625 440.704 221.625Z" fill="#FFB95C"/>
<path d="M428.543 221.454C429.023 221.83 430.141 223.082 430.483 222.924C431.169 222.617 429.798 221.29 429.304 221.024C428.811 220.757 428.543 221.454 428.543 221.454Z" fill="#FFB95C"/>
<path d="M445.653 230.767C445.407 230.309 445.146 229.878 444.892 229.454C443.316 231.827 442.521 235.327 442.939 239.108C443.205 241.949 444.259 244.66 445.982 246.937C448.539 243.812 449.218 237.365 445.653 230.767Z" fill="#D1756B"/>
<path d="M438.62 198.966C438.764 198.098 436.941 197.708 434.843 198.077C433.02 198.406 431.745 199.192 431.772 199.848C431.8 200.505 433.047 200.867 434.727 200.724C436.66 200.587 438.483 199.807 438.62 198.966Z" fill="#FFDFAB"/>
<path d="M432.149 199.445C432.149 199.212 432.019 199.028 431.848 199.028C431.676 199.028 431.553 199.212 431.553 199.445C431.553 199.677 431.683 199.855 431.848 199.855C432.012 199.855 432.149 199.65 432.149 199.445Z" fill="#513229"/>
<path d="M438.771 198.549C438.771 198.317 438.634 198.132 438.469 198.132C438.305 198.132 438.168 198.317 438.168 198.549C438.168 198.782 438.305 198.959 438.469 198.959C438.634 198.959 438.771 198.775 438.771 198.549Z" fill="#513229"/>
<path d="M431.553 188.567C432.821 189.25 435.138 189.756 437.798 189.756C438.503 189.756 439.208 189.719 439.909 189.647C440.086 189.394 440.164 189.085 440.128 188.779C439.806 187.924 432.862 187.569 431.553 188.567Z" fill="#684436"/>
<path d="M435.659 192.314C434.631 192.143 431.546 189.538 433.328 189.709C436.804 190.078 435.659 192.314 435.659 192.314Z" fill="#351E19"/>
<path d="M437.242 192.129C437.928 191.951 439.916 189.688 438.894 189.975C438.421 190.104 438.002 190.385 437.704 190.774C437.405 191.163 437.243 191.639 437.242 192.129Z" fill="#351E19"/>
<path d="M443.981 229.228C443.992 228.842 443.917 228.457 443.762 228.103C443.607 227.748 443.375 227.432 443.083 227.177C442.294 226.637 441.582 227.355 441.794 228.722C441.965 229.871 442.678 230.568 443.24 230.486C443.679 230.418 443.967 229.892 443.981 229.228Z" fill="#D1756B"/>
<path d="M436.207 184.909C436.168 184.707 436.056 184.527 435.894 184.401C435.731 184.276 435.528 184.213 435.323 184.225C435.24 184.238 435.161 184.271 435.094 184.322C435.026 184.373 434.973 184.44 434.938 184.517C434.904 184.594 434.889 184.678 434.895 184.762C434.901 184.846 434.928 184.927 434.973 184.998C435.037 185.147 435.141 185.276 435.274 185.369C435.408 185.463 435.565 185.516 435.727 185.524C435.804 185.527 435.88 185.512 435.949 185.48C436.019 185.448 436.079 185.4 436.126 185.34C436.173 185.28 436.205 185.209 436.219 185.134C436.233 185.059 436.229 184.982 436.207 184.909Z" fill="#513830"/>
<path d="M379.167 75.2038L373.581 79.0259L381.285 79.4088L379.167 75.2038Z" fill="#D6AE85"/>
<path d="M387.311 75.7781L381.361 78.9917L388.977 80.1882L387.311 75.7781Z" fill="#D6AE85"/>
<path d="M365.581 74.3902L363.991 78.9507L371.538 78.7524L365.581 74.3902Z" fill="#D6AE85"/>
<path d="M324.554 140.364C324.554 140.364 336.578 141.861 345.016 150.421L340.985 134.955L324.554 140.364Z" fill="#A56B55"/>
<path d="M401.871 142.627C401.871 142.627 412.839 137.506 424.554 140.247L412.901 129.308L401.871 142.627Z" fill="#A56B55"/>
<path d="M396.764 145.71C399.308 144.754 402.031 144.366 404.742 144.571C407.452 144.777 410.085 145.572 412.455 146.9L404.915 134.217L396.764 145.71Z" fill="#A56B55"/>
<path d="M412.667 247.758H382.115C382.115 247.758 390.492 163.658 397.998 174.967C415.766 201.701 412.667 247.758 412.667 247.758Z" fill="#A56B55"/>
<path d="M417.911 238.78C413.531 237.823 410.789 241.31 409.74 244.359L410.755 247.778H419.118C422.353 244.879 422.264 239.737 417.911 238.78Z" fill="#BA8867"/>
<path d="M324.609 236.367C305.538 242.903 290.944 231.909 291.541 218.241C292.137 204.573 299.581 163.857 281.114 163.262C262.647 162.667 261.749 211.697 276.645 233.098C291.541 254.499 320.736 243.498 326.994 240.23L324.609 236.367Z" fill="#BA8867"/>
<path d="M324.609 236.367C305.538 242.903 290.944 231.909 291.541 218.241C291.897 209.988 294.742 191.903 292.912 178.721C292.459 184.191 291.739 189.941 290.732 195.917C287.99 212.326 283.644 226.685 279.078 236.12C294.509 253.357 321.079 243.327 327.015 240.223L324.609 236.367Z" fill="#A56B55"/>
<path d="M322.82 247.758H409.816C409.816 247.758 386.379 160.588 403.071 137.608L342.692 134.873C342.692 134.873 300.178 188.327 322.82 247.758Z" fill="#BA8867"/>
<path d="M397.47 183.384C398.032 204.614 403.221 247.758 403.221 247.758H394.797C394.797 247.758 378.866 203.752 382.972 183.924C384.398 176.984 396.949 163.665 397.47 183.384Z" fill="#A56B55"/>
<path d="M397.072 167.364C396.97 154.749 398.546 143.83 403.064 137.608L342.685 134.873C342.685 134.873 300.185 188.362 322.806 247.792H355.353C317.02 129.663 389.134 142.798 397.072 167.364Z" fill="#A56B55"/>
<path d="M425.507 58.3703C425.507 58.3703 426.802 77.1183 419.865 93.9244L389.559 79.1421C389.559 79.1421 421.106 55.4918 425.507 58.3703Z" fill="#D6AE85"/>
<path d="M422.463 62.9035C422.463 62.9035 423.341 75.6619 418.618 87.1281L397.991 77.0636C397.991 77.0636 419.461 60.9548 422.463 62.9035Z" fill="#F7D5B7"/>
<path d="M322.621 59.56C322.621 59.56 323.992 80.1609 333.945 95.6132L363.141 79.2036C363.141 79.2036 326.597 55.9909 322.621 59.56Z" fill="#D6AE85"/>
<path d="M326.85 64.2709C326.85 64.2709 327.961 80.6805 335.865 92.9877L359.11 79.8942C359.11 79.8942 330.017 61.4471 326.85 64.2709Z" fill="#F7D5B7"/>
<path d="M311.303 128.097C311.303 128.097 350.034 148.11 380.819 145.136C411.605 142.162 436.228 124.932 436.228 124.932L431.429 119.981L439.971 118.197L435.995 114.231L442.953 113.042C442.953 113.042 417.514 77.6174 388.531 78.3763C380.991 78.5746 363.106 77.1866 359.926 78.7729C356.745 80.3591 332.718 87.2922 324.376 95.4149L332.519 98.9772C332.519 98.9772 316.829 101.753 312.064 103.538C312.064 103.538 321.791 108.686 328.941 110.867L312.099 119.585L318.652 123.544L311.303 128.097Z" fill="#D6AE85"/>
<path d="M436.084 114.286C422.778 123.496 402.885 108.926 381.745 108.926C359.076 108.926 339.69 122.634 326.329 112.235L312.099 119.585L318.652 123.544L311.303 128.097C311.303 128.097 350.034 148.11 380.819 145.136C411.605 142.162 436.228 124.932 436.228 124.932L431.429 119.981L439.971 118.197L436.084 114.286Z" fill="#C69A71"/>
<path d="M367.336 94.4851C367.205 91.5382 365.279 89.152 363.099 89.152C360.919 89.152 359.192 91.5382 359.315 94.4851C359.439 97.432 361.372 99.8182 363.559 99.8182C365.745 99.8182 367.459 97.4251 367.336 94.4851Z" fill="#513935"/>
<path d="M398.759 93.1039C397.909 90.1023 395.414 87.6683 393.186 87.6683C390.958 87.6683 389.834 90.1023 390.684 93.1039C391.534 96.1055 394.029 98.5738 396.257 98.5738C398.485 98.5738 399.602 96.1055 398.759 93.1039Z" fill="#513935"/>
<path d="M379.627 122.607L377.837 124.59C377.837 124.59 383.602 131.721 391.15 121.616C391.15 121.616 383.801 126.962 379.627 122.607Z" fill="#A56B55"/>
<path d="M355.394 116.412C359.158 121.075 370.05 126.074 377.241 119.585C385.584 112.064 381.608 105.91 381.608 105.91L375.438 100.563C375.438 100.563 342.288 100.167 355.394 116.412Z" fill="#F7D5B7"/>
<path d="M411.296 114.348C408.986 118.532 399.081 122.73 389.47 116.515C379.078 109.794 381.135 104.755 381.135 104.755L385.467 100.427C385.467 100.427 419.18 100.085 411.296 114.348Z" fill="#F7D5B7"/>
<path d="M382.691 108.03C382.691 108.03 372.909 100.946 375.054 99.3396C377.063 97.8354 387.078 99.1276 387.619 100.666C388.161 102.204 382.691 108.03 382.691 108.03Z" fill="#7F5752"/>
<path d="M351.94 176.93C356.484 200.286 361.18 247.758 361.18 247.758H370.64C370.64 247.758 377.783 199.363 368.323 177.477C365.039 169.88 347.71 155.207 351.94 176.93Z" fill="#D6AE85"/>
<path d="M398.142 174.94C400.507 198.953 409.384 247.758 409.384 247.758H400.952C400.952 247.758 381.272 198.009 383.685 175.507C384.521 167.699 395.941 152.637 398.142 174.94Z" fill="#D6AE85"/>
<path d="M316.561 247.758H358.568C358.568 247.758 321.682 161.956 314.779 173.47C298.423 200.724 316.561 247.758 316.561 247.758Z" fill="#BA8867"/>
<path d="M310.351 191.117C320.407 188.382 332.972 205.523 344.132 229.406C346.926 235.31 349.186 241.452 350.884 247.758H358.568C358.568 247.758 324.294 156.527 314.779 173.47C311.732 179.112 309.774 185.274 309.007 191.637C309.438 191.423 309.888 191.249 310.351 191.117Z" fill="#A56B55"/>
<path d="M316.239 246.828C316.445 247.422 316.561 247.744 316.561 247.744H316.746C316.575 247.457 316.41 247.149 316.239 246.828Z" fill="#A56B55"/>
<path d="M413.463 237.03C408.068 235.888 404.75 240.052 403.509 243.696L404.812 247.758H415.094C419.029 244.318 418.837 238.178 413.463 237.03Z" fill="#D6AE85"/>
<path d="M377.707 237.515C371.867 236.421 369.44 240.394 369.029 243.881L371.339 247.758H381.944C385.145 244.476 383.513 238.623 377.707 237.515Z" fill="#D6AE85"/>
<path d="M360.748 236.572C365.499 235.71 368.289 238.951 369.55 242.547L368.11 247.751H355.593C354.998 246.705 354.66 245.534 354.609 244.332C354.557 243.131 354.793 241.935 355.297 240.843C355.8 239.75 356.557 238.793 357.505 238.051C358.453 237.308 359.565 236.801 360.748 236.572Z" fill="#D6AE85"/>
<path d="M316.109 237.939C325.877 237.194 338.25 247.73 338.25 247.73H311.214C302.934 243.853 305.785 238.76 316.109 237.939Z" fill="#D6AE85"/>
<path d="M370.852 236.77C365.218 235.751 358.109 239.3 362.626 247.758H374.609C378.598 244.236 377.351 237.939 370.852 236.77Z" fill="#D6AE85"/>
<path d="M373.663 243.409C373.491 245.105 371.25 246.452 368.494 246.452C366.438 246.452 364.621 245.679 363.799 244.564C363.729 245.135 363.773 245.714 363.928 246.268C364.084 246.822 364.347 247.34 364.703 247.792H372.806C374.513 246.534 374.794 244.715 373.663 243.409Z" fill="#C69A71"/>
<path d="M382.561 243.409C382.362 245.105 379.723 246.452 376.494 246.452C374.047 246.452 371.058 246.513 372.045 247.819H382.163C384.165 246.534 383.877 244.715 382.561 243.409Z" fill="#C69A71"/>
<path d="M382.163 101.931C379.703 101.972 377.259 101.538 374.965 100.652C376.103 103.244 382.691 108.03 382.691 108.03C382.691 108.03 387.153 103.38 387.606 101.281C385.827 101.732 383.998 101.951 382.163 101.931Z" fill="#513935"/>
<path d="M321.497 120.255L321.291 119.906C321.483 119.797 340.451 108.932 361.214 109.062V110.252H360.748C340.478 110.252 321.709 120.146 321.497 120.255Z" fill="#F7D5B7"/>
<path d="M335.145 130.422L334.734 130.08C335.241 129.465 347.326 115.038 361.105 111.237L361.427 112.385C348.005 116.077 335.268 130.272 335.145 130.422Z" fill="#F7D5B7"/>
<path d="M344.646 134.347L344.159 134.183C344.2 134.073 348.094 123.072 361.769 115.913L362.318 116.966C349.06 123.906 344.68 134.237 344.646 134.347Z" fill="#F7D5B7"/>
<path d="M369.289 107.873C369.289 107.326 369.008 106.881 368.659 106.881C368.309 106.881 368.021 107.326 368.021 107.873C368.021 108.42 368.309 108.864 368.659 108.864C369.008 108.864 369.289 108.42 369.289 107.873Z" fill="#C69A71"/>
<path d="M361.646 111.237C361.646 110.69 361.358 110.252 361.009 110.252C360.659 110.252 360.378 110.69 360.378 111.237C360.378 111.784 360.659 112.228 361.009 112.228C361.358 112.228 361.646 111.784 361.646 111.237Z" fill="#C69A71"/>
<path d="M369.392 115.599C369.392 115.052 369.104 114.607 368.755 114.607C368.405 114.607 368.124 115.052 368.124 115.599C368.124 116.146 368.405 116.59 368.755 116.59C369.104 116.59 369.392 116.146 369.392 115.599Z" fill="#C69A71"/>
<path d="M377.536 111.237C377.536 110.696 377.248 110.252 376.898 110.252C376.549 110.252 376.268 110.696 376.268 111.237C376.268 111.777 376.549 112.228 376.898 112.228C377.248 112.228 377.536 111.784 377.536 111.237Z" fill="#C69A71"/>
<path d="M394.612 106.881C394.612 106.334 394.33 105.89 393.981 105.89C393.631 105.89 393.35 106.334 393.35 106.881C393.35 107.428 393.631 107.873 393.981 107.873C394.33 107.873 394.612 107.428 394.612 106.881Z" fill="#C69A71"/>
<path d="M397.587 113.814C397.587 113.267 397.306 112.823 396.956 112.823C396.606 112.823 396.318 113.267 396.318 113.814C396.318 114.361 396.606 114.806 396.956 114.806C397.306 114.806 397.587 114.361 397.587 113.814Z" fill="#C69A71"/>
<path d="M443.851 118.224L444.056 117.876C443.864 117.766 424.897 106.936 404.133 107.038V108.221H404.599C424.897 108.221 443.665 118.115 443.851 118.224Z" fill="#F7D5B7"/>
<path d="M430.23 128.391L430.641 128.05C430.134 127.434 418.049 113.007 404.27 109.213L403.948 110.355C417.37 114.047 430.106 128.248 430.23 128.391Z" fill="#F7D5B7"/>
<path d="M420.729 132.316L421.216 132.159C421.174 132.043 417.281 121.041 403.612 113.883L403.071 114.936C416.314 121.875 420.695 132.213 420.729 132.316Z" fill="#F7D5B7"/>
<path d="M405.038 114.183C405.038 113.636 404.757 113.192 404.407 113.192C404.058 113.192 403.777 113.636 403.777 114.183C403.777 114.73 404.058 115.175 404.407 115.175C404.757 115.175 405.038 114.758 405.038 114.183Z" fill="#C69A71"/>
<path d="M405.127 106.881C405.127 106.334 404.846 105.89 404.49 105.89C404.133 105.89 403.859 106.334 403.859 106.881C403.859 107.428 404.14 107.873 404.49 107.873C404.839 107.873 405.127 107.428 405.127 106.881Z" fill="#C69A71"/>
<path d="M362.064 84.6461C359.938 85.079 357.928 85.9552 356.166 87.2172C354.403 88.4791 352.928 90.0984 351.837 91.9689C351.837 91.9689 349.602 86.7657 354.065 84.2427C355.288 83.5111 356.701 83.1588 358.126 83.2306C359.55 83.3024 360.921 83.7952 362.064 84.6461Z" fill="#BA8867"/>
<path d="M396.154 83.6479C398.184 84.2443 400.063 85.2683 401.663 86.6507C403.263 88.0331 404.547 89.7417 405.429 91.6613C405.429 91.6613 407.944 86.629 403.845 83.7983C402.734 82.9879 401.4 82.5387 400.023 82.5118C398.647 82.4849 397.296 82.8816 396.154 83.6479Z" fill="#BA8867"/>
<path d="M384.24 99.8592C383.267 99.8045 382.458 100.058 382.444 100.413C382.43 100.769 383.191 101.097 384.165 101.158C385.138 101.22 385.947 100.967 385.967 100.611C385.988 100.256 385.248 99.9208 384.24 99.8592Z" fill="#C69A71"/>
<path d="M380.744 104.413C379.599 103.045 377.467 101.678 377.92 103.045C378.221 104.023 379.599 105.192 380.401 105.609C380.874 105.849 381.217 105.869 381.313 105.719C381.409 105.568 381.279 105.049 380.744 104.413Z" fill="#382927"/>
<path d="M384.48 105.151C385.851 104.003 387.222 101.876 385.851 102.328C384.878 102.628 383.698 104.003 383.287 104.803C383.047 105.281 383.027 105.616 383.177 105.719C383.328 105.821 383.877 105.678 384.48 105.151Z" fill="#382927"/>
<path d="M357.883 247.723H361.701C361.701 247.723 360.536 243.758 359.459 243.566C358.383 243.375 357.883 247.723 357.883 247.723Z" fill="#664444"/>
<path d="M366.739 247.723H370.558C370.558 247.723 369.399 243.758 368.316 243.566C367.233 243.375 366.739 247.723 366.739 247.723Z" fill="#664444"/>
<path d="M375.144 247.723H378.962C378.962 247.723 376.617 244.045 375.479 243.86C374.341 243.676 375.144 247.723 375.144 247.723Z" fill="#664444"/>
<path d="M419.029 247.723H416.026C416.026 247.723 417.672 243.771 418.556 243.573C419.44 243.375 419.029 247.723 419.029 247.723Z" fill="#664444"/>
<path d="M412.119 247.723H408.349C408.349 247.723 410.666 244.045 411.776 243.86C412.887 243.676 412.119 247.723 412.119 247.723Z" fill="#664444"/>
<path d="M176.734 123.222C140.108 187.343 178.516 223.451 211.132 237.255L216.938 223.451C146.36 198.501 176.734 123.222 176.734 123.222Z" fill="#E27A34"/>
<path d="M207.101 153.067C214.203 170.01 235.68 156.185 232.554 141.485C229.428 126.785 201.741 46.6032 210.673 22.0983C210.673 22.0983 159.981 40.7026 207.101 153.067Z" fill="#E27A34"/>
<path d="M211.468 147.351C216.342 160.205 229.805 149.279 227.515 138.073C225.226 126.867 202.351 53.7072 207.588 34.8294C207.588 34.802 179.168 62.083 211.468 147.351Z" fill="#C6422C"/>
<path d="M254.442 4.28017C264.724 1.60677 283.918 2.94689 299.547 41.2565C315.176 79.566 344.653 165.539 308.459 162.865C272.265 160.192 254.442 4.28017 254.442 4.28017Z" fill="#E27A34"/>
<path d="M263.531 20.471C271.812 18.4198 287.167 19.8898 298.923 52.5654C310.68 85.241 332.595 158.441 303.674 155.508C274.753 152.575 263.531 20.471 263.531 20.471Z" fill="#C6422C"/>
<path d="M311.605 182.023C311.605 182.023 312.928 125.711 287.908 97.1995C262.887 68.6878 241.685 93.856 241.685 93.856C241.685 93.856 218.254 146.832 212.894 165.094C207.533 183.357 199.938 234.151 202.611 247.505H327.234C327.234 247.505 338.401 215.875 311.605 182.023Z" fill="#FFD16C"/>
<path d="M311.605 182.023C311.605 182.023 314.285 121.438 289.279 92.9262C264.272 64.4145 240.149 88.9195 240.149 88.9195C240.149 88.9195 218.268 146.832 212.908 165.094C207.547 183.357 199.952 234.151 202.625 247.505H246.716C241.774 183.958 259.281 111.763 290.033 120.33C311.646 126.374 314.073 171.501 305.497 221.7C304.01 230.416 301.95 239.025 299.328 247.47H327.207C327.207 247.47 338.401 215.875 311.605 182.023Z" fill="#FFB852"/>
<path d="M250.089 247.505H265.828L263.243 123.927L235.783 144.644L250.089 247.505Z" fill="#FFB852"/>
<path d="M296.627 247.505H305.689L306.011 159.337L282.725 140.227L296.627 247.505Z" fill="#FFB852"/>
<path d="M221.84 247.511H180.285C180.285 247.511 168.111 239.86 174.362 230.5C180.614 221.14 209.953 225.482 215.211 230.172C221.6 235.847 221.84 247.511 221.84 247.511Z" fill="#FFD16C"/>
<path d="M212.01 159.747C198.615 165.094 191.918 215.875 192.363 233.249L198.615 247.511H230.326C230.326 247.511 225.411 154.401 212.01 159.747Z" fill="#FFD16C"/>
<path d="M224.89 224.066C226.009 231.828 226.406 239.677 226.076 247.511H231.985C231.985 247.511 225.281 152.472 211.886 157.792C207.424 159.57 203.839 168.362 200.877 177.312C210.406 176.212 221.134 197.059 224.89 224.066Z" fill="#FFB852"/>
<path d="M354.915 225.406C318.138 220.969 307.348 247.511 307.348 247.511H356.327C356.327 247.511 364.84 226.61 354.915 225.406Z" fill="#FFD16C"/>
<path d="M354.277 235.423C340.41 236.031 329.01 232.784 328.811 228.175C328.808 228.146 328.808 228.116 328.811 228.087C319.016 231.991 310.637 238.763 304.778 247.511H356.327C356.327 247.511 358.986 240.975 359.596 235.006C357.883 235.202 356.11 235.341 354.277 235.423Z" fill="#FFB852"/>
<path d="M299.561 68.428C292.397 29.674 277.221 -4.62888 234.789 6.06471C192.357 16.7583 202.221 61.0779 214.56 86.8341C220.044 90.9365 230.97 95.1825 232.095 110.471L295.955 108.549C285.7 88.0306 299.561 68.428 299.561 68.428Z" fill="#FFD16C"/>
<path d="M299.561 68.428C292.624 68.8041 276.254 49.8783 257.958 52.7637C245.393 54.7397 220.942 87.6751 214.71 86.8888C220.448 90.622 230.799 98.6217 231.738 111.503L297.086 109.014C288.291 91.4767 296.819 72.9406 299.561 68.428Z" fill="#FFB852"/>
<path d="M270.215 50.4937C270.215 50.4937 266.417 58.6506 258.198 61.4676C254.085 62.8761 248.416 61.8983 242.494 60.0044C242.494 60.0044 251.151 72.7697 263.298 68.804C275.445 64.8384 270.215 50.4937 270.215 50.4937Z" fill="#E27A34"/>
<path d="M249.904 79.4908C252.927 83.2172 265.252 91.422 271.154 86.8409C277.056 82.2599 283.781 72.0586 279.38 61.4539C274.979 50.8492 259.391 66.1922 259.391 66.1922L249.904 79.4908Z" fill="#513935"/>
<path d="M271.49 79.6686C266.89 82.4035 258.836 81.3574 252.296 79.4703L251.679 80.4138C254.702 83.3744 266.568 89.5007 271.709 85.2C275.319 82.1398 277.869 78.0221 278.996 73.4329C276.844 75.8979 274.31 78.0031 271.49 79.6686Z" fill="#FFF2D2"/>
<path d="M244.392 50.0561C236.351 53.7278 224.952 63.1222 226.288 78.4926C226.288 78.4926 238.785 86.3008 247.84 83.8325C255.209 81.8292 262.483 62.083 262.483 62.083L244.392 50.0561Z" fill="#FFE18D"/>
<path d="M257.657 58.8763C255.209 65.0777 248.512 71.4364 239.381 75.3884C235.377 77.1433 231.125 78.271 226.775 78.7319C230.1 80.3865 241.253 86.4307 249.232 83.2513C257.047 80.1335 262.483 62.0556 262.483 62.0556L257.657 58.8763Z" fill="#FFCF7B"/>
<path d="M260.275 44.0051C268.309 40.3197 282.369 42.2547 292.775 54.2611C292.775 54.2611 293.46 75.5388 284.103 74.5816C274.746 73.6244 260.214 61.7548 260.214 61.7548L260.275 44.0051Z" fill="#FFE18D"/>
<path d="M274.883 61.6591C269.798 60.9481 264.861 59.4243 260.262 57.1464V61.7548C260.262 61.7548 274.815 73.6312 284.151 74.5885C289.943 75.1833 291.883 67.2178 292.528 61.0847C286.74 62.4206 280.746 62.6157 274.883 61.6591Z" fill="#FFCF7B"/>
<path d="M269.612 27.4929C267.871 23.8486 264.697 21.7222 262.661 22.7957C260.625 23.8691 260.604 27.3562 262.297 30.6654C263.991 33.9747 266.02 34.5354 268.008 33.8038C269.996 33.0722 271.312 31.0483 269.612 27.4929Z" fill="#513935"/>
<path d="M229.538 45.4204C227.611 41.3932 224.259 39.0753 222.045 40.2377C219.831 41.4 219.605 45.6187 221.524 49.6527C223.444 53.6867 225.87 54.2816 228.084 53.1192C230.299 51.9569 231.457 49.4544 229.538 45.4204Z" fill="#513935"/>
<path d="M261.968 61.7411C259.226 62.9855 240.149 56.1755 241.04 51.0543C241.931 45.9332 260.001 36.6139 265.156 42.3914C268.954 46.6032 264.868 60.401 261.968 61.7411Z" fill="#6B4A43"/>
<path d="M244.056 247.505H259.802L259.247 152.438L235.303 172.376L244.056 247.505Z" fill="#FFE18D"/>
<path d="M259.151 161.771H259.302L259.672 139.714C254.044 126.504 231.731 136.671 234.158 171.508C234.843 181.524 239.964 212.361 239.964 212.361C242.199 183.637 250.555 161.272 259.151 161.771Z" fill="#FFD16C"/>
<path d="M323.663 247.511H306.231L282.238 137.964C292.644 141.594 299.917 144.698 309.836 148.172L323.663 247.511Z" fill="#FFE18D"/>
<path d="M254.778 247.511H276.549C276.549 247.511 272.525 236.155 260.042 235.792C251.761 235.553 254.778 247.511 254.778 247.511Z" fill="#FFE18D"/>
<path d="M238.093 247.511H259.871C259.871 247.511 257.814 238.096 245.373 237.802C237.133 237.597 238.093 247.511 238.093 247.511Z" fill="#FFE18D"/>
<path d="M334 247.511H313.045C313.045 247.511 315.039 238.096 326.994 237.802C334.926 237.597 334 247.511 334 247.511Z" fill="#FFE18D"/>
<path d="M298.3 247.511H320.071C320.071 247.511 318.014 238.096 305.573 237.802C297.333 237.597 298.3 247.511 298.3 247.511Z" fill="#FFE18D"/>
<path d="M314.861 184.328L309.843 148.165C302.79 114.129 278.448 118.805 282.245 137.957L286.221 156.083C294.379 155.207 305.552 166.571 314.861 184.328Z" fill="#FFD16C"/>
<path d="M253.482 50.7125C249.691 52.1579 245.686 52.9688 241.63 53.1124C244.831 57.8096 259.61 62.8214 261.968 61.7411C264.71 60.4899 268.446 48.2852 265.78 43.2803C263.017 46.0836 258.692 48.7912 253.482 50.7125Z" fill="#4F322D"/>
<path d="M256.457 58.8011C257.355 58.466 253.681 53.256 249.972 52.7295C246.264 52.203 245.722 54.0354 247.059 55.2388C248.396 56.4422 255.401 59.1976 256.457 58.8011Z" fill="#35201D"/>
<path d="M261.516 58.0626C260.666 58.5481 259.124 52.2919 261.194 49.0305C263.264 45.7691 265.033 46.5212 265.06 48.3468C265.087 50.1723 262.544 57.4814 261.516 58.0626Z" fill="#35201D"/>
<path d="M215.65 44.4427C216.253 51.0885 208.459 51.3347 208.952 41.7693C209.446 32.2038 219.639 24.1084 224.972 24.5323C230.305 24.9563 226.953 31.6842 222.724 31.9167C218.494 32.1491 214.854 35.7114 215.65 44.4427Z" fill="#FFB852"/>
<path d="M255.607 20.3137C250.404 24.0537 246.086 16.2113 254.305 12.2457C262.524 8.28001 274.623 14.8233 277.084 20.4505C279.545 26.0776 272.182 25.8314 269.762 21.6333C267.343 17.4352 262.441 15.4045 255.607 20.3137Z" fill="#FFB852"/>
<path d="M257.204 80.6805C257.204 80.6805 261.18 96.967 267.267 95.9072C274.883 94.5876 275.85 74.7115 275.85 74.7115C275.85 74.7115 264.011 73.7269 257.204 80.6805Z" fill="#F45E4E"/>
<path d="M226.775 231.027C222.573 242 203.215 247.607 182.835 243.566C179.89 242.983 176.988 242.199 174.15 241.221C176.981 245.05 181.875 247.505 181.875 247.505H233.973C233.973 247.505 233.705 236.934 226.775 231.027Z" fill="#FFB852"/>
<path d="M244.036 247.511H249.17C249.17 247.511 247.607 243.053 246.154 242.835C244.701 242.616 244.036 247.511 244.036 247.511Z" fill="#BF6767"/>
<path d="M255.991 247.511H261.125C261.125 247.511 259.562 243.053 258.109 242.835C256.656 242.616 255.991 247.511 255.991 247.511Z" fill="#BF6767"/>
<path d="M267.267 247.511H272.402C272.402 247.511 269.248 243.375 267.713 243.163C266.177 242.951 267.267 247.511 267.267 247.511Z" fill="#BF6767"/>
<path d="M304.113 247.511H308.966C308.966 247.511 307.485 243.053 306.114 242.835C304.743 242.616 304.113 247.511 304.113 247.511Z" fill="#BF6767"/>
<path d="M315.396 247.511H320.249C320.249 247.511 318.775 243.053 317.404 242.835C316.033 242.616 315.396 247.511 315.396 247.511Z" fill="#BF6767"/>
<path d="M326.055 247.511H330.909C330.909 247.511 327.927 243.375 326.48 243.163C325.034 242.951 326.055 247.511 326.055 247.511Z" fill="#BF6767"/>
<g style="mix-blend-mode:overlay" opacity="0.7">
<path d="M263.147 42.9453C262.798 42.0291 260.618 42.0017 258.28 42.8838C255.943 43.7658 254.339 45.2426 254.695 46.1657C255.052 47.0887 257.225 47.1092 259.555 46.2204C261.886 45.3315 263.504 43.8683 263.147 42.9453Z" fill="#FFFBF6"/>
</g>
<g style="mix-blend-mode:overlay" opacity="0.7">
<path d="M251.158 47.9844C250.877 47.6083 250.089 47.7109 249.396 48.2237C248.704 48.7365 248.382 49.4681 248.67 49.8441C248.958 50.2202 249.746 50.1245 250.432 49.6117C251.117 49.0989 251.446 48.3673 251.158 47.9844Z" fill="#FFFBF6"/>
</g>
<path d="M114.642 202.385C110.399 199.691 105.525 204.511 105.525 204.511C105.525 204.511 107.163 197.79 99.52 196.095C95.3111 195.165 88.9497 199.896 88.9497 199.896C88.9497 199.896 91.3147 193.271 86.5025 191.862C82.0468 190.556 78.5371 198.358 78.5371 198.358C78.5371 198.358 77.7693 192.204 72.7515 192.97C67.7337 193.736 65.8074 204.505 65.8074 204.505C65.8074 204.505 63.4905 199.117 58.4795 199.889C53.4685 200.662 53.4685 206.426 53.4685 206.426C53.4685 206.426 50.7745 203.752 48.4644 204.505C46.1543 205.257 43.4466 211.041 43.4466 211.041C43.4466 211.041 36.8933 212.962 33.8086 218.35L122.498 220.654C122.498 220.654 118.878 205.072 114.642 202.385Z" fill="#704940"/>
<path d="M118.748 208.751C117.583 210.802 115.746 212.115 113.675 212.115C110.159 212.115 107.307 208.32 107.307 203.643C107.307 203.458 107.307 203.281 107.307 203.096C106.666 203.512 106.063 203.983 105.504 204.505C105.679 203.638 105.702 202.747 105.573 201.872C104.663 203.056 103.52 204.043 102.214 204.771C98.0325 207.137 93.2066 206.528 91.4381 203.404C91.03 202.627 90.8066 201.768 90.7852 200.892C90.7638 200.016 90.945 199.146 91.3147 198.351C90.4928 198.819 89.6964 199.33 88.9291 199.883C89.3229 198.668 89.5151 197.398 89.4981 196.122C87.9763 199.096 85.2823 200.847 82.8283 200.19C81.2242 199.759 80.0863 198.385 79.4762 196.56C79.1249 197.137 78.8046 197.733 78.5165 198.344C78.3848 197.499 78.138 196.675 77.783 195.896C76.6862 201.694 73.3547 205.899 70.1398 205.414C68.5357 205.168 67.2538 203.807 66.4518 201.776C65.9994 203.349 65.7663 204.511 65.7663 204.511C65.4164 203.749 64.9694 203.034 64.4364 202.385C64.059 203.632 63.2836 204.722 62.2283 205.49C61.1729 206.258 59.8951 206.661 58.5892 206.638C57.6731 206.644 56.7672 206.446 55.9372 206.06C55.1072 205.673 54.3739 205.107 53.7907 204.402C53.6075 205.072 53.5017 205.76 53.4754 206.453C53.1098 206.104 52.7154 205.786 52.2963 205.503C52.0564 207.91 49.3556 209.81 46.0583 209.81C45.4357 209.81 44.8151 209.741 44.2075 209.605C43.7414 210.453 43.4466 211.068 43.4466 211.068C43.4466 211.068 36.8933 212.99 33.8086 218.378L122.498 220.682C121.528 216.622 120.275 212.636 118.748 208.751Z" fill="#5B332D"/>
<path d="M88.2025 207.171C88.2025 206.271 87.9348 205.39 87.4331 204.641C86.9315 203.892 86.2184 203.309 85.3842 202.964C84.55 202.619 83.6321 202.529 82.7465 202.705C81.8609 202.881 81.0474 203.314 80.4089 203.951C79.7704 204.588 79.3356 205.399 79.1595 206.283C78.9833 207.166 79.0737 208.082 79.4193 208.914C79.7648 209.746 80.35 210.457 81.1007 210.957C81.8515 211.458 82.7342 211.725 83.6371 211.725C84.848 211.725 86.0092 211.245 86.8654 210.391C87.7215 209.537 88.2025 208.379 88.2025 207.171Z" fill="#704940"/>
<path d="M106.67 213.065C106.67 212.164 106.402 211.284 105.9 210.535C105.399 209.786 104.686 209.203 103.851 208.858C103.017 208.513 102.099 208.423 101.214 208.599C100.328 208.774 99.5146 209.208 98.8761 209.845C98.2376 210.482 97.8028 211.293 97.6267 212.177C97.4505 213.06 97.5409 213.975 97.8865 214.808C98.232 215.64 98.8172 216.351 99.5679 216.851C100.319 217.351 101.201 217.619 102.104 217.619C103.315 217.619 104.476 217.139 105.333 216.285C106.189 215.431 106.67 214.273 106.67 213.065Z" fill="#704940"/>
<path d="M71.2434 214.193C71.7985 213.584 72.1633 212.826 72.2931 212.013C72.4229 211.2 72.3121 210.366 71.9743 209.615C71.6365 208.864 71.0863 208.227 70.3911 207.783C69.696 207.339 68.8861 207.107 68.0606 207.115C67.2352 207.123 66.43 207.371 65.7438 207.829C65.0577 208.287 64.5202 208.934 64.1974 209.692C63.8746 210.45 63.7804 211.285 63.9263 212.096C64.0723 212.906 64.452 213.656 65.0191 214.255C65.8535 215.068 66.9772 215.519 68.144 215.507C69.3108 215.495 70.4254 215.023 71.2434 214.193Z" fill="#704940"/>
<path d="M133.932 247.197L124.39 216.901C124.136 216.094 123.631 215.389 122.948 214.889C122.265 214.388 121.44 214.118 120.592 214.118H34.5283C33.8442 214.118 33.1753 214.32 32.6049 214.697C32.0345 215.073 31.5877 215.609 31.3202 216.237L18.1313 247.197H133.932Z" fill="#EF4B4B"/>
<path d="M124.513 217.284C119.413 229.092 100.158 237.878 77.1592 237.878C54.9424 237.878 36.2078 229.673 30.3742 218.46L18.1313 247.176H133.932L124.513 217.284Z" fill="#DD3636"/>
<path opacity="0.4" d="M118.59 246.828C118.59 246.828 123.691 230.733 125.809 230.945C127.927 231.156 131.752 246.192 131.752 246.192L118.59 246.828Z" fill="#EF4B4B"/>
<path d="M139.752 249.234C139.158 247.72 138.122 246.419 136.777 245.501C135.432 244.583 133.841 244.09 132.211 244.086H20.5648C18.9711 244.086 17.4145 244.565 16.0985 245.462C14.7825 246.359 13.7684 247.631 13.1889 249.111L12.6062 250.581H140.28L139.752 249.234Z" fill="#EF4B4B"/>
<path d="M70.6059 216.237C70.6059 215.595 63.2437 215.075 54.154 215.075C45.0644 215.075 37.7022 215.595 37.7022 216.237C37.7022 216.88 45.037 217.427 54.154 217.427C63.2711 217.427 70.6059 216.88 70.6059 216.237Z" fill="#FF988A"/>
<path d="M84.8025 216.237C84.8025 215.595 82.9996 215.075 80.7718 215.075C78.5439 215.075 76.7342 215.595 76.7342 216.237C76.7342 216.88 78.5439 217.407 80.7718 217.407C82.9996 217.407 84.8025 216.88 84.8025 216.237Z" fill="#FF988A"/>
<path d="M205.443 228.832C205.443 224.684 204.209 220.628 201.899 217.179C199.589 213.73 196.305 211.041 192.463 209.453C188.621 207.865 184.393 207.449 180.314 208.257C176.234 209.065 172.487 211.062 169.545 213.994C166.604 216.926 164.599 220.663 163.786 224.731C162.973 228.799 163.388 233.017 164.978 236.85C166.567 240.683 169.261 243.96 172.717 246.267C176.174 248.573 180.239 249.806 184.398 249.809C187.161 249.811 189.897 249.269 192.45 248.216C195.003 247.162 197.324 245.618 199.278 243.67C201.232 241.721 202.783 239.408 203.84 236.862C204.898 234.317 205.443 231.588 205.443 228.832Z" fill="#FF4A69"/>
<path d="M201.097 216.108C200.516 220.196 198.737 224.022 195.982 227.104C193.228 230.186 189.621 232.387 185.615 233.43C181.61 234.473 177.384 234.311 173.471 232.965C169.557 231.619 166.13 229.148 163.621 225.864C163.473 226.847 163.395 227.838 163.388 228.832C163.377 232.169 164.166 235.46 165.687 238.433C167.208 241.405 169.418 243.972 172.134 245.922C174.85 247.871 177.993 249.146 181.302 249.64C184.61 250.135 187.99 249.835 191.159 248.765C194.328 247.696 197.196 245.887 199.524 243.491C201.852 241.094 203.573 238.177 204.544 234.984C205.515 231.79 205.708 228.412 205.108 225.129C204.507 221.846 203.129 218.753 201.09 216.108H201.097Z" fill="#DD3C5E"/>
<path d="M182.465 220.941C187.62 219.205 191.143 215.882 190.341 213.516C189.539 211.15 184.72 210.644 179.572 212.381C174.424 214.118 170.894 217.441 171.696 219.807C172.498 222.172 177.317 222.678 182.465 220.941Z" fill="#FF8A93"/>
</svg>
